<svg width="259" height="272" viewBox="0 0 259 272" fill="none" xmlns="http://www.w3.org/2000/svg">
<path d="M9.65 24.45C8.03333 24.45 6.56667 24.125 5.25 23.475C3.95 22.8083 2.91667 21.825 2.15 20.525C1.38333 19.225 1 17.6333 1 15.75C1 14.3167 1.23333 13.0583 1.7 11.975C2.16667 10.8917 2.8 9.98333 3.6 9.25C4.41667 8.51667 5.35 7.96667 6.4 7.6C7.46667 7.23333 8.59167 7.05 9.775 7.05C10.725 7.05 11.6 7.15833 12.4 7.375C13.2 7.59167 13.95 7.89167 14.65 8.275L14.75 11.35H14.5L13.25 9.35C13.0833 9.03333 12.9 8.75 12.7 8.5C12.5 8.23333 12.25 8.03333 11.95 7.9C11.7 7.78333 11.45 7.7 11.2 7.65C10.9667 7.58333 10.6667 7.55 10.3 7.55C9.33333 7.55 8.45 7.80833 7.65 8.325C6.86667 8.84167 6.23333 9.7 5.75 10.9C5.28333 12.0833 5.05 13.7083 5.05 15.775C5.05 17.825 5.275 19.45 5.725 20.65C6.175 21.8333 6.78333 22.6833 7.55 23.2C8.33333 23.7 9.20833 23.95 10.175 23.95C10.7083 23.95 11.1333 23.9167 11.45 23.85C11.7667 23.7667 12.0833 23.65 12.4 23.5C12.7167 23.3667 12.9583 23.175 13.125 22.925C13.2917 22.6583 13.4417 22.375 13.575 22.075L14.675 19.625H14.925L14.85 23.2C14.15 23.5667 13.3667 23.8667 12.5 24.1C11.6333 24.3333 10.6833 24.45 9.65 24.45ZM22.3885 24.375C21.1218 24.375 20.0218 24.1167 19.0885 23.6C18.1551 23.0667 17.4301 22.3167 16.9135 21.35C16.4135 20.3833 16.1635 19.25 16.1635 17.95C16.1635 16.65 16.4301 15.525 16.9635 14.575C17.5135 13.625 18.2551 12.8917 19.1885 12.375C20.1385 11.8583 21.2051 11.6 22.3885 11.6C23.5718 11.6 24.6301 11.8583 25.5635 12.375C26.4968 12.875 27.2301 13.6 27.7635 14.55C28.3135 15.5 28.5885 16.6333 28.5885 17.95C28.5885 19.2667 28.3301 20.4083 27.8135 21.375C27.3135 22.325 26.5968 23.0667 25.6635 23.6C24.7468 24.1167 23.6551 24.375 22.3885 24.375ZM22.3885 23.875C22.9718 23.875 23.4385 23.7083 23.7885 23.375C24.1385 23.0417 24.3885 22.45 24.5385 21.6C24.7051 20.75 24.7885 19.55 24.7885 18C24.7885 16.4333 24.7051 15.225 24.5385 14.375C24.3885 13.525 24.1385 12.9333 23.7885 12.6C23.4385 12.2667 22.9718 12.1 22.3885 12.1C21.8051 12.1 21.3301 12.2667 20.9635 12.6C20.6135 12.9333 20.3551 13.525 20.1885 14.375C20.0385 15.225 19.9635 16.4333 19.9635 18C19.9635 19.55 20.0385 20.75 20.1885 21.6C20.3551 22.45 20.6135 23.0417 20.9635 23.375C21.3301 23.7083 21.8051 23.875 22.3885 23.875ZM29.6865 24V23.75L30.0365 23.65C30.6199 23.4833 30.9115 23.075 30.9115 22.425V14.6C30.9115 14.2333 30.8532 13.9667 30.7365 13.8C30.6199 13.6167 30.3949 13.4917 30.0615 13.425L29.6865 13.325V13.075L33.9615 11.625L34.2115 11.875L34.4115 13.375C34.9949 12.8583 35.6532 12.4333 36.3865 12.1C37.1199 11.7667 37.8449 11.6 38.5615 11.6C39.6615 11.6 40.5032 11.9 41.0865 12.5C41.6865 13.1 41.9865 14.0167 41.9865 15.25V22.45C41.9865 23.1 42.3032 23.5083 42.9365 23.675L43.1615 23.75V24H37.2615V23.75L37.5865 23.65C38.1699 23.4667 38.4615 23.0583 38.4615 22.425V14.45C38.4615 13.3833 37.9282 12.85 36.8615 12.85C36.1282 12.85 35.3282 13.2167 34.4615 13.95V22.45C34.4615 23.1 34.7532 23.5083 35.3365 23.675L35.5615 23.75V24H29.6865ZM48.7676 24.375C47.7009 24.375 46.8676 24.1083 46.2676 23.575C45.6842 23.0417 45.3926 22.1917 45.3926 21.025V12.475H43.6676V12.225L44.2676 12.125C44.7842 12.0083 45.2259 11.8417 45.5926 11.625C45.9759 11.4083 46.3509 11.1167 46.7176 10.75L48.7676 8.475H49.0176L48.9426 11.975H51.7426V12.475H48.9176V21.475C48.9176 22.0583 49.0426 22.5 49.2926 22.8C49.5592 23.1 49.8926 23.25 50.2926 23.25C50.6426 23.25 50.9509 23.1667 51.2176 23C51.4842 22.8167 51.7509 22.575 52.0176 22.275L52.2676 22.525C51.9342 23.0917 51.4759 23.5417 50.8926 23.875C50.3092 24.2083 49.6009 24.375 48.7676 24.375ZM56.7008 24.375C55.7341 24.375 54.9174 24.1 54.2508 23.55C53.6008 23 53.2758 22.2083 53.2758 21.175C53.2758 20.3917 53.6758 19.675 54.4758 19.025C55.2758 18.3583 56.5341 17.8583 58.2508 17.525C58.5174 17.475 58.8174 17.425 59.1508 17.375C59.4841 17.3083 59.8341 17.2417 60.2008 17.175V15.2C60.2008 14.0667 60.0591 13.275 59.7758 12.825C59.5091 12.3583 59.0841 12.125 58.5008 12.125C58.1008 12.125 57.7841 12.2583 57.5508 12.525C57.3174 12.775 57.1674 13.2167 57.1008 13.85L57.0508 14.125C57.0174 14.8417 56.8424 15.3667 56.5258 15.7C56.2091 16.0333 55.8174 16.2 55.3508 16.2C54.9174 16.2 54.5591 16.0667 54.2758 15.8C53.9924 15.5333 53.8508 15.175 53.8508 14.725C53.8508 14.0417 54.0841 13.4667 54.5508 13C55.0341 12.5333 55.6674 12.1833 56.4508 11.95C57.2341 11.7167 58.0841 11.6 59.0008 11.6C60.4841 11.6 61.6258 11.9667 62.4258 12.7C63.2424 13.4167 63.6508 14.5917 63.6508 16.225V21.75C63.6508 22.5 64.0008 22.875 64.7008 22.875H65.2508L65.4758 23.075C65.1591 23.475 64.8091 23.7833 64.4258 24C64.0591 24.2167 63.5341 24.325 62.8508 24.325C62.1174 24.325 61.5341 24.1583 61.1008 23.825C60.6841 23.475 60.4091 23.0167 60.2758 22.45C59.7758 22.9833 59.2591 23.4417 58.7258 23.825C58.2091 24.1917 57.5341 24.375 56.7008 24.375ZM58.2258 22.85C58.5591 22.85 58.8674 22.775 59.1508 22.625C59.4508 22.4583 59.8008 22.2083 60.2008 21.875V17.675C60.0341 17.7083 59.8674 17.7417 59.7008 17.775C59.5341 17.8083 59.3424 17.8417 59.1258 17.875C58.3591 18.075 57.7424 18.4167 57.2758 18.9C56.8258 19.3667 56.6008 20 56.6008 20.8C56.6008 21.4833 56.7591 22 57.0758 22.35C57.3924 22.6833 57.7758 22.85 58.2258 22.85ZM72.1902 24.375C71.0569 24.375 70.0236 24.1333 69.0902 23.65C68.1736 23.15 67.4402 22.4333 66.8902 21.5C66.3569 20.55 66.0902 19.3917 66.0902 18.025C66.0902 16.675 66.3819 15.525 66.9652 14.575C67.5652 13.6083 68.3569 12.875 69.3402 12.375C70.3402 11.8583 71.4319 11.6 72.6152 11.6C73.5819 11.6 74.3986 11.7583 75.0652 12.075C75.7319 12.3917 76.2402 12.8083 76.5902 13.325C76.9402 13.825 77.1152 14.35 77.1152 14.9C77.1152 15.3667 76.9736 15.7333 76.6902 16C76.4069 16.25 76.0402 16.375 75.5902 16.375C75.1069 16.375 74.7152 16.2 74.4152 15.85C74.1152 15.5 73.9402 15.0417 73.8902 14.475C73.8736 14.1083 73.8819 13.8 73.9152 13.55C73.9486 13.2833 73.9486 13.0167 73.9152 12.75C73.8486 12.4667 73.7402 12.2833 73.5902 12.2C73.4569 12.1 73.2652 12.05 73.0152 12.05C71.9986 12.05 71.2069 12.4917 70.6402 13.375C70.0902 14.2583 69.8152 15.6667 69.8152 17.6C69.8152 19.2833 70.1236 20.575 70.7402 21.475C71.3736 22.3583 72.3402 22.8 73.6402 22.8C74.4236 22.8 75.0569 22.6583 75.5402 22.375C76.0236 22.0917 76.4902 21.6667 76.9402 21.1L77.1902 21.3C76.7736 22.2833 76.1319 23.0417 75.2652 23.575C74.3986 24.1083 73.3736 24.375 72.1902 24.375ZM82.9473 24.375C81.8806 24.375 81.0473 24.1083 80.4473 23.575C79.8639 23.0417 79.5723 22.1917 79.5723 21.025V12.475H77.8473V12.225L78.4473 12.125C78.9639 12.0083 79.4056 11.8417 79.7723 11.625C80.1556 11.4083 80.5306 11.1167 80.8973 10.75L82.9473 8.475H83.1973L83.1223 11.975H85.9223V12.475H83.0973V21.475C83.0973 22.0583 83.2223 22.5 83.4723 22.8C83.7389 23.1 84.0723 23.25 84.4723 23.25C84.8223 23.25 85.1306 23.1667 85.3973 23C85.6639 22.8167 85.9306 22.575 86.1973 22.275L86.4473 22.525C86.1139 23.0917 85.6556 23.5417 85.0723 23.875C84.4889 24.2083 83.7806 24.375 82.9473 24.375Z" fill="#292F36"/>
<path d="M12.028 75.94C12.028 74.9133 11.83 74.0113 11.434 73.234C11.038 72.4567 10.488 71.848 9.784 71.408C9.09467 70.968 8.31 70.748 7.43 70.748C7.04867 70.748 6.66 70.7993 6.264 70.902C5.88267 70.99 5.50867 71.1293 5.142 71.32L6.176 67.25H11.984V65.6H4.724L2.7 73.806C3.228 73.4393 3.69 73.1607 4.086 72.97C4.49667 72.7647 4.9 72.6253 5.296 72.552C5.70667 72.464 6.154 72.42 6.638 72.42C7.298 72.42 7.88467 72.5667 8.398 72.86C8.926 73.1533 9.33667 73.564 9.63 74.092C9.938 74.62 10.092 75.236 10.092 75.94C10.092 76.644 9.95267 77.26 9.674 77.788C9.41 78.316 9.02133 78.7267 8.508 79.02C7.99467 79.3133 7.37133 79.46 6.638 79.46C6.08067 79.46 5.54533 79.3427 5.032 79.108C4.51867 78.8587 4.064 78.5433 3.668 78.162C3.28667 77.766 2.97867 77.348 2.744 76.908L1.16 77.986C1.49733 78.5727 1.908 79.1153 2.392 79.614C2.89067 80.098 3.48467 80.4867 4.174 80.78C4.878 81.0733 5.69933 81.22 6.638 81.22C7.386 81.22 8.08267 81.11 8.728 80.89C9.37333 80.67 9.94533 80.34 10.444 79.9C10.9427 79.46 11.3313 78.91 11.61 78.25C11.8887 77.59 12.028 76.82 12.028 75.94ZM24.666 75.94C24.666 74.9133 24.468 74.0113 24.072 73.234C23.676 72.4567 23.126 71.848 22.422 71.408C21.7326 70.968 20.948 70.748 20.068 70.748C19.6866 70.748 19.298 70.7993 18.902 70.902C18.5206 70.99 18.1466 71.1293 17.78 71.32L18.814 67.25H24.622V65.6H17.362L15.338 73.806C15.866 73.4393 16.328 73.1607 16.724 72.97C17.1346 72.7647 17.538 72.6253 17.934 72.552C18.3446 72.464 18.792 72.42 19.276 72.42C19.936 72.42 20.5226 72.5667 21.036 72.86C21.564 73.1533 21.9746 73.564 22.268 74.092C22.576 74.62 22.73 75.236 22.73 75.94C22.73 76.644 22.5906 77.26 22.312 77.788C22.048 78.316 21.6593 78.7267 21.146 79.02C20.6326 79.3133 20.0093 79.46 19.276 79.46C18.7186 79.46 18.1833 79.3427 17.67 79.108C17.1566 78.8587 16.702 78.5433 16.306 78.162C15.9246 77.766 15.6166 77.348 15.382 76.908L13.798 77.986C14.1353 78.5727 14.546 79.1153 15.03 79.614C15.5286 80.098 16.1226 80.4867 16.812 80.78C17.516 81.0733 18.3373 81.22 19.276 81.22C20.024 81.22 20.7206 81.11 21.366 80.89C22.0113 80.67 22.5833 80.34 23.082 79.9C23.5806 79.46 23.9693 78.91 24.248 78.25C24.5266 77.59 24.666 76.82 24.666 75.94ZM35.3856 81H43.1516V79.24H35.3856V81ZM35.3856 67.36H43.1516V65.6H35.3856V67.36ZM35.3856 73.52H42.7116V71.76H35.3856V73.52ZM34.3516 65.6V81H36.2216V65.6H34.3516ZM47.3493 77.876C47.3493 77.5093 47.4373 77.194 47.6133 76.93C47.7893 76.666 48.0533 76.4607 48.4053 76.314C48.772 76.1673 49.2413 76.094 49.8133 76.094C50.4293 76.094 51.0087 76.1747 51.5513 76.336C52.094 76.4827 52.622 76.732 53.1353 77.084V76.05C53.0327 75.918 52.8347 75.7493 52.5413 75.544C52.248 75.324 51.852 75.1333 51.3533 74.972C50.8693 74.796 50.2607 74.708 49.5273 74.708C48.2807 74.708 47.3053 75.0087 46.6013 75.61C45.912 76.1967 45.5673 76.9813 45.5673 77.964C45.5673 78.6533 45.7287 79.24 46.0513 79.724C46.374 80.208 46.7993 80.582 47.3273 80.846C47.87 81.0953 48.4493 81.22 49.0653 81.22C49.6227 81.22 50.18 81.1173 50.7373 80.912C51.3093 80.7067 51.786 80.3913 52.1673 79.966C52.5633 79.5407 52.7613 79.0053 52.7613 78.36L52.4093 77.04C52.4093 77.568 52.2773 78.0373 52.0133 78.448C51.764 78.844 51.4193 79.152 50.9793 79.372C50.554 79.592 50.07 79.702 49.5273 79.702C49.102 79.702 48.7207 79.636 48.3833 79.504C48.0607 79.3573 47.804 79.1447 47.6133 78.866C47.4373 78.5873 47.3493 78.2573 47.3493 77.876ZM47.0853 73.212C47.2467 73.0947 47.4667 72.9553 47.7453 72.794C48.024 72.6327 48.3613 72.4933 48.7573 72.376C49.168 72.2587 49.6227 72.2 50.1213 72.2C50.4293 72.2 50.7227 72.2293 51.0013 72.288C51.28 72.3467 51.522 72.442 51.7273 72.574C51.9473 72.706 52.116 72.8893 52.2333 73.124C52.3507 73.344 52.4093 73.63 52.4093 73.982V81H54.1693V73.74C54.1693 73.08 54.0007 72.5227 53.6633 72.068C53.3407 71.6133 52.8787 71.2687 52.2773 71.034C51.6907 70.7847 51.0013 70.66 50.2093 70.66C49.2707 70.66 48.464 70.7993 47.7893 71.078C47.1293 71.3567 46.6087 71.6353 46.2273 71.914L47.0853 73.212ZM57.7871 77.898L56.4011 78.756C56.5918 79.152 56.8705 79.5407 57.2371 79.922C57.6185 80.3033 58.0805 80.6187 58.6231 80.868C59.1658 81.1027 59.7745 81.22 60.4491 81.22C61.4905 81.22 62.3265 80.9267 62.9571 80.34C63.6025 79.7533 63.9251 79.02 63.9251 78.14C63.9251 77.5387 63.7785 77.0473 63.4851 76.666C63.2065 76.2847 62.8251 75.962 62.3411 75.698C61.8571 75.4193 61.3218 75.1627 60.7351 74.928C60.3831 74.7813 60.0458 74.6273 59.7231 74.466C59.4005 74.3047 59.1365 74.1213 58.9311 73.916C58.7258 73.7107 58.6231 73.476 58.6231 73.212C58.6231 72.8747 58.7551 72.6253 59.0191 72.464C59.2831 72.3027 59.5985 72.222 59.9651 72.222C60.4931 72.222 60.9625 72.3467 61.3731 72.596C61.7985 72.8453 62.1505 73.1607 62.4291 73.542L63.8371 72.64C63.6318 72.2587 63.3458 71.9213 62.9791 71.628C62.6125 71.3347 62.1871 71.1 61.7031 70.924C61.2338 70.748 60.7278 70.66 60.1851 70.66C59.6425 70.66 59.1145 70.7553 58.6011 70.946C58.1025 71.1367 57.6918 71.43 57.3691 71.826C57.0611 72.222 56.9071 72.7207 56.9071 73.322C56.9071 73.9087 57.0538 74.4 57.3471 74.796C57.6551 75.1773 58.0291 75.4927 58.4691 75.742C58.9238 75.9767 59.3711 76.182 59.8111 76.358C60.2071 76.5047 60.5811 76.666 60.9331 76.842C61.2851 77.0033 61.5711 77.2087 61.7911 77.458C62.0258 77.6927 62.1431 77.986 62.1431 78.338C62.1431 78.734 61.9965 79.0493 61.7031 79.284C61.4245 79.504 61.0358 79.614 60.5371 79.614C60.1265 79.614 59.7451 79.5407 59.3931 79.394C59.0558 79.2327 58.7551 79.02 58.4911 78.756C58.2271 78.492 57.9925 78.206 57.7871 77.898ZM64.9222 70.88V72.53H69.9822V70.88H64.9222ZM66.5722 67.36V81H68.3322V67.36H66.5722ZM80.367 72.86H82.853C83.777 72.86 84.5764 72.728 85.251 72.464C85.9404 72.2 86.4757 71.8113 86.857 71.298C87.2384 70.7847 87.429 70.1687 87.429 69.45C87.429 68.57 87.2384 67.8513 86.857 67.294C86.4757 66.722 85.9404 66.2967 85.251 66.018C84.5764 65.7393 83.777 65.6 82.853 65.6H78.893V81H83.073C84.0704 81 84.9577 80.8387 85.735 80.516C86.527 80.1787 87.1504 79.68 87.605 79.02C88.0744 78.3453 88.309 77.502 88.309 76.49C88.309 75.786 88.177 75.1773 87.913 74.664C87.649 74.1507 87.275 73.7327 86.791 73.41C86.3217 73.0727 85.7717 72.8233 85.141 72.662C84.5104 72.5007 83.821 72.42 83.073 72.42H80.367V73.454H83.073C83.5717 73.454 84.0264 73.52 84.437 73.652C84.8477 73.7693 85.1997 73.9527 85.493 74.202C85.801 74.4513 86.0357 74.7593 86.197 75.126C86.3584 75.4927 86.439 75.9107 86.439 76.38C86.439 77.0107 86.2924 77.546 85.999 77.986C85.7204 78.426 85.3244 78.7633 84.811 78.998C84.3124 79.2327 83.733 79.35 83.073 79.35H80.763V67.25H82.853C83.6304 67.25 84.2757 67.4553 84.789 67.866C85.3024 68.262 85.559 68.8267 85.559 69.56C85.559 70.044 85.4417 70.4547 85.207 70.792C84.9724 71.1293 84.6497 71.386 84.239 71.562C83.8284 71.738 83.3664 71.826 82.853 71.826H80.367V72.86ZM91.2706 66.7C91.2706 67.0227 91.388 67.3087 91.6226 67.558C91.872 67.7927 92.158 67.91 92.4806 67.91C92.818 67.91 93.104 67.7927 93.3386 67.558C93.5733 67.3087 93.6906 67.0227 93.6906 66.7C93.6906 66.3627 93.5733 66.0767 93.3386 65.842C93.104 65.6073 92.818 65.49 92.4806 65.49C92.158 65.49 91.872 65.6073 91.6226 65.842C91.388 66.0767 91.2706 66.3627 91.2706 66.7ZM91.6006 70.88V81H93.3606V70.88H91.6006ZM98.9655 70.88H97.2055V81H98.9655V70.88ZM102.023 72.816L102.991 71.364C102.727 71.0853 102.434 70.902 102.111 70.814C101.803 70.7113 101.466 70.66 101.099 70.66C100.63 70.66 100.168 70.8433 99.7135 71.21C99.2588 71.5767 98.8848 72.0753 98.5915 72.706C98.3128 73.322 98.1735 74.0333 98.1735 74.84H98.9655C98.9655 74.356 99.0095 73.9233 99.0975 73.542C99.2001 73.1607 99.3761 72.86 99.6255 72.64C99.8748 72.42 100.219 72.31 100.659 72.31C100.953 72.31 101.195 72.354 101.385 72.442C101.576 72.5153 101.789 72.64 102.023 72.816ZM105.436 75.94C105.436 75.236 105.583 74.6127 105.876 74.07C106.184 73.5127 106.595 73.08 107.108 72.772C107.636 72.464 108.23 72.31 108.89 72.31C109.433 72.31 109.939 72.398 110.408 72.574C110.892 72.7353 111.31 72.9553 111.662 73.234C112.014 73.5127 112.264 73.8207 112.41 74.158V71.958C112.058 71.5473 111.552 71.232 110.892 71.012C110.247 70.7773 109.58 70.66 108.89 70.66C107.908 70.66 107.02 70.8873 106.228 71.342C105.436 71.7967 104.806 72.42 104.336 73.212C103.882 74.004 103.654 74.9133 103.654 75.94C103.654 76.952 103.882 77.8613 104.336 78.668C104.806 79.46 105.436 80.0833 106.228 80.538C107.02 80.9927 107.908 81.22 108.89 81.22C109.58 81.22 110.247 81.11 110.892 80.89C111.552 80.6553 112.058 80.3327 112.41 79.922V77.722C112.264 78.0447 112.014 78.3527 111.662 78.646C111.31 78.9247 110.892 79.152 110.408 79.328C109.939 79.4893 109.433 79.57 108.89 79.57C108.23 79.57 107.636 79.416 107.108 79.108C106.595 78.7853 106.184 78.3527 105.876 77.81C105.583 77.2673 105.436 76.644 105.436 75.94ZM117.13 63.84H115.37V81H117.13V63.84ZM121.86 74.84V81H123.62V74.62C123.62 73.74 123.473 73.0067 123.18 72.42C122.901 71.8333 122.498 71.3933 121.97 71.1C121.457 70.8067 120.848 70.66 120.144 70.66C119.44 70.66 118.817 70.8433 118.274 71.21C117.746 71.5767 117.328 72.0753 117.02 72.706C116.712 73.322 116.558 74.0333 116.558 74.84H117.13C117.13 74.356 117.233 73.9233 117.438 73.542C117.658 73.1607 117.959 72.86 118.34 72.64C118.736 72.42 119.191 72.31 119.704 72.31C120.423 72.31 120.958 72.5227 121.31 72.948C121.677 73.3733 121.86 74.004 121.86 74.84ZM125.501 70.88L129.901 81.77L132.783 74.4L135.841 81.77L140.241 70.88H138.261L135.709 77.502L132.761 70.11L130.011 77.458L127.481 70.88H125.501ZM141.012 75.94C141.012 76.952 141.239 77.8613 141.694 78.668C142.163 79.46 142.794 80.0833 143.586 80.538C144.378 80.9927 145.265 81.22 146.248 81.22C147.245 81.22 148.133 80.9927 148.91 80.538C149.702 80.0833 150.325 79.46 150.78 78.668C151.249 77.8613 151.484 76.952 151.484 75.94C151.484 74.9133 151.249 74.004 150.78 73.212C150.325 72.42 149.702 71.7967 148.91 71.342C148.133 70.8873 147.245 70.66 146.248 70.66C145.265 70.66 144.378 70.8873 143.586 71.342C142.794 71.7967 142.163 72.42 141.694 73.212C141.239 74.004 141.012 74.9133 141.012 75.94ZM142.794 75.94C142.794 75.236 142.941 74.6127 143.234 74.07C143.542 73.5127 143.953 73.08 144.466 72.772C144.994 72.464 145.588 72.31 146.248 72.31C146.908 72.31 147.495 72.464 148.008 72.772C148.536 73.08 148.947 73.5127 149.24 74.07C149.548 74.6127 149.702 75.236 149.702 75.94C149.702 76.644 149.548 77.2673 149.24 77.81C148.947 78.3527 148.536 78.7853 148.008 79.108C147.495 79.416 146.908 79.57 146.248 79.57C145.588 79.57 144.994 79.416 144.466 79.108C143.953 78.7853 143.542 78.3527 143.234 77.81C142.941 77.2673 142.794 76.644 142.794 75.94ZM153.242 75.94C153.242 76.952 153.469 77.8613 153.924 78.668C154.393 79.46 155.024 80.0833 155.816 80.538C156.608 80.9927 157.495 81.22 158.478 81.22C159.475 81.22 160.363 80.9927 161.14 80.538C161.932 80.0833 162.555 79.46 163.01 78.668C163.479 77.8613 163.714 76.952 163.714 75.94C163.714 74.9133 163.479 74.004 163.01 73.212C162.555 72.42 161.932 71.7967 161.14 71.342C160.363 70.8873 159.475 70.66 158.478 70.66C157.495 70.66 156.608 70.8873 155.816 71.342C155.024 71.7967 154.393 72.42 153.924 73.212C153.469 74.004 153.242 74.9133 153.242 75.94ZM155.024 75.94C155.024 75.236 155.171 74.6127 155.464 74.07C155.772 73.5127 156.183 73.08 156.696 72.772C157.224 72.464 157.818 72.31 158.478 72.31C159.138 72.31 159.725 72.464 160.238 72.772C160.766 73.08 161.177 73.5127 161.47 74.07C161.778 74.6127 161.932 75.236 161.932 75.94C161.932 76.644 161.778 77.2673 161.47 77.81C161.177 78.3527 160.766 78.7853 160.238 79.108C159.725 79.416 159.138 79.57 158.478 79.57C157.818 79.57 157.224 79.416 156.696 79.108C156.183 78.7853 155.772 78.3527 155.464 77.81C155.171 77.2673 155.024 76.644 155.024 75.94ZM173.942 63.84V81H175.702V63.84H173.942ZM165.472 75.94C165.472 77.0253 165.699 77.964 166.154 78.756C166.608 79.548 167.217 80.1567 167.98 80.582C168.742 81.0073 169.578 81.22 170.488 81.22C171.338 81.22 172.079 81.0073 172.71 80.582C173.34 80.1567 173.832 79.548 174.184 78.756C174.55 77.964 174.734 77.0253 174.734 75.94C174.734 74.84 174.55 73.9013 174.184 73.124C173.832 72.332 173.34 71.7233 172.71 71.298C172.079 70.8727 171.338 70.66 170.488 70.66C169.578 70.66 168.742 70.8727 167.98 71.298C167.217 71.7233 166.608 72.332 166.154 73.124C165.699 73.9013 165.472 74.84 165.472 75.94ZM167.254 75.94C167.254 75.1627 167.408 74.5027 167.716 73.96C168.038 73.4173 168.464 73.0067 168.992 72.728C169.52 72.4493 170.092 72.31 170.708 72.31C171.221 72.31 171.727 72.4493 172.226 72.728C172.724 73.0067 173.135 73.4173 173.458 73.96C173.78 74.5027 173.942 75.1627 173.942 75.94C173.942 76.7173 173.78 77.3773 173.458 77.92C173.135 78.4627 172.724 78.8733 172.226 79.152C171.727 79.4307 171.221 79.57 170.708 79.57C170.092 79.57 169.52 79.4307 168.992 79.152C168.464 78.8733 168.038 78.4627 167.716 77.92C167.408 77.3773 167.254 76.7173 167.254 75.94ZM187.518 76.38H195.658L194.998 74.62H188.178L187.518 76.38ZM191.544 69.076L194.184 75.28L194.36 75.72L196.604 81H198.694L191.544 64.83L184.394 81H186.484L188.772 75.588L188.948 75.192L191.544 69.076ZM197.932 70.88L202.772 81.77L207.612 70.88H205.632L202.772 78.03L199.912 70.88H197.932ZM213.085 81.22C214.17 81.22 215.109 81.0073 215.901 80.582C216.708 80.142 217.375 79.4967 217.903 78.646L216.473 77.744C216.106 78.36 215.659 78.822 215.131 79.13C214.603 79.4233 213.994 79.57 213.305 79.57C212.616 79.57 212.029 79.4233 211.545 79.13C211.061 78.8367 210.694 78.4113 210.445 77.854C210.196 77.2967 210.071 76.622 210.071 75.83C210.086 75.0527 210.218 74.4 210.467 73.872C210.731 73.3293 211.098 72.9187 211.567 72.64C212.051 72.3467 212.63 72.2 213.305 72.2C213.877 72.2 214.376 72.3247 214.801 72.574C215.226 72.8233 215.556 73.168 215.791 73.608C216.04 74.048 216.165 74.5687 216.165 75.17C216.165 75.2727 216.143 75.4047 216.099 75.566C216.055 75.7127 216.011 75.8227 215.967 75.896L216.671 74.884H209.411V76.38H218.057C218.057 76.3507 218.057 76.2847 218.057 76.182C218.072 76.0647 218.079 75.9547 218.079 75.852C218.079 74.7813 217.888 73.8573 217.507 73.08C217.126 72.3027 216.576 71.7087 215.857 71.298C215.153 70.8727 214.302 70.66 213.305 70.66C212.308 70.66 211.428 70.88 210.665 71.32C209.917 71.76 209.33 72.376 208.905 73.168C208.494 73.96 208.289 74.884 208.289 75.94C208.289 76.9813 208.487 77.898 208.883 78.69C209.294 79.482 209.858 80.1053 210.577 80.56C211.31 81 212.146 81.22 213.085 81.22ZM220.056 80.12C220.056 80.4427 220.173 80.7287 220.408 80.978C220.657 81.2127 220.943 81.33 221.266 81.33C221.603 81.33 221.889 81.2127 222.124 80.978C222.358 80.7287 222.476 80.4427 222.476 80.12C222.476 79.7827 222.358 79.4967 222.124 79.262C221.889 79.0273 221.603 78.91 221.266 78.91C220.943 78.91 220.657 79.0273 220.408 79.262C220.173 79.4967 220.056 79.7827 220.056 80.12ZM3.734 105.86H6.22C7.144 105.86 7.94333 105.728 8.618 105.464C9.30733 105.2 9.84267 104.811 10.224 104.298C10.6053 103.785 10.796 103.169 10.796 102.45C10.796 101.57 10.6053 100.851 10.224 100.294C9.84267 99.722 9.30733 99.2967 8.618 99.018C7.94333 98.7393 7.144 98.6 6.22 98.6H2.26V114H6.44C7.43733 114 8.32467 113.839 9.102 113.516C9.894 113.179 10.5173 112.68 10.972 112.02C11.4413 111.345 11.676 110.502 11.676 109.49C11.676 108.786 11.544 108.177 11.28 107.664C11.016 107.151 10.642 106.733 10.158 106.41C9.68867 106.073 9.13867 105.823 8.508 105.662C7.87733 105.501 7.188 105.42 6.44 105.42H3.734V106.454H6.44C6.93867 106.454 7.39333 106.52 7.804 106.652C8.21467 106.769 8.56667 106.953 8.86 107.202C9.168 107.451 9.40267 107.759 9.564 108.126C9.72533 108.493 9.806 108.911 9.806 109.38C9.806 110.011 9.65933 110.546 9.366 110.986C9.08733 111.426 8.69133 111.763 8.178 111.998C7.67933 112.233 7.1 112.35 6.44 112.35H4.13V100.25H6.22C6.99733 100.25 7.64267 100.455 8.156 100.866C8.66933 101.262 8.926 101.827 8.926 102.56C8.926 103.044 8.80867 103.455 8.574 103.792C8.33933 104.129 8.01667 104.386 7.606 104.562C7.19533 104.738 6.73333 104.826 6.22 104.826H3.734V105.86ZM16.3976 103.88H14.6376V114H16.3976V103.88ZM19.4556 105.816L20.4236 104.364C20.1596 104.085 19.8662 103.902 19.5436 103.814C19.2356 103.711 18.8982 103.66 18.5316 103.66C18.0622 103.66 17.6002 103.843 17.1456 104.21C16.6909 104.577 16.3169 105.075 16.0236 105.706C15.7449 106.322 15.6056 107.033 15.6056 107.84H16.3976C16.3976 107.356 16.4416 106.923 16.5296 106.542C16.6322 106.161 16.8082 105.86 17.0576 105.64C17.3069 105.42 17.6516 105.31 18.0916 105.31C18.3849 105.31 18.6269 105.354 18.8176 105.442C19.0082 105.515 19.2209 105.64 19.4556 105.816ZM21.1963 108.94C21.1963 109.952 21.4237 110.861 21.8783 111.668C22.3477 112.46 22.9783 113.083 23.7703 113.538C24.5623 113.993 25.4497 114.22 26.4323 114.22C27.4297 114.22 28.317 113.993 29.0943 113.538C29.8863 113.083 30.5097 112.46 30.9643 111.668C31.4337 110.861 31.6683 109.952 31.6683 108.94C31.6683 107.913 31.4337 107.004 30.9643 106.212C30.5097 105.42 29.8863 104.797 29.0943 104.342C28.317 103.887 27.4297 103.66 26.4323 103.66C25.4497 103.66 24.5623 103.887 23.7703 104.342C22.9783 104.797 22.3477 105.42 21.8783 106.212C21.4237 107.004 21.1963 107.913 21.1963 108.94ZM22.9783 108.94C22.9783 108.236 23.125 107.613 23.4183 107.07C23.7263 106.513 24.137 106.08 24.6503 105.772C25.1783 105.464 25.7723 105.31 26.4323 105.31C27.0923 105.31 27.679 105.464 28.1923 105.772C28.7203 106.08 29.131 106.513 29.4243 107.07C29.7323 107.613 29.8863 108.236 29.8863 108.94C29.8863 109.644 29.7323 110.267 29.4243 110.81C29.131 111.353 28.7203 111.785 28.1923 112.108C27.679 112.416 27.0923 112.57 26.4323 112.57C25.7723 112.57 25.1783 112.416 24.6503 112.108C24.137 111.785 23.7263 111.353 23.4183 110.81C23.125 110.267 22.9783 109.644 22.9783 108.94ZM33.4261 108.94C33.4261 109.952 33.6534 110.861 34.1081 111.668C34.5774 112.46 35.2081 113.083 36.0001 113.538C36.7921 113.993 37.6794 114.22 38.6621 114.22C39.6594 114.22 40.5468 113.993 41.3241 113.538C42.1161 113.083 42.7394 112.46 43.1941 111.668C43.6634 110.861 43.8981 109.952 43.8981 108.94C43.8981 107.913 43.6634 107.004 43.1941 106.212C42.7394 105.42 42.1161 104.797 41.3241 104.342C40.5468 103.887 39.6594 103.66 38.6621 103.66C37.6794 103.66 36.7921 103.887 36.0001 104.342C35.2081 104.797 34.5774 105.42 34.1081 106.212C33.6534 107.004 33.4261 107.913 33.4261 108.94ZM35.2081 108.94C35.2081 108.236 35.3548 107.613 35.6481 107.07C35.9561 106.513 36.3668 106.08 36.8801 105.772C37.4081 105.464 38.0021 105.31 38.6621 105.31C39.3221 105.31 39.9088 105.464 40.4221 105.772C40.9501 106.08 41.3608 106.513 41.6541 107.07C41.9621 107.613 42.1161 108.236 42.1161 108.94C42.1161 109.644 41.9621 110.267 41.6541 110.81C41.3608 111.353 40.9501 111.785 40.4221 112.108C39.9088 112.416 39.3221 112.57 38.6621 112.57C38.0021 112.57 37.4081 112.416 36.8801 112.108C36.3668 111.785 35.9561 111.353 35.6481 110.81C35.3548 110.267 35.2081 109.644 35.2081 108.94ZM46.4259 96.84V114H48.1859V96.84H46.4259ZM51.9259 103.88L47.5259 108.06L52.3659 114H54.5659L49.7259 108.06L54.1259 103.88H51.9259ZM56.4453 96.84V114H58.2053V96.84H56.4453ZM69.7656 103.88H67.7856L64.6616 111.712L65.3876 111.8L62.1756 103.88H60.0856L63.9576 112.57L61.1856 118.84H63.1656L69.7656 103.88ZM78.1351 107.84V114H79.8951V107.62C79.8951 106.403 79.5797 105.442 78.9491 104.738C78.3331 104.019 77.4897 103.66 76.4191 103.66C75.7591 103.66 75.1724 103.807 74.6591 104.1C74.1604 104.393 73.7424 104.848 73.4051 105.464V103.88H71.6451V114H73.4051V107.84C73.4051 107.341 73.5077 106.901 73.7131 106.52C73.9331 106.139 74.2337 105.845 74.6151 105.64C75.0111 105.42 75.4657 105.31 75.9791 105.31C76.6831 105.31 77.2184 105.523 77.5851 105.948C77.9517 106.373 78.1351 107.004 78.1351 107.84ZM85.0297 111.58L83.0937 117.278L84.3697 117.74L86.7897 112.24L85.0297 111.58ZM108.997 98.6V110.062L97.337 97.83V114H99.207V102.538L110.867 114.77V98.6H108.997ZM118.422 114.22C119.507 114.22 120.446 114.007 121.238 113.582C122.044 113.142 122.712 112.497 123.24 111.646L121.81 110.744C121.443 111.36 120.996 111.822 120.468 112.13C119.94 112.423 119.331 112.57 118.642 112.57C117.952 112.57 117.366 112.423 116.882 112.13C116.398 111.837 116.031 111.411 115.782 110.854C115.532 110.297 115.408 109.622 115.408 108.83C115.422 108.053 115.554 107.4 115.804 106.872C116.068 106.329 116.434 105.919 116.904 105.64C117.388 105.347 117.967 105.2 118.642 105.2C119.214 105.2 119.712 105.325 120.138 105.574C120.563 105.823 120.893 106.168 121.128 106.608C121.377 107.048 121.502 107.569 121.502 108.17C121.502 108.273 121.48 108.405 121.436 108.566C121.392 108.713 121.348 108.823 121.304 108.896L122.008 107.884H114.748V109.38H123.394C123.394 109.351 123.394 109.285 123.394 109.182C123.408 109.065 123.416 108.955 123.416 108.852C123.416 107.781 123.225 106.857 122.844 106.08C122.462 105.303 121.912 104.709 121.194 104.298C120.49 103.873 119.639 103.66 118.642 103.66C117.644 103.66 116.764 103.88 116.002 104.32C115.254 104.76 114.667 105.376 114.242 106.168C113.831 106.96 113.626 107.884 113.626 108.94C113.626 109.981 113.824 110.898 114.22 111.69C114.63 112.482 115.195 113.105 115.914 113.56C116.647 114 117.483 114.22 118.422 114.22ZM124.186 103.88L128.586 114.77L131.468 107.4L134.526 114.77L138.926 103.88H136.946L134.394 110.502L131.446 103.11L128.696 110.458L126.166 103.88H124.186ZM156.206 98.6L152.224 105.728L148.264 98.6H146.174L151.3 107.378V114H153.17V107.356L158.296 98.6H156.206ZM157.195 108.94C157.195 109.952 157.422 110.861 157.877 111.668C158.346 112.46 158.977 113.083 159.769 113.538C160.561 113.993 161.448 114.22 162.431 114.22C163.428 114.22 164.316 113.993 165.093 113.538C165.885 113.083 166.508 112.46 166.963 111.668C167.432 110.861 167.667 109.952 167.667 108.94C167.667 107.913 167.432 107.004 166.963 106.212C166.508 105.42 165.885 104.797 165.093 104.342C164.316 103.887 163.428 103.66 162.431 103.66C161.448 103.66 160.561 103.887 159.769 104.342C158.977 104.797 158.346 105.42 157.877 106.212C157.422 107.004 157.195 107.913 157.195 108.94ZM158.977 108.94C158.977 108.236 159.124 107.613 159.417 107.07C159.725 106.513 160.136 106.08 160.649 105.772C161.177 105.464 161.771 105.31 162.431 105.31C163.091 105.31 163.678 105.464 164.191 105.772C164.719 106.08 165.13 106.513 165.423 107.07C165.731 107.613 165.885 108.236 165.885 108.94C165.885 109.644 165.731 110.267 165.423 110.81C165.13 111.353 164.719 111.785 164.191 112.108C163.678 112.416 163.091 112.57 162.431 112.57C161.771 112.57 161.177 112.416 160.649 112.108C160.136 111.785 159.725 111.353 159.417 110.81C159.124 110.267 158.977 109.644 158.977 108.94ZM172.065 103.88H170.305V114H172.065V103.88ZM175.123 105.816L176.091 104.364C175.827 104.085 175.533 103.902 175.211 103.814C174.903 103.711 174.565 103.66 174.199 103.66C173.729 103.66 173.267 103.843 172.813 104.21C172.358 104.577 171.984 105.075 171.691 105.706C171.412 106.322 171.273 107.033 171.273 107.84H172.065C172.065 107.356 172.109 106.923 172.197 106.542C172.299 106.161 172.475 105.86 172.725 105.64C172.974 105.42 173.319 105.31 173.759 105.31C174.052 105.31 174.294 105.354 174.485 105.442C174.675 105.515 174.888 105.64 175.123 105.816ZM177.956 96.84V114H179.716V96.84H177.956ZM183.456 103.88L179.056 108.06L183.896 114H186.096L181.256 108.06L185.656 103.88H183.456ZM194.901 101.636L198.311 100.624V114H200.181V98.38L194.901 99.7V101.636ZM205.025 101.636L208.435 100.624V114H210.305V98.38L205.025 99.7V101.636ZM213.83 114H224.698V112.24H217.68L222.586 107.246C223.187 106.63 223.678 105.933 224.06 105.156C224.441 104.379 224.632 103.594 224.632 102.802C224.632 102.333 224.536 101.841 224.346 101.328C224.155 100.815 223.862 100.338 223.466 99.898C223.07 99.4433 222.564 99.0767 221.948 98.798C221.332 98.5047 220.598 98.358 219.748 98.358C218.692 98.358 217.782 98.5927 217.02 99.062C216.272 99.5167 215.7 100.162 215.304 100.998C214.908 101.819 214.71 102.78 214.71 103.88H216.58C216.58 103.103 216.704 102.435 216.954 101.878C217.203 101.306 217.562 100.873 218.032 100.58C218.516 100.272 219.088 100.118 219.748 100.118C220.217 100.118 220.635 100.199 221.002 100.36C221.368 100.521 221.676 100.734 221.926 100.998C222.19 101.262 222.388 101.555 222.52 101.878C222.652 102.201 222.718 102.531 222.718 102.868C222.718 103.279 222.652 103.675 222.52 104.056C222.402 104.423 222.219 104.789 221.97 105.156C221.735 105.508 221.449 105.867 221.112 106.234L213.83 114ZM228.885 106.3C228.885 105.405 228.973 104.584 229.149 103.836C229.325 103.073 229.582 102.421 229.919 101.878C230.256 101.321 230.66 100.895 231.129 100.602C231.613 100.294 232.148 100.14 232.735 100.14C233.336 100.14 233.872 100.294 234.341 100.602C234.81 100.895 235.214 101.321 235.551 101.878C235.888 102.421 236.145 103.073 236.321 103.836C236.497 104.584 236.585 105.405 236.585 106.3C236.585 107.195 236.497 108.023 236.321 108.786C236.145 109.534 235.888 110.187 235.551 110.744C235.214 111.287 234.81 111.712 234.341 112.02C233.872 112.313 233.336 112.46 232.735 112.46C232.148 112.46 231.613 112.313 231.129 112.02C230.66 111.712 230.256 111.287 229.919 110.744C229.582 110.187 229.325 109.534 229.149 108.786C228.973 108.023 228.885 107.195 228.885 106.3ZM227.015 106.3C227.015 107.84 227.257 109.204 227.741 110.392C228.225 111.58 228.892 112.519 229.743 113.208C230.608 113.883 231.606 114.22 232.735 114.22C233.864 114.22 234.854 113.883 235.705 113.208C236.57 112.519 237.245 111.58 237.729 110.392C238.213 109.204 238.455 107.84 238.455 106.3C238.455 104.76 238.213 103.396 237.729 102.208C237.245 101.02 236.57 100.089 235.705 99.414C234.854 98.7247 233.864 98.38 232.735 98.38C231.606 98.38 230.608 98.7247 229.743 99.414C228.892 100.089 228.225 101.02 227.741 102.208C227.257 103.396 227.015 104.76 227.015 106.3ZM241.306 101.636L244.716 100.624V114H246.586V98.38L241.306 99.7V101.636ZM2.942 174.94C2.942 174.236 3.08867 173.613 3.382 173.07C3.69 172.513 4.10067 172.08 4.614 171.772C5.142 171.464 5.736 171.31 6.396 171.31C6.93867 171.31 7.44467 171.398 7.914 171.574C8.398 171.735 8.816 171.955 9.168 172.234C9.52 172.513 9.76933 172.821 9.916 173.158V170.958C9.564 170.547 9.058 170.232 8.398 170.012C7.75267 169.777 7.08533 169.66 6.396 169.66C5.41333 169.66 4.526 169.887 3.734 170.342C2.942 170.797 2.31133 171.42 1.842 172.212C1.38733 173.004 1.16 173.913 1.16 174.94C1.16 175.952 1.38733 176.861 1.842 177.668C2.31133 178.46 2.942 179.083 3.734 179.538C4.526 179.993 5.41333 180.22 6.396 180.22C7.08533 180.22 7.75267 180.11 8.398 179.89C9.058 179.655 9.564 179.333 9.916 178.922V176.722C9.76933 177.045 9.52 177.353 9.168 177.646C8.816 177.925 8.398 178.152 7.914 178.328C7.44467 178.489 6.93867 178.57 6.396 178.57C5.736 178.57 5.142 178.416 4.614 178.108C4.10067 177.785 3.69 177.353 3.382 176.81C3.08867 176.267 2.942 175.644 2.942 174.94ZM11.9959 174.94C11.9959 175.952 12.2232 176.861 12.6779 177.668C13.1472 178.46 13.7779 179.083 14.5699 179.538C15.3619 179.993 16.2492 180.22 17.2319 180.22C18.2292 180.22 19.1165 179.993 19.8939 179.538C20.6859 179.083 21.3092 178.46 21.7639 177.668C22.2332 176.861 22.4679 175.952 22.4679 174.94C22.4679 173.913 22.2332 173.004 21.7639 172.212C21.3092 171.42 20.6859 170.797 19.8939 170.342C19.1165 169.887 18.2292 169.66 17.2319 169.66C16.2492 169.66 15.3619 169.887 14.5699 170.342C13.7779 170.797 13.1472 171.42 12.6779 172.212C12.2232 173.004 11.9959 173.913 11.9959 174.94ZM13.7779 174.94C13.7779 174.236 13.9245 173.613 14.2179 173.07C14.5259 172.513 14.9365 172.08 15.4499 171.772C15.9779 171.464 16.5719 171.31 17.2319 171.31C17.8919 171.31 18.4785 171.464 18.9919 171.772C19.5199 172.08 19.9305 172.513 20.2239 173.07C20.5319 173.613 20.6859 174.236 20.6859 174.94C20.6859 175.644 20.5319 176.267 20.2239 176.81C19.9305 177.353 19.5199 177.785 18.9919 178.108C18.4785 178.416 17.8919 178.57 17.2319 178.57C16.5719 178.57 15.9779 178.416 15.4499 178.108C14.9365 177.785 14.5259 177.353 14.2179 176.81C13.9245 176.267 13.7779 175.644 13.7779 174.94ZM31.5956 173.84V180H33.3556V173.62C33.3556 172.403 33.0403 171.442 32.4096 170.738C31.7936 170.019 30.9503 169.66 29.8796 169.66C29.2196 169.66 28.633 169.807 28.1196 170.1C27.621 170.393 27.203 170.848 26.8656 171.464V169.88H25.1056V180H26.8656V173.84C26.8656 173.341 26.9683 172.901 27.1736 172.52C27.3936 172.139 27.6943 171.845 28.0756 171.64C28.4716 171.42 28.9263 171.31 29.4396 171.31C30.1436 171.31 30.679 171.523 31.0456 171.948C31.4123 172.373 31.5956 173.004 31.5956 173.84ZM35.3442 169.88V171.53H40.4042V169.88H35.3442ZM36.9942 166.36V180H38.7542V166.36H36.9942ZM43.1814 176.876C43.1814 176.509 43.2694 176.194 43.4454 175.93C43.6214 175.666 43.8854 175.461 44.2374 175.314C44.604 175.167 45.0734 175.094 45.6454 175.094C46.2614 175.094 46.8407 175.175 47.3834 175.336C47.926 175.483 48.454 175.732 48.9674 176.084V175.05C48.8647 174.918 48.6667 174.749 48.3734 174.544C48.08 174.324 47.684 174.133 47.1854 173.972C46.7014 173.796 46.0927 173.708 45.3594 173.708C44.1127 173.708 43.1374 174.009 42.4334 174.61C41.744 175.197 41.3994 175.981 41.3994 176.964C41.3994 177.653 41.5607 178.24 41.8834 178.724C42.206 179.208 42.6314 179.582 43.1594 179.846C43.702 180.095 44.2814 180.22 44.8974 180.22C45.4547 180.22 46.012 180.117 46.5694 179.912C47.1414 179.707 47.618 179.391 47.9994 178.966C48.3954 178.541 48.5934 178.005 48.5934 177.36L48.2414 176.04C48.2414 176.568 48.1094 177.037 47.8454 177.448C47.596 177.844 47.2514 178.152 46.8114 178.372C46.386 178.592 45.902 178.702 45.3594 178.702C44.934 178.702 44.5527 178.636 44.2154 178.504C43.8927 178.357 43.636 178.145 43.4454 177.866C43.2694 177.587 43.1814 177.257 43.1814 176.876ZM42.9174 172.212C43.0787 172.095 43.2987 171.955 43.5774 171.794C43.856 171.633 44.1934 171.493 44.5894 171.376C45 171.259 45.4547 171.2 45.9534 171.2C46.2614 171.2 46.5547 171.229 46.8334 171.288C47.112 171.347 47.354 171.442 47.5594 171.574C47.7794 171.706 47.948 171.889 48.0654 172.124C48.1827 172.344 48.2414 172.63 48.2414 172.982V180H50.0014V172.74C50.0014 172.08 49.8327 171.523 49.4954 171.068C49.1727 170.613 48.7107 170.269 48.1094 170.034C47.5227 169.785 46.8334 169.66 46.0414 169.66C45.1027 169.66 44.296 169.799 43.6214 170.078C42.9614 170.357 42.4407 170.635 42.0594 170.914L42.9174 172.212ZM53.9932 174.94C53.9932 174.236 54.1398 173.613 54.4332 173.07C54.7412 172.513 55.1518 172.08 55.6652 171.772C56.1932 171.464 56.7872 171.31 57.4472 171.31C57.9898 171.31 58.4958 171.398 58.9652 171.574C59.4492 171.735 59.8672 171.955 60.2192 172.234C60.5712 172.513 60.8205 172.821 60.9672 173.158V170.958C60.6152 170.547 60.1092 170.232 59.4492 170.012C58.8038 169.777 58.1365 169.66 57.4472 169.66C56.4645 169.66 55.5772 169.887 54.7852 170.342C53.9932 170.797 53.3625 171.42 52.8932 172.212C52.4385 173.004 52.2112 173.913 52.2112 174.94C52.2112 175.952 52.4385 176.861 52.8932 177.668C53.3625 178.46 53.9932 179.083 54.7852 179.538C55.5772 179.993 56.4645 180.22 57.4472 180.22C58.1365 180.22 58.8038 180.11 59.4492 179.89C60.1092 179.655 60.6152 179.333 60.9672 178.922V176.722C60.8205 177.045 60.5712 177.353 60.2192 177.646C59.8672 177.925 59.4492 178.152 58.9652 178.328C58.4958 178.489 57.9898 178.57 57.4472 178.57C56.7872 178.57 56.1932 178.416 55.6652 178.108C55.1518 177.785 54.7412 177.353 54.4332 176.81C54.1398 176.267 53.9932 175.644 53.9932 174.94ZM62.387 169.88V171.53H67.447V169.88H62.387ZM64.037 166.36V180H65.797V166.36H64.037ZM73.6342 172.96C73.6342 172.329 73.7515 171.787 73.9862 171.332C74.2355 170.863 74.5509 170.503 74.9322 170.254C75.3135 170.005 75.7022 169.88 76.0982 169.88C76.4649 169.88 76.7875 169.961 77.0662 170.122C77.3595 170.283 77.5869 170.511 77.7482 170.804C77.9242 171.097 78.0122 171.449 78.0122 171.86C78.0122 172.637 77.8729 173.253 77.5942 173.708C77.3155 174.148 76.9782 174.463 76.5822 174.654C76.1862 174.845 75.8049 174.94 75.4382 174.94C74.8369 174.94 74.3822 174.764 74.0742 174.412C73.7809 174.06 73.6342 173.576 73.6342 172.96ZM71.9622 173.026C71.9622 173.745 72.1015 174.368 72.3802 174.896C72.6735 175.409 73.0475 175.805 73.5022 176.084C73.9715 176.348 74.4702 176.48 74.9982 176.48C75.7022 176.48 76.3402 176.311 76.9122 175.974C77.4842 175.622 77.9389 175.101 78.2762 174.412C78.6282 173.723 78.8042 172.872 78.8042 171.86C78.8042 171.273 78.7089 170.716 78.5182 170.188C78.3275 169.645 78.0342 169.205 77.6382 168.868C77.2422 168.516 76.7289 168.34 76.0982 168.34C75.4822 168.34 74.8515 168.523 74.2062 168.89C73.5755 169.242 73.0402 169.763 72.6002 170.452C72.1749 171.141 71.9622 171.999 71.9622 173.026ZM68.5522 172.96C68.5522 174.412 68.8309 175.688 69.3882 176.788C69.9455 177.873 70.7595 178.717 71.8302 179.318C72.9155 179.919 74.2429 180.22 75.8122 180.22C77.0735 180.22 78.0855 180.103 78.8482 179.868C79.6255 179.619 80.3442 179.296 81.0042 178.9L80.2342 177.646C79.5155 178.101 78.7895 178.409 78.0562 178.57C77.3375 178.717 76.5895 178.79 75.8122 178.79C74.6535 178.79 73.6415 178.555 72.7762 178.086C71.9255 177.602 71.2655 176.927 70.7962 176.062C70.3269 175.182 70.0922 174.148 70.0922 172.96C70.0922 171.948 70.2535 171.009 70.5762 170.144C70.8989 169.279 71.3535 168.523 71.9402 167.878C72.5415 167.233 73.2602 166.727 74.0962 166.36C74.9469 165.993 75.8855 165.81 76.9122 165.81C77.8362 165.81 78.6429 165.964 79.3322 166.272C80.0215 166.58 80.5935 166.998 81.0482 167.526C81.5029 168.054 81.8402 168.655 82.0602 169.33C82.2949 169.99 82.4122 170.687 82.4122 171.42C82.4122 172.344 82.2729 173.092 81.9942 173.664C81.7302 174.221 81.4222 174.625 81.0702 174.874C80.7329 175.123 80.4542 175.248 80.2342 175.248C79.9995 175.248 79.8162 175.204 79.6842 175.116C79.5669 175.013 79.4862 174.889 79.4422 174.742C79.3982 174.581 79.3762 174.412 79.3762 174.236C79.3762 174.148 79.3762 174.045 79.3762 173.928C79.3909 173.811 79.4055 173.715 79.4202 173.642L80.3222 168.56H78.6722L77.8802 174.06H78.0342C77.9609 174.544 77.9975 174.984 78.1442 175.38C78.2909 175.776 78.5255 176.099 78.8482 176.348C79.1855 176.583 79.5742 176.7 80.0142 176.7C80.4249 176.7 80.8575 176.605 81.3122 176.414C81.7669 176.223 82.1922 175.923 82.5882 175.512C82.9989 175.101 83.3289 174.559 83.5782 173.884C83.8275 173.209 83.9522 172.388 83.9522 171.42C83.9522 170.54 83.8055 169.682 83.5122 168.846C83.2189 168.01 82.7789 167.255 82.1922 166.58C81.6055 165.905 80.8722 165.37 79.9922 164.974C79.1122 164.578 78.0855 164.38 76.9122 164.38C75.6802 164.38 74.5509 164.6 73.5242 165.04C72.5122 165.48 71.6322 166.089 70.8842 166.866C70.1362 167.643 69.5569 168.553 69.1462 169.594C68.7502 170.635 68.5522 171.757 68.5522 172.96ZM86.5819 165.7C86.5819 166.023 86.6992 166.309 86.9339 166.558C87.1832 166.793 87.4692 166.91 87.7919 166.91C88.1292 166.91 88.4152 166.793 88.6499 166.558C88.8845 166.309 89.0019 166.023 89.0019 165.7C89.0019 165.363 88.8845 165.077 88.6499 164.842C88.4152 164.607 88.1292 164.49 87.7919 164.49C87.4692 164.49 87.1832 164.607 86.9339 164.842C86.6992 165.077 86.5819 165.363 86.5819 165.7ZM86.9119 169.88V180H88.6719V169.88H86.9119ZM99.0067 173.84V180H100.767V173.62C100.767 172.403 100.451 171.442 99.8207 170.738C99.2047 170.019 98.3614 169.66 97.2907 169.66C96.6307 169.66 96.0441 169.807 95.5307 170.1C95.0321 170.393 94.6141 170.848 94.2767 171.464V169.88H92.5167V180H94.2767V173.84C94.2767 173.341 94.3794 172.901 94.5847 172.52C94.8047 172.139 95.1054 171.845 95.4867 171.64C95.8827 171.42 96.3374 171.31 96.8507 171.31C97.5547 171.31 98.0901 171.523 98.4567 171.948C98.8234 172.373 99.0067 173.004 99.0067 173.84ZM102.755 169.88V171.53H107.815V169.88H102.755ZM104.405 166.36V180H106.165V166.36H104.405ZM113.716 180.22C114.802 180.22 115.74 180.007 116.532 179.582C117.339 179.142 118.006 178.497 118.534 177.646L117.104 176.744C116.738 177.36 116.29 177.822 115.762 178.13C115.234 178.423 114.626 178.57 113.936 178.57C113.247 178.57 112.66 178.423 112.176 178.13C111.692 177.837 111.326 177.411 111.076 176.854C110.827 176.297 110.702 175.622 110.702 174.83C110.717 174.053 110.849 173.4 111.098 172.872C111.362 172.329 111.729 171.919 112.198 171.64C112.682 171.347 113.262 171.2 113.936 171.2C114.508 171.2 115.007 171.325 115.432 171.574C115.858 171.823 116.188 172.168 116.422 172.608C116.672 173.048 116.796 173.569 116.796 174.17C116.796 174.273 116.774 174.405 116.73 174.566C116.686 174.713 116.642 174.823 116.598 174.896L117.302 173.884H110.042V175.38H118.688C118.688 175.351 118.688 175.285 118.688 175.182C118.703 175.065 118.71 174.955 118.71 174.852C118.71 173.781 118.52 172.857 118.138 172.08C117.757 171.303 117.207 170.709 116.488 170.298C115.784 169.873 114.934 169.66 113.936 169.66C112.939 169.66 112.059 169.88 111.296 170.32C110.548 170.76 109.962 171.376 109.536 172.168C109.126 172.96 108.92 173.884 108.92 174.94C108.92 175.981 109.118 176.898 109.514 177.69C109.925 178.482 110.49 179.105 111.208 179.56C111.942 180 112.778 180.22 113.716 180.22ZM123.103 169.88H121.343V180H123.103V169.88ZM126.161 171.816L127.129 170.364C126.865 170.085 126.571 169.902 126.249 169.814C125.941 169.711 125.603 169.66 125.237 169.66C124.767 169.66 124.305 169.843 123.851 170.21C123.396 170.577 123.022 171.075 122.729 171.706C122.45 172.322 122.311 173.033 122.311 173.84H123.103C123.103 173.356 123.147 172.923 123.235 172.542C123.337 172.161 123.513 171.86 123.763 171.64C124.012 171.42 124.357 171.31 124.797 171.31C125.09 171.31 125.332 171.354 125.523 171.442C125.713 171.515 125.926 171.64 126.161 171.816ZM135.594 173.84V180H137.354V173.62C137.354 172.403 137.038 171.442 136.408 170.738C135.792 170.019 134.948 169.66 133.878 169.66C133.218 169.66 132.631 169.807 132.118 170.1C131.619 170.393 131.201 170.848 130.864 171.464V169.88H129.104V180H130.864V173.84C130.864 173.341 130.966 172.901 131.172 172.52C131.392 172.139 131.692 171.845 132.074 171.64C132.47 171.42 132.924 171.31 133.438 171.31C134.142 171.31 134.677 171.523 135.044 171.948C135.41 172.373 135.594 173.004 135.594 173.84ZM140.002 174.94C140.002 175.952 140.23 176.861 140.684 177.668C141.154 178.46 141.784 179.083 142.576 179.538C143.368 179.993 144.256 180.22 145.238 180.22C146.236 180.22 147.123 179.993 147.9 179.538C148.692 179.083 149.316 178.46 149.77 177.668C150.24 176.861 150.474 175.952 150.474 174.94C150.474 173.913 150.24 173.004 149.77 172.212C149.316 171.42 148.692 170.797 147.9 170.342C147.123 169.887 146.236 169.66 145.238 169.66C144.256 169.66 143.368 169.887 142.576 170.342C141.784 170.797 141.154 171.42 140.684 172.212C140.23 173.004 140.002 173.913 140.002 174.94ZM141.784 174.94C141.784 174.236 141.931 173.613 142.224 173.07C142.532 172.513 142.943 172.08 143.456 171.772C143.984 171.464 144.578 171.31 145.238 171.31C145.898 171.31 146.485 171.464 146.998 171.772C147.526 172.08 147.937 172.513 148.23 173.07C148.538 173.613 148.692 174.236 148.692 174.94C148.692 175.644 148.538 176.267 148.23 176.81C147.937 177.353 147.526 177.785 146.998 178.108C146.485 178.416 145.898 178.57 145.238 178.57C144.578 178.57 143.984 178.416 143.456 178.108C142.943 177.785 142.532 177.353 142.224 176.81C141.931 176.267 141.784 175.644 141.784 174.94ZM152.456 179.12C152.456 179.443 152.574 179.729 152.808 179.978C153.058 180.213 153.344 180.33 153.666 180.33C154.004 180.33 154.29 180.213 154.524 179.978C154.759 179.729 154.876 179.443 154.876 179.12C154.876 178.783 154.759 178.497 154.524 178.262C154.29 178.027 154.004 177.91 153.666 177.91C153.344 177.91 153.058 178.027 152.808 178.262C152.574 178.497 152.456 178.783 152.456 179.12ZM159.624 174.94C159.624 174.236 159.771 173.613 160.064 173.07C160.372 172.513 160.783 172.08 161.296 171.772C161.824 171.464 162.418 171.31 163.078 171.31C163.621 171.31 164.127 171.398 164.596 171.574C165.08 171.735 165.498 171.955 165.85 172.234C166.202 172.513 166.451 172.821 166.598 173.158V170.958C166.246 170.547 165.74 170.232 165.08 170.012C164.435 169.777 163.767 169.66 163.078 169.66C162.095 169.66 161.208 169.887 160.416 170.342C159.624 170.797 158.993 171.42 158.524 172.212C158.069 173.004 157.842 173.913 157.842 174.94C157.842 175.952 158.069 176.861 158.524 177.668C158.993 178.46 159.624 179.083 160.416 179.538C161.208 179.993 162.095 180.22 163.078 180.22C163.767 180.22 164.435 180.11 165.08 179.89C165.74 179.655 166.246 179.333 166.598 178.922V176.722C166.451 177.045 166.202 177.353 165.85 177.646C165.498 177.925 165.08 178.152 164.596 178.328C164.127 178.489 163.621 178.57 163.078 178.57C162.418 178.57 161.824 178.416 161.296 178.108C160.783 177.785 160.372 177.353 160.064 176.81C159.771 176.267 159.624 175.644 159.624 174.94ZM168.678 174.94C168.678 175.952 168.905 176.861 169.36 177.668C169.829 178.46 170.46 179.083 171.252 179.538C172.044 179.993 172.931 180.22 173.914 180.22C174.911 180.22 175.799 179.993 176.576 179.538C177.368 179.083 177.991 178.46 178.446 177.668C178.915 176.861 179.15 175.952 179.15 174.94C179.15 173.913 178.915 173.004 178.446 172.212C177.991 171.42 177.368 170.797 176.576 170.342C175.799 169.887 174.911 169.66 173.914 169.66C172.931 169.66 172.044 169.887 171.252 170.342C170.46 170.797 169.829 171.42 169.36 172.212C168.905 173.004 168.678 173.913 168.678 174.94ZM170.46 174.94C170.46 174.236 170.607 173.613 170.9 173.07C171.208 172.513 171.619 172.08 172.132 171.772C172.66 171.464 173.254 171.31 173.914 171.31C174.574 171.31 175.161 171.464 175.674 171.772C176.202 172.08 176.613 172.513 176.906 173.07C177.214 173.613 177.368 174.236 177.368 174.94C177.368 175.644 177.214 176.267 176.906 176.81C176.613 177.353 176.202 177.785 175.674 178.108C175.161 178.416 174.574 178.57 173.914 178.57C173.254 178.57 172.66 178.416 172.132 178.108C171.619 177.785 171.208 177.353 170.9 176.81C170.607 176.267 170.46 175.644 170.46 174.94ZM195.648 173.62C195.648 172.784 195.516 172.073 195.252 171.486C195.002 170.885 194.636 170.43 194.152 170.122C193.668 169.814 193.081 169.66 192.392 169.66C191.717 169.66 191.116 169.821 190.588 170.144C190.06 170.452 189.62 170.921 189.268 171.552C189.033 170.951 188.659 170.489 188.146 170.166C187.647 169.829 187.046 169.66 186.342 169.66C185.711 169.66 185.161 169.799 184.692 170.078C184.237 170.357 183.856 170.782 183.548 171.354V169.88H181.788V180H183.548V173.84C183.548 173.312 183.643 172.857 183.834 172.476C184.024 172.095 184.296 171.809 184.648 171.618C185 171.413 185.418 171.31 185.902 171.31C186.562 171.31 187.046 171.515 187.354 171.926C187.676 172.337 187.838 172.975 187.838 173.84V180H189.598V173.84C189.598 173.312 189.693 172.857 189.884 172.476C190.074 172.095 190.346 171.809 190.698 171.618C191.05 171.413 191.468 171.31 191.952 171.31C192.612 171.31 193.096 171.515 193.404 171.926C193.726 172.337 193.888 172.975 193.888 173.84V180H195.648V173.62ZM5.01 228.84C4.13 230.483 3.48467 232.221 3.074 234.054C2.678 235.887 2.48 237.743 2.48 239.62C2.48 241.483 2.678 243.331 3.074 245.164C3.48467 246.997 4.13 248.743 5.01 250.4H6.66C5.89733 248.743 5.34 246.997 4.988 245.164C4.636 243.331 4.46 241.483 4.46 239.62C4.46 237.743 4.636 235.887 4.988 234.054C5.34 232.221 5.89733 230.483 6.66 228.84H5.01ZM9.29055 233.636L12.7005 232.624V246H14.5705V230.38L9.29055 231.7V233.636ZM18.0948 246H28.9628V244.24H21.9448L26.8508 239.246C27.4522 238.63 27.9435 237.933 28.3248 237.156C28.7062 236.379 28.8968 235.594 28.8968 234.802C28.8968 234.333 28.8015 233.841 28.6108 233.328C28.4202 232.815 28.1268 232.338 27.7308 231.898C27.3348 231.443 26.8288 231.077 26.2128 230.798C25.5968 230.505 24.8635 230.358 24.0128 230.358C22.9568 230.358 22.0475 230.593 21.2848 231.062C20.5368 231.517 19.9648 232.162 19.5688 232.998C19.1728 233.819 18.9748 234.78 18.9748 235.88H20.8448C20.8448 235.103 20.9695 234.435 21.2188 233.878C21.4682 233.306 21.8275 232.873 22.2968 232.58C22.7808 232.272 23.3528 232.118 24.0128 232.118C24.4822 232.118 24.9002 232.199 25.2668 232.36C25.6335 232.521 25.9415 232.734 26.1908 232.998C26.4548 233.262 26.6528 233.555 26.7848 233.878C26.9168 234.201 26.9828 234.531 26.9828 234.868C26.9828 235.279 26.9168 235.675 26.7848 236.056C26.6675 236.423 26.4842 236.789 26.2348 237.156C26.0002 237.508 25.7142 237.867 25.3768 238.234L18.0948 246ZM35.9662 238.41C36.9636 238.41 37.8362 238.234 38.5842 237.882C39.3322 237.53 39.9189 237.053 40.3442 236.452C40.7696 235.851 40.9822 235.191 40.9822 234.472C40.9822 233.739 40.8062 233.064 40.4542 232.448C40.1169 231.832 39.6256 231.333 38.9802 230.952C38.3496 230.571 37.5942 230.38 36.7142 230.38C35.8782 230.38 35.1302 230.556 34.4702 230.908C33.8249 231.245 33.3116 231.715 32.9302 232.316C32.5636 232.917 32.3802 233.621 32.3802 234.428H34.1622C34.1622 233.753 34.4116 233.196 34.9102 232.756C35.4089 232.301 36.0176 232.074 36.7362 232.074C37.2496 232.074 37.6749 232.177 38.0122 232.382C38.3642 232.587 38.6282 232.881 38.8042 233.262C38.9802 233.629 39.0682 234.054 39.0682 234.538C39.0682 234.905 38.9949 235.249 38.8482 235.572C38.7162 235.895 38.5182 236.181 38.2542 236.43C37.9902 236.665 37.6676 236.855 37.2862 237.002C36.9049 237.134 36.4649 237.2 35.9662 237.2V238.41ZM36.6262 246.22C37.5502 246.22 38.3716 246.044 39.0902 245.692C39.8089 245.34 40.3736 244.841 40.7842 244.196C41.2096 243.551 41.4222 242.795 41.4222 241.93C41.4222 241.167 41.2756 240.515 40.9822 239.972C40.7036 239.429 40.3076 238.989 39.7942 238.652C39.2956 238.3 38.7162 238.043 38.0562 237.882C37.4109 237.721 36.7142 237.64 35.9662 237.64V238.85C36.4649 238.85 36.9269 238.909 37.3522 239.026C37.7776 239.143 38.1516 239.327 38.4742 239.576C38.7969 239.811 39.0462 240.111 39.2222 240.478C39.4129 240.83 39.5082 241.241 39.5082 241.71C39.5082 242.267 39.3909 242.751 39.1562 243.162C38.9216 243.573 38.5842 243.895 38.1442 244.13C37.7189 244.35 37.2129 244.46 36.6262 244.46C36.0396 244.46 35.5189 244.35 35.0642 244.13C34.6096 243.91 34.2502 243.609 33.9862 243.228C33.7369 242.847 33.6122 242.414 33.6122 241.93H31.7202C31.7202 242.531 31.8376 243.096 32.0722 243.624C32.3069 244.137 32.6369 244.592 33.0622 244.988C33.4876 245.369 34.0009 245.67 34.6022 245.89C35.2036 246.11 35.8782 246.22 36.6262 246.22ZM44.94 250.4C45.82 248.743 46.458 246.997 46.854 245.164C47.2647 243.331 47.47 241.483 47.47 239.62C47.47 237.743 47.2647 235.887 46.854 234.054C46.458 232.221 45.82 230.483 44.94 228.84H43.29C44.0673 230.483 44.6247 232.221 44.962 234.054C45.314 235.887 45.49 237.743 45.49 239.62C45.49 241.483 45.314 243.331 44.962 245.164C44.6247 246.997 44.0673 248.743 43.29 250.4H44.94ZM56.9162 242.92H68.6423V241.27H65.4963H65.1222H59.9962L64.3522 234.758V241.886V242.128V246H66.2223V230.6H65.4523L56.9162 242.92ZM81.0504 240.94C81.0504 239.913 80.8524 239.011 80.4564 238.234C80.0604 237.457 79.5104 236.848 78.8064 236.408C78.1171 235.968 77.3324 235.748 76.4524 235.748C76.0711 235.748 75.6824 235.799 75.2864 235.902C74.9051 235.99 74.5311 236.129 74.1644 236.32L75.1984 232.25H81.0064V230.6H73.7464L71.7224 238.806C72.2504 238.439 72.7124 238.161 73.1084 237.97C73.5191 237.765 73.9224 237.625 74.3184 237.552C74.7291 237.464 75.1764 237.42 75.6604 237.42C76.3204 237.42 76.9071 237.567 77.4204 237.86C77.9484 238.153 78.3591 238.564 78.6524 239.092C78.9604 239.62 79.1144 240.236 79.1144 240.94C79.1144 241.644 78.9751 242.26 78.6964 242.788C78.4324 243.316 78.0438 243.727 77.5304 244.02C77.0171 244.313 76.3938 244.46 75.6604 244.46C75.1031 244.46 74.5678 244.343 74.0544 244.108C73.5411 243.859 73.0864 243.543 72.6904 243.162C72.3091 242.766 72.0011 242.348 71.7664 241.908L70.1824 242.986C70.5198 243.573 70.9304 244.115 71.4144 244.614C71.9131 245.098 72.5071 245.487 73.1964 245.78C73.9004 246.073 74.7218 246.22 75.6604 246.22C76.4084 246.22 77.1051 246.11 77.7504 245.89C78.3958 245.67 78.9678 245.34 79.4664 244.9C79.9651 244.46 80.3538 243.91 80.6324 243.25C80.9111 242.59 81.0504 241.82 81.0504 240.94ZM85.0424 240.94C85.0424 240.236 85.1891 239.613 85.4824 239.07C85.7904 238.513 86.2011 238.08 86.7144 237.772C87.2424 237.464 87.8364 237.31 88.4964 237.31C89.1564 237.31 89.7431 237.464 90.2564 237.772C90.7844 238.08 91.1951 238.513 91.4884 239.07C91.7964 239.613 91.9504 240.236 91.9504 240.94C91.9504 241.644 91.7964 242.267 91.4884 242.81C91.1951 243.338 90.7844 243.756 90.2564 244.064C89.7431 244.372 89.1564 244.526 88.4964 244.526C87.8364 244.526 87.2424 244.372 86.7144 244.064C86.2011 243.756 85.7904 243.338 85.4824 242.81C85.1891 242.267 85.0424 241.644 85.0424 240.94ZM89.4204 230.6L84.2284 237.75C83.9351 238.161 83.7004 238.637 83.5244 239.18C83.3484 239.723 83.2604 240.309 83.2604 240.94C83.2604 241.996 83.4877 242.92 83.9424 243.712C84.4117 244.504 85.0424 245.12 85.8344 245.56C86.6264 246 87.5137 246.22 88.4964 246.22C89.4937 246.22 90.3811 246 91.1584 245.56C91.9504 245.12 92.5737 244.504 93.0284 243.712C93.4977 242.92 93.7324 241.996 93.7324 240.94C93.7324 240.236 93.6151 239.583 93.3804 238.982C93.1457 238.366 92.8157 237.831 92.3904 237.376C91.9797 236.921 91.4957 236.569 90.9384 236.32C90.3957 236.071 89.8091 235.946 89.1784 235.946C88.6797 235.946 88.2324 236.005 87.8364 236.122C87.4551 236.239 87.1177 236.481 86.8244 236.848L86.9564 236.958L91.7744 230.6H89.4204ZM101.982 241.6H106.382V239.95H101.982V241.6ZM114.187 232.36H122.173L115.639 246H117.597L124.967 230.6H114.187V232.36ZM127.065 234.318C127.065 234.919 127.168 235.462 127.373 235.946C127.579 236.415 127.865 236.819 128.231 237.156C128.613 237.493 129.06 237.75 129.573 237.926C130.101 238.102 130.681 238.19 131.311 238.19C131.942 238.19 132.514 238.102 133.027 237.926C133.555 237.75 134.003 237.493 134.369 237.156C134.751 236.819 135.044 236.415 135.249 235.946C135.455 235.462 135.557 234.919 135.557 234.318C135.557 233.585 135.367 232.925 134.985 232.338C134.619 231.737 134.113 231.26 133.467 230.908C132.837 230.556 132.118 230.38 131.311 230.38C130.505 230.38 129.779 230.556 129.133 230.908C128.503 231.26 127.997 231.737 127.615 232.338C127.249 232.925 127.065 233.585 127.065 234.318ZM128.847 234.538C128.847 234.054 128.95 233.621 129.155 233.24C129.375 232.859 129.669 232.565 130.035 232.36C130.417 232.14 130.842 232.03 131.311 232.03C131.795 232.03 132.221 232.14 132.587 232.36C132.954 232.565 133.24 232.859 133.445 233.24C133.665 233.621 133.775 234.054 133.775 234.538C133.775 235.022 133.658 235.447 133.423 235.814C133.203 236.181 132.903 236.467 132.521 236.672C132.155 236.877 131.751 236.98 131.311 236.98C130.871 236.98 130.461 236.877 130.079 236.672C129.713 236.467 129.412 236.181 129.177 235.814C128.957 235.447 128.847 235.022 128.847 234.538ZM126.515 241.82C126.515 242.421 126.633 242.986 126.867 243.514C127.117 244.042 127.454 244.511 127.879 244.922C128.319 245.333 128.825 245.655 129.397 245.89C129.984 246.11 130.622 246.22 131.311 246.22C132.001 246.22 132.631 246.11 133.203 245.89C133.79 245.655 134.296 245.333 134.721 244.922C135.161 244.511 135.499 244.042 135.733 243.514C135.983 242.986 136.107 242.421 136.107 241.82C136.107 241.116 135.975 240.493 135.711 239.95C135.462 239.393 135.11 238.931 134.655 238.564C134.215 238.183 133.702 237.897 133.115 237.706C132.543 237.515 131.942 237.42 131.311 237.42C130.681 237.42 130.072 237.515 129.485 237.706C128.913 237.897 128.4 238.183 127.945 238.564C127.505 238.931 127.153 239.393 126.889 239.95C126.64 240.493 126.515 241.116 126.515 241.82ZM128.297 241.6C128.297 241.043 128.437 240.544 128.715 240.104C129.009 239.649 129.383 239.29 129.837 239.026C130.307 238.762 130.798 238.63 131.311 238.63C131.825 238.63 132.309 238.762 132.763 239.026C133.233 239.29 133.607 239.649 133.885 240.104C134.179 240.544 134.325 241.043 134.325 241.6C134.325 242.231 134.179 242.766 133.885 243.206C133.607 243.646 133.233 243.983 132.763 244.218C132.309 244.453 131.825 244.57 131.311 244.57C130.798 244.57 130.307 244.453 129.837 244.218C129.383 243.983 129.009 243.646 128.715 243.206C128.437 242.766 128.297 242.231 128.297 241.6ZM147.325 235.66C147.325 236.364 147.171 236.987 146.863 237.53C146.57 238.073 146.159 238.505 145.631 238.828C145.118 239.136 144.531 239.29 143.871 239.29C143.211 239.29 142.617 239.136 142.089 238.828C141.576 238.505 141.165 238.073 140.857 237.53C140.564 236.987 140.417 236.364 140.417 235.66C140.417 234.956 140.564 234.34 140.857 233.812C141.165 233.269 141.576 232.844 142.089 232.536C142.617 232.228 143.211 232.074 143.871 232.074C144.531 232.074 145.118 232.228 145.631 232.536C146.159 232.844 146.57 233.269 146.863 233.812C147.171 234.34 147.325 234.956 147.325 235.66ZM142.947 246L148.139 238.85C148.432 238.439 148.667 237.963 148.843 237.42C149.019 236.877 149.107 236.291 149.107 235.66C149.107 234.604 148.872 233.68 148.403 232.888C147.948 232.096 147.325 231.48 146.533 231.04C145.756 230.6 144.868 230.38 143.871 230.38C142.888 230.38 142.001 230.6 141.209 231.04C140.417 231.48 139.786 232.096 139.317 232.888C138.862 233.68 138.635 234.604 138.635 235.66C138.635 236.364 138.752 237.024 138.987 237.64C139.222 238.241 139.544 238.769 139.955 239.224C140.38 239.679 140.864 240.031 141.407 240.28C141.964 240.529 142.558 240.654 143.189 240.654C143.688 240.654 144.128 240.595 144.509 240.478C144.905 240.361 145.25 240.119 145.543 239.752L145.411 239.642L140.593 246H142.947ZM153.181 238.3C153.181 237.405 153.269 236.584 153.445 235.836C153.621 235.073 153.878 234.421 154.215 233.878C154.552 233.321 154.956 232.895 155.425 232.602C155.909 232.294 156.444 232.14 157.031 232.14C157.632 232.14 158.168 232.294 158.637 232.602C159.106 232.895 159.51 233.321 159.847 233.878C160.184 234.421 160.441 235.073 160.617 235.836C160.793 236.584 160.881 237.405 160.881 238.3C160.881 239.195 160.793 240.023 160.617 240.786C160.441 241.534 160.184 242.187 159.847 242.744C159.51 243.287 159.106 243.712 158.637 244.02C158.168 244.313 157.632 244.46 157.031 244.46C156.444 244.46 155.909 244.313 155.425 244.02C154.956 243.712 154.552 243.287 154.215 242.744C153.878 242.187 153.621 241.534 153.445 240.786C153.269 240.023 153.181 239.195 153.181 238.3ZM151.311 238.3C151.311 239.84 151.553 241.204 152.037 242.392C152.521 243.58 153.188 244.519 154.039 245.208C154.904 245.883 155.902 246.22 157.031 246.22C158.16 246.22 159.15 245.883 160.001 245.208C160.866 244.519 161.541 243.58 162.025 242.392C162.509 241.204 162.751 239.84 162.751 238.3C162.751 236.76 162.509 235.396 162.025 234.208C161.541 233.02 160.866 232.089 160.001 231.414C159.15 230.725 158.16 230.38 157.031 230.38C155.902 230.38 154.904 230.725 154.039 231.414C153.188 232.089 152.521 233.02 152.037 234.208C151.553 235.396 151.311 236.76 151.311 238.3Z" fill="#4D5053"/>
</svg>
