<svg width="394" height="187" viewBox="0 0 394 187" fill="none" xmlns="http://www.w3.org/2000/svg">
<path d="M45.38 39V38.6L46.18 38.28C46.7133 38.0933 47.06 37.84 47.22 37.52C47.4067 37.2 47.5 36.7733 47.5 36.24V15.36C47.5 14.8267 47.42 14.4 47.26 14.08C47.1 13.76 46.74 13.5067 46.18 13.32L45.38 13V12.6H55.66V13L54.86 13.32C54.3267 13.5067 53.9667 13.76 53.78 14.08C53.62 14.4 53.54 14.8267 53.54 15.36V36.24C53.54 36.7733 53.62 37.2 53.78 37.52C53.9667 37.8133 54.3267 38.0667 54.86 38.28L55.66 38.6V39H45.38ZM57.3313 39V38.6L57.8913 38.44C58.8246 38.1733 59.2913 37.52 59.2913 36.48V23.96C59.2913 23.3733 59.1979 22.9467 59.0113 22.68C58.8246 22.3867 58.4646 22.1867 57.9313 22.08L57.3313 21.92V21.52L64.1713 19.2L64.5713 19.6L64.8913 22C65.8246 21.1733 66.8779 20.4933 68.0513 19.96C69.2246 19.4267 70.3846 19.16 71.5313 19.16C73.2913 19.16 74.6379 19.64 75.5713 20.6C76.5313 21.56 77.0113 23.0267 77.0113 25V36.52C77.0113 37.56 77.5179 38.2133 78.5313 38.48L78.8913 38.6V39H69.4513V38.6L69.9713 38.44C70.9046 38.1467 71.3713 37.4933 71.3713 36.48V23.72C71.3713 22.0133 70.5179 21.16 68.8113 21.16C67.6379 21.16 66.3579 21.7467 64.9713 22.92V36.52C64.9713 37.56 65.4379 38.2133 66.3713 38.48L66.7313 38.6V39H57.3313ZM87.8609 39.6C86.1543 39.6 84.8209 39.1733 83.8609 38.32C82.9276 37.4667 82.4609 36.1067 82.4609 34.24V20.56H79.7009V20.16L80.6609 20C81.4876 19.8133 82.1943 19.5467 82.7809 19.2C83.3943 18.8533 83.9943 18.3867 84.5809 17.8L87.8609 14.16H88.2609L88.1409 19.76H92.6209V20.56H88.1009V34.96C88.1009 35.8933 88.3009 36.6 88.7009 37.08C89.1276 37.56 89.6609 37.8 90.3009 37.8C90.8609 37.8 91.3543 37.6667 91.7809 37.4C92.2076 37.1067 92.6343 36.72 93.0609 36.24L93.4609 36.64C92.9276 37.5467 92.1943 38.2667 91.2609 38.8C90.3276 39.3333 89.1943 39.6 87.8609 39.6ZM104.637 19.16C106.37 19.16 107.85 19.52 109.077 20.24C110.304 20.9333 111.237 21.8933 111.877 23.12C112.544 24.32 112.877 25.6933 112.877 27.24C112.877 27.5333 112.864 27.84 112.837 28.16C112.81 28.4533 112.757 28.72 112.677 28.96H100.757C100.784 31.84 101.29 33.92 102.277 35.2C103.29 36.4533 104.784 37.08 106.757 37.08C108.09 37.08 109.17 36.8667 109.997 36.44C110.824 36.0133 111.597 35.3867 112.317 34.56L112.717 34.92C111.89 36.3867 110.784 37.5333 109.397 38.36C108.037 39.1867 106.397 39.6 104.477 39.6C102.584 39.6 100.904 39.2 99.4369 38.4C97.9702 37.5733 96.8235 36.4 95.9969 34.88C95.1702 33.36 94.7569 31.5467 94.7569 29.44C94.7569 27.2533 95.2369 25.4 96.1969 23.88C97.1569 22.3333 98.3835 21.16 99.8769 20.36C101.397 19.56 102.984 19.16 104.637 19.16ZM104.517 19.96C103.744 19.96 103.077 20.2 102.517 20.68C101.984 21.1333 101.557 21.96 101.237 23.16C100.944 24.3333 100.784 26 100.757 28.16H107.597C107.864 25.2533 107.757 23.16 107.277 21.88C106.797 20.6 105.877 19.96 104.517 19.96ZM114.87 39V38.6L115.47 38.44C116.004 38.28 116.364 38.04 116.55 37.72C116.764 37.4 116.87 36.9867 116.87 36.48V23.96C116.87 23.3733 116.764 22.9467 116.55 22.68C116.364 22.3867 116.004 22.1867 115.47 22.08L114.87 21.92V21.52L121.75 19.2L122.15 19.6L122.51 23.04V23.36C122.884 22.6133 123.364 21.9333 123.95 21.32C124.564 20.68 125.23 20.16 125.95 19.76C126.697 19.36 127.43 19.16 128.15 19.16C129.164 19.16 129.937 19.44 130.47 20C131.004 20.56 131.27 21.2667 131.27 22.12C131.27 23.0267 131.004 23.7333 130.47 24.24C129.964 24.72 129.35 24.96 128.63 24.96C127.51 24.96 126.524 24.4 125.67 23.28L125.59 23.2C125.324 22.8267 125.017 22.6267 124.67 22.6C124.324 22.5467 124.004 22.7067 123.71 23.08C123.444 23.32 123.217 23.6133 123.03 23.96C122.87 24.28 122.71 24.6533 122.55 25.08V36.24C122.55 37.3067 123.017 37.9733 123.95 38.24L125.23 38.6V39H114.87ZM132.527 39V38.6L133.087 38.44C134.02 38.1733 134.487 37.52 134.487 36.48V23.96C134.487 23.3733 134.393 22.9467 134.207 22.68C134.02 22.3867 133.66 22.1867 133.127 22.08L132.527 21.92V21.52L139.367 19.2L139.767 19.6L140.087 22C141.02 21.1733 142.073 20.4933 143.247 19.96C144.42 19.4267 145.58 19.16 146.727 19.16C148.487 19.16 149.833 19.64 150.767 20.6C151.727 21.56 152.207 23.0267 152.207 25V36.52C152.207 37.56 152.713 38.2133 153.727 38.48L154.087 38.6V39H144.647V38.6L145.167 38.44C146.1 38.1467 146.567 37.4933 146.567 36.48V23.72C146.567 22.0133 145.713 21.16 144.007 21.16C142.833 21.16 141.553 21.7467 140.167 22.92V36.52C140.167 37.56 140.633 38.2133 141.567 38.48L141.927 38.6V39H132.527ZM165.772 39.6C163.745 39.6 161.985 39.1867 160.492 38.36C158.998 37.5067 157.838 36.3067 157.012 34.76C156.212 33.2133 155.812 31.4 155.812 29.32C155.812 27.24 156.238 25.44 157.092 23.92C157.972 22.4 159.158 21.2267 160.652 20.4C162.172 19.5733 163.878 19.16 165.772 19.16C167.665 19.16 169.358 19.5733 170.852 20.4C172.345 21.2 173.518 22.36 174.372 23.88C175.252 25.4 175.692 27.2133 175.692 29.32C175.692 31.4267 175.278 33.2533 174.452 34.8C173.652 36.32 172.505 37.5067 171.012 38.36C169.545 39.1867 167.798 39.6 165.772 39.6ZM165.772 38.8C166.705 38.8 167.452 38.5333 168.012 38C168.572 37.4667 168.972 36.52 169.212 35.16C169.478 33.8 169.612 31.88 169.612 29.4C169.612 26.8933 169.478 24.96 169.212 23.6C168.972 22.24 168.572 21.2933 168.012 20.76C167.452 20.2267 166.705 19.96 165.772 19.96C164.838 19.96 164.078 20.2267 163.492 20.76C162.932 21.2933 162.518 22.24 162.252 23.6C162.012 24.96 161.892 26.8933 161.892 29.4C161.892 31.88 162.012 33.8 162.252 35.16C162.518 36.52 162.932 37.4667 163.492 38C164.078 38.5333 164.838 38.8 165.772 38.8Z" fill="#292F36"/>
<path d="M0.5 42.0003H13.9588V32.499C13.9588 30.4853 15.5898 28.8543 17.6035 28.8543C19.6172 28.8543 21.2482 30.4853 21.2482 32.499V42.0003H34.4975V8C15.7211 8 0.5 23.2211 0.5 42.0003Z" fill="#CDA274"/>
<path d="M2.26 76.6V92H4.13V76.6H2.26ZM6.22258 81.88V83.53H11.2826V81.88H6.22258ZM7.87258 78.36V92H9.63258V78.36H7.87258ZM20.0834 77.7C20.0834 78.0227 20.2008 78.3087 20.4354 78.558C20.6848 78.7927 20.9708 78.91 21.2934 78.91C21.6308 78.91 21.9168 78.7927 22.1514 78.558C22.3861 78.3087 22.5034 78.0227 22.5034 77.7C22.5034 77.3627 22.3861 77.0767 22.1514 76.842C21.9168 76.6073 21.6308 76.49 21.2934 76.49C20.9708 76.49 20.6848 76.6073 20.4354 76.842C20.2008 77.0767 20.0834 77.3627 20.0834 77.7ZM20.4134 81.88V92H22.1734V81.88H20.4134ZM26.4363 88.898L25.0503 89.756C25.2409 90.152 25.5196 90.5407 25.8863 90.922C26.2676 91.3033 26.7296 91.6187 27.2723 91.868C27.8149 92.1027 28.4236 92.22 29.0983 92.22C30.1396 92.22 30.9756 91.9267 31.6063 91.34C32.2516 90.7533 32.5743 90.02 32.5743 89.14C32.5743 88.5387 32.4276 88.0473 32.1343 87.666C31.8556 87.2847 31.4743 86.962 30.9903 86.698C30.5063 86.4193 29.9709 86.1627 29.3843 85.928C29.0323 85.7813 28.6949 85.6273 28.3723 85.466C28.0496 85.3047 27.7856 85.1213 27.5803 84.916C27.3749 84.7107 27.2723 84.476 27.2723 84.212C27.2723 83.8747 27.4043 83.6253 27.6683 83.464C27.9323 83.3027 28.2476 83.222 28.6143 83.222C29.1423 83.222 29.6116 83.3467 30.0223 83.596C30.4476 83.8453 30.7996 84.1607 31.0783 84.542L32.4863 83.64C32.2809 83.2587 31.9949 82.9213 31.6283 82.628C31.2616 82.3347 30.8363 82.1 30.3523 81.924C29.8829 81.748 29.3769 81.66 28.8343 81.66C28.2916 81.66 27.7636 81.7553 27.2503 81.946C26.7516 82.1367 26.3409 82.43 26.0183 82.826C25.7103 83.222 25.5563 83.7207 25.5563 84.322C25.5563 84.9087 25.7029 85.4 25.9963 85.796C26.3043 86.1773 26.6783 86.4927 27.1183 86.742C27.5729 86.9767 28.0203 87.182 28.4603 87.358C28.8563 87.5047 29.2303 87.666 29.5823 87.842C29.9343 88.0033 30.2203 88.2087 30.4403 88.458C30.6749 88.6927 30.7923 88.986 30.7923 89.338C30.7923 89.734 30.6456 90.0493 30.3523 90.284C30.0736 90.504 29.6849 90.614 29.1863 90.614C28.7756 90.614 28.3943 90.5407 28.0423 90.394C27.7049 90.2327 27.4043 90.02 27.1403 89.756C26.8763 89.492 26.6416 89.206 26.4363 88.898ZM42.719 88.876C42.719 88.5093 42.807 88.194 42.983 87.93C43.159 87.666 43.423 87.4607 43.775 87.314C44.1417 87.1673 44.611 87.094 45.183 87.094C45.799 87.094 46.3784 87.1747 46.921 87.336C47.4637 87.4827 47.9917 87.732 48.505 88.084V87.05C48.4024 86.918 48.2044 86.7493 47.911 86.544C47.6177 86.324 47.2217 86.1333 46.723 85.972C46.239 85.796 45.6304 85.708 44.897 85.708C43.6504 85.708 42.675 86.0087 41.971 86.61C41.2817 87.1967 40.937 87.9813 40.937 88.964C40.937 89.6533 41.0984 90.24 41.421 90.724C41.7437 91.208 42.169 91.582 42.697 91.846C43.2397 92.0953 43.819 92.22 44.435 92.22C44.9924 92.22 45.5497 92.1173 46.107 91.912C46.679 91.7067 47.1557 91.3913 47.537 90.966C47.933 90.5407 48.131 90.0053 48.131 89.36L47.779 88.04C47.779 88.568 47.647 89.0373 47.383 89.448C47.1337 89.844 46.789 90.152 46.349 90.372C45.9237 90.592 45.4397 90.702 44.897 90.702C44.4717 90.702 44.0904 90.636 43.753 90.504C43.4304 90.3573 43.1737 90.1447 42.983 89.866C42.807 89.5873 42.719 89.2573 42.719 88.876ZM42.455 84.212C42.6164 84.0947 42.8364 83.9553 43.115 83.794C43.3937 83.6327 43.731 83.4933 44.127 83.376C44.5377 83.2587 44.9924 83.2 45.491 83.2C45.799 83.2 46.0924 83.2293 46.371 83.288C46.6497 83.3467 46.8917 83.442 47.097 83.574C47.317 83.706 47.4857 83.8893 47.603 84.124C47.7204 84.344 47.779 84.63 47.779 84.982V92H49.539V84.74C49.539 84.08 49.3704 83.5227 49.033 83.068C48.7104 82.6133 48.2484 82.2687 47.647 82.034C47.0604 81.7847 46.371 81.66 45.579 81.66C44.6404 81.66 43.8337 81.7993 43.159 82.078C42.499 82.3567 41.9784 82.6353 41.597 82.914L42.455 84.212ZM59.5545 74.84V92H61.3145V74.84H59.5545ZM63.9648 86.94C63.9648 87.952 64.1922 88.8613 64.6468 89.668C65.1162 90.46 65.7468 91.0833 66.5388 91.538C67.3308 91.9927 68.2182 92.22 69.2008 92.22C70.1982 92.22 71.0855 91.9927 71.8628 91.538C72.6548 91.0833 73.2782 90.46 73.7328 89.668C74.2022 88.8613 74.4368 87.952 74.4368 86.94C74.4368 85.9133 74.2022 85.004 73.7328 84.212C73.2782 83.42 72.6548 82.7967 71.8628 82.342C71.0855 81.8873 70.1982 81.66 69.2008 81.66C68.2182 81.66 67.3308 81.8873 66.5388 82.342C65.7468 82.7967 65.1162 83.42 64.6468 84.212C64.1922 85.004 63.9648 85.9133 63.9648 86.94ZM65.7468 86.94C65.7468 86.236 65.8935 85.6127 66.1868 85.07C66.4948 84.5127 66.9055 84.08 67.4188 83.772C67.9468 83.464 68.5408 83.31 69.2008 83.31C69.8608 83.31 70.4475 83.464 70.9608 83.772C71.4888 84.08 71.8995 84.5127 72.1928 85.07C72.5008 85.6127 72.6548 86.236 72.6548 86.94C72.6548 87.644 72.5008 88.2673 72.1928 88.81C71.8995 89.3527 71.4888 89.7853 70.9608 90.108C70.4475 90.416 69.8608 90.57 69.2008 90.57C68.5408 90.57 67.9468 90.416 67.4188 90.108C66.9055 89.7853 66.4948 89.3527 66.1868 88.81C65.8935 88.2673 65.7468 87.644 65.7468 86.94ZM83.5646 85.84V92H85.3246V85.62C85.3246 84.4027 85.0093 83.442 84.3786 82.738C83.7626 82.0193 82.9193 81.66 81.8486 81.66C81.1886 81.66 80.6019 81.8067 80.0886 82.1C79.5899 82.3933 79.1719 82.848 78.8346 83.464V81.88H77.0746V92H78.8346V85.84C78.8346 85.3413 78.9373 84.9013 79.1426 84.52C79.3626 84.1387 79.6633 83.8453 80.0446 83.64C80.4406 83.42 80.8953 83.31 81.4086 83.31C82.1126 83.31 82.6479 83.5227 83.0146 83.948C83.3813 84.3733 83.5646 85.004 83.5646 85.84ZM88.1712 92.66C88.1712 93.5253 88.3839 94.288 88.8092 94.948C89.2345 95.6227 89.8212 96.1433 90.5692 96.51C91.3319 96.8767 92.2045 97.06 93.1872 97.06C94.0379 97.06 94.8445 96.862 95.6072 96.466C96.3699 96.07 96.9932 95.476 97.4772 94.684C97.9612 93.9067 98.2032 92.9387 98.2032 91.78V81.88H96.4432V91.78C96.4432 92.6307 96.2745 93.32 95.9372 93.848C95.6145 94.3907 95.2039 94.7867 94.7052 95.036C94.2065 95.2853 93.7005 95.41 93.1872 95.41C92.5272 95.41 91.9552 95.278 91.4712 95.014C90.9872 94.7647 90.6132 94.4273 90.3492 94.002C90.0852 93.5913 89.9532 93.144 89.9532 92.66H88.1712ZM87.9732 86.94C87.9732 88.0253 88.2005 88.964 88.6552 89.756C89.1099 90.548 89.7185 91.1567 90.4812 91.582C91.2439 92.0073 92.0799 92.22 92.9892 92.22C93.8399 92.22 94.5805 92.0073 95.2112 91.582C95.8419 91.1567 96.3332 90.548 96.6852 89.756C97.0519 88.964 97.2352 88.0253 97.2352 86.94C97.2352 85.84 97.0519 84.9013 96.6852 84.124C96.3332 83.332 95.8419 82.7233 95.2112 82.298C94.5805 81.8727 93.8399 81.66 92.9892 81.66C92.0799 81.66 91.2439 81.8727 90.4812 82.298C89.7185 82.7233 89.1099 83.332 88.6552 84.124C88.2005 84.9013 87.9732 85.84 87.9732 86.94ZM89.7552 86.94C89.7552 86.1627 89.9092 85.5027 90.2172 84.96C90.5399 84.4173 90.9652 84.0067 91.4932 83.728C92.0212 83.4493 92.5932 83.31 93.2092 83.31C93.5905 83.31 93.9719 83.3907 94.3532 83.552C94.7345 83.7133 95.0792 83.948 95.3872 84.256C95.7099 84.564 95.9665 84.9453 96.1572 85.4C96.3479 85.84 96.4432 86.3533 96.4432 86.94C96.4432 87.7173 96.2819 88.3773 95.9592 88.92C95.6365 89.4627 95.2259 89.8733 94.7272 90.152C94.2285 90.4307 93.7225 90.57 93.2092 90.57C92.5932 90.57 92.0212 90.4307 91.4932 90.152C90.9652 89.8733 90.5399 89.4627 90.2172 88.92C89.9092 88.3773 89.7552 87.7173 89.7552 86.94ZM112.352 92.22C113.437 92.22 114.376 92.0073 115.168 91.582C115.974 91.142 116.642 90.4967 117.17 89.646L115.74 88.744C115.373 89.36 114.926 89.822 114.398 90.13C113.87 90.4233 113.261 90.57 112.572 90.57C111.882 90.57 111.296 90.4233 110.812 90.13C110.328 89.8367 109.961 89.4113 109.712 88.854C109.462 88.2967 109.338 87.622 109.338 86.83C109.352 86.0527 109.484 85.4 109.734 84.872C109.998 84.3293 110.364 83.9187 110.834 83.64C111.318 83.3467 111.897 83.2 112.572 83.2C113.144 83.2 113.642 83.3247 114.068 83.574C114.493 83.8233 114.823 84.168 115.058 84.608C115.307 85.048 115.432 85.5687 115.432 86.17C115.432 86.2727 115.41 86.4047 115.366 86.566C115.322 86.7127 115.278 86.8227 115.234 86.896L115.938 85.884H108.678V87.38H117.324C117.324 87.3507 117.324 87.2847 117.324 87.182C117.338 87.0647 117.346 86.9547 117.346 86.852C117.346 85.7813 117.155 84.8573 116.774 84.08C116.392 83.3027 115.842 82.7087 115.124 82.298C114.42 81.8727 113.569 81.66 112.572 81.66C111.574 81.66 110.694 81.88 109.932 82.32C109.184 82.76 108.597 83.376 108.172 84.168C107.761 84.96 107.556 85.884 107.556 86.94C107.556 87.9813 107.754 88.898 108.15 89.69C108.56 90.482 109.125 91.1053 109.844 91.56C110.577 92 111.413 92.22 112.352 92.22ZM120.396 88.898L119.01 89.756C119.201 90.152 119.479 90.5407 119.846 90.922C120.227 91.3033 120.689 91.6187 121.232 91.868C121.775 92.1027 122.383 92.22 123.058 92.22C124.099 92.22 124.935 91.9267 125.566 91.34C126.211 90.7533 126.534 90.02 126.534 89.14C126.534 88.5387 126.387 88.0473 126.094 87.666C125.815 87.2847 125.434 86.962 124.95 86.698C124.466 86.4193 123.931 86.1627 123.344 85.928C122.992 85.7813 122.655 85.6273 122.332 85.466C122.009 85.3047 121.745 85.1213 121.54 84.916C121.335 84.7107 121.232 84.476 121.232 84.212C121.232 83.8747 121.364 83.6253 121.628 83.464C121.892 83.3027 122.207 83.222 122.574 83.222C123.102 83.222 123.571 83.3467 123.982 83.596C124.407 83.8453 124.759 84.1607 125.038 84.542L126.446 83.64C126.241 83.2587 125.955 82.9213 125.588 82.628C125.221 82.3347 124.796 82.1 124.312 81.924C123.843 81.748 123.337 81.66 122.794 81.66C122.251 81.66 121.723 81.7553 121.21 81.946C120.711 82.1367 120.301 82.43 119.978 82.826C119.67 83.222 119.516 83.7207 119.516 84.322C119.516 84.9087 119.663 85.4 119.956 85.796C120.264 86.1773 120.638 86.4927 121.078 86.742C121.533 86.9767 121.98 87.182 122.42 87.358C122.816 87.5047 123.19 87.666 123.542 87.842C123.894 88.0033 124.18 88.2087 124.4 88.458C124.635 88.6927 124.752 88.986 124.752 89.338C124.752 89.734 124.605 90.0493 124.312 90.284C124.033 90.504 123.645 90.614 123.146 90.614C122.735 90.614 122.354 90.5407 122.002 90.394C121.665 90.2327 121.364 90.02 121.1 89.756C120.836 89.492 120.601 89.206 120.396 88.898ZM127.531 81.88V83.53H132.591V81.88H127.531ZM129.181 78.36V92H130.941V78.36H129.181ZM135.368 88.876C135.368 88.5093 135.456 88.194 135.632 87.93C135.808 87.666 136.072 87.4607 136.424 87.314C136.791 87.1673 137.26 87.094 137.832 87.094C138.448 87.094 139.028 87.1747 139.57 87.336C140.113 87.4827 140.641 87.732 141.154 88.084V87.05C141.052 86.918 140.854 86.7493 140.56 86.544C140.267 86.324 139.871 86.1333 139.372 85.972C138.888 85.796 138.28 85.708 137.546 85.708C136.3 85.708 135.324 86.0087 134.62 86.61C133.931 87.1967 133.586 87.9813 133.586 88.964C133.586 89.6533 133.748 90.24 134.07 90.724C134.393 91.208 134.818 91.582 135.346 91.846C135.889 92.0953 136.468 92.22 137.084 92.22C137.642 92.22 138.199 92.1173 138.756 91.912C139.328 91.7067 139.805 91.3913 140.186 90.966C140.582 90.5407 140.78 90.0053 140.78 89.36L140.428 88.04C140.428 88.568 140.296 89.0373 140.032 89.448C139.783 89.844 139.438 90.152 138.998 90.372C138.573 90.592 138.089 90.702 137.546 90.702C137.121 90.702 136.74 90.636 136.402 90.504C136.08 90.3573 135.823 90.1447 135.632 89.866C135.456 89.5873 135.368 89.2573 135.368 88.876ZM135.104 84.212C135.266 84.0947 135.486 83.9553 135.764 83.794C136.043 83.6327 136.38 83.4933 136.776 83.376C137.187 83.2587 137.642 83.2 138.14 83.2C138.448 83.2 138.742 83.2293 139.02 83.288C139.299 83.3467 139.541 83.442 139.746 83.574C139.966 83.706 140.135 83.8893 140.252 84.124C140.37 84.344 140.428 84.63 140.428 84.982V92H142.188V84.74C142.188 84.08 142.02 83.5227 141.682 83.068C141.36 82.6133 140.898 82.2687 140.296 82.034C139.71 81.7847 139.02 81.66 138.228 81.66C137.29 81.66 136.483 81.7993 135.808 82.078C135.148 82.3567 134.628 82.6353 134.246 82.914L135.104 84.212ZM147.038 74.84H145.278V92H147.038V74.84ZM155.508 86.94C155.508 85.84 155.281 84.9013 154.826 84.124C154.371 83.332 153.763 82.7233 153 82.298C152.252 81.8727 151.416 81.66 150.492 81.66C149.656 81.66 148.915 81.8727 148.27 82.298C147.639 82.7233 147.141 83.332 146.774 84.124C146.422 84.9013 146.246 85.84 146.246 86.94C146.246 88.0253 146.422 88.964 146.774 89.756C147.141 90.548 147.639 91.1567 148.27 91.582C148.915 92.0073 149.656 92.22 150.492 92.22C151.416 92.22 152.252 92.0073 153 91.582C153.763 91.1567 154.371 90.548 154.826 89.756C155.281 88.964 155.508 88.0253 155.508 86.94ZM153.726 86.94C153.726 87.7173 153.565 88.3773 153.242 88.92C152.934 89.4627 152.516 89.8733 151.988 90.152C151.475 90.4307 150.903 90.57 150.272 90.57C149.759 90.57 149.253 90.4307 148.754 90.152C148.255 89.8733 147.845 89.4627 147.522 88.92C147.199 88.3773 147.038 87.7173 147.038 86.94C147.038 86.1627 147.199 85.5027 147.522 84.96C147.845 84.4173 148.255 84.0067 148.754 83.728C149.253 83.4493 149.759 83.31 150.272 83.31C150.903 83.31 151.475 83.4493 151.988 83.728C152.516 84.0067 152.934 84.4173 153.242 84.96C153.565 85.5027 153.726 86.1627 153.726 86.94ZM158.155 74.84V92H159.915V74.84H158.155ZM163.445 77.7C163.445 78.0227 163.563 78.3087 163.797 78.558C164.047 78.7927 164.333 78.91 164.655 78.91C164.993 78.91 165.279 78.7927 165.513 78.558C165.748 78.3087 165.865 78.0227 165.865 77.7C165.865 77.3627 165.748 77.0767 165.513 76.842C165.279 76.6073 164.993 76.49 164.655 76.49C164.333 76.49 164.047 76.6073 163.797 76.842C163.563 77.0767 163.445 77.3627 163.445 77.7ZM163.775 81.88V92H165.535V81.88H163.775ZM169.798 88.898L168.412 89.756C168.603 90.152 168.881 90.5407 169.248 90.922C169.629 91.3033 170.091 91.6187 170.634 91.868C171.177 92.1027 171.785 92.22 172.46 92.22C173.501 92.22 174.337 91.9267 174.968 91.34C175.613 90.7533 175.936 90.02 175.936 89.14C175.936 88.5387 175.789 88.0473 175.496 87.666C175.217 87.2847 174.836 86.962 174.352 86.698C173.868 86.4193 173.333 86.1627 172.746 85.928C172.394 85.7813 172.057 85.6273 171.734 85.466C171.411 85.3047 171.147 85.1213 170.942 84.916C170.737 84.7107 170.634 84.476 170.634 84.212C170.634 83.8747 170.766 83.6253 171.03 83.464C171.294 83.3027 171.609 83.222 171.976 83.222C172.504 83.222 172.973 83.3467 173.384 83.596C173.809 83.8453 174.161 84.1607 174.44 84.542L175.848 83.64C175.643 83.2587 175.357 82.9213 174.99 82.628C174.623 82.3347 174.198 82.1 173.714 81.924C173.245 81.748 172.739 81.66 172.196 81.66C171.653 81.66 171.125 81.7553 170.612 81.946C170.113 82.1367 169.703 82.43 169.38 82.826C169.072 83.222 168.918 83.7207 168.918 84.322C168.918 84.9087 169.065 85.4 169.358 85.796C169.666 86.1773 170.04 86.4927 170.48 86.742C170.935 86.9767 171.382 87.182 171.822 87.358C172.218 87.5047 172.592 87.666 172.944 87.842C173.296 88.0033 173.582 88.2087 173.802 88.458C174.037 88.6927 174.154 88.986 174.154 89.338C174.154 89.734 174.007 90.0493 173.714 90.284C173.435 90.504 173.047 90.614 172.548 90.614C172.137 90.614 171.756 90.5407 171.404 90.394C171.067 90.2327 170.766 90.02 170.502 89.756C170.238 89.492 170.003 89.206 169.798 88.898ZM180.233 74.84H178.473V92H180.233V74.84ZM184.963 85.84V92H186.723V85.62C186.723 84.74 186.576 84.0067 186.283 83.42C186.004 82.8333 185.601 82.3933 185.073 82.1C184.56 81.8067 183.951 81.66 183.247 81.66C182.543 81.66 181.92 81.8433 181.377 82.21C180.849 82.5767 180.431 83.0753 180.123 83.706C179.815 84.322 179.661 85.0333 179.661 85.84H180.233C180.233 85.356 180.336 84.9233 180.541 84.542C180.761 84.1607 181.062 83.86 181.443 83.64C181.839 83.42 182.294 83.31 182.807 83.31C183.526 83.31 184.061 83.5227 184.413 83.948C184.78 84.3733 184.963 85.004 184.963 85.84ZM194.168 92.22C195.253 92.22 196.192 92.0073 196.984 91.582C197.79 91.142 198.458 90.4967 198.986 89.646L197.556 88.744C197.189 89.36 196.742 89.822 196.214 90.13C195.686 90.4233 195.077 90.57 194.388 90.57C193.698 90.57 193.112 90.4233 192.628 90.13C192.144 89.8367 191.777 89.4113 191.528 88.854C191.278 88.2967 191.154 87.622 191.154 86.83C191.168 86.0527 191.3 85.4 191.55 84.872C191.814 84.3293 192.18 83.9187 192.65 83.64C193.134 83.3467 193.713 83.2 194.388 83.2C194.96 83.2 195.458 83.3247 195.884 83.574C196.309 83.8233 196.639 84.168 196.874 84.608C197.123 85.048 197.248 85.5687 197.248 86.17C197.248 86.2727 197.226 86.4047 197.182 86.566C197.138 86.7127 197.094 86.8227 197.05 86.896L197.754 85.884H190.494V87.38H199.14C199.14 87.3507 199.14 87.2847 199.14 87.182C199.154 87.0647 199.162 86.9547 199.162 86.852C199.162 85.7813 198.971 84.8573 198.59 84.08C198.208 83.3027 197.658 82.7087 196.94 82.298C196.236 81.8727 195.385 81.66 194.388 81.66C193.39 81.66 192.51 81.88 191.748 82.32C191 82.76 190.413 83.376 189.988 84.168C189.577 84.96 189.372 85.884 189.372 86.94C189.372 87.9813 189.57 88.898 189.966 89.69C190.376 90.482 190.941 91.1053 191.66 91.56C192.393 92 193.229 92.22 194.168 92.22ZM209.384 74.84V92H211.144V74.84H209.384ZM200.914 86.94C200.914 88.0253 201.141 88.964 201.596 89.756C202.051 90.548 202.659 91.1567 203.422 91.582C204.185 92.0073 205.021 92.22 205.93 92.22C206.781 92.22 207.521 92.0073 208.152 91.582C208.783 91.1567 209.274 90.548 209.626 89.756C209.993 88.964 210.176 88.0253 210.176 86.94C210.176 85.84 209.993 84.9013 209.626 84.124C209.274 83.332 208.783 82.7233 208.152 82.298C207.521 81.8727 206.781 81.66 205.93 81.66C205.021 81.66 204.185 81.8727 203.422 82.298C202.659 82.7233 202.051 83.332 201.596 84.124C201.141 84.9013 200.914 85.84 200.914 86.94ZM202.696 86.94C202.696 86.1627 202.85 85.5027 203.158 84.96C203.481 84.4173 203.906 84.0067 204.434 83.728C204.962 83.4493 205.534 83.31 206.15 83.31C206.663 83.31 207.169 83.4493 207.668 83.728C208.167 84.0067 208.577 84.4173 208.9 84.96C209.223 85.5027 209.384 86.1627 209.384 86.94C209.384 87.7173 209.223 88.3773 208.9 88.92C208.577 89.4627 208.167 89.8733 207.668 90.152C207.169 90.4307 206.663 90.57 206.15 90.57C205.534 90.57 204.962 90.4307 204.434 90.152C203.906 89.8733 203.481 89.4627 203.158 88.92C202.85 88.3773 202.696 87.7173 202.696 86.94ZM220.607 81.88V83.53H225.667V81.88H220.607ZM225.491 76.952L226.459 75.5C226.356 75.3533 226.209 75.214 226.019 75.082C225.843 74.95 225.63 74.84 225.381 74.752C225.131 74.664 224.845 74.62 224.523 74.62C223.907 74.62 223.379 74.752 222.939 75.016C222.513 75.2653 222.183 75.6467 221.949 76.16C221.714 76.6733 221.597 77.3333 221.597 78.14V92H223.357V78.36C223.357 77.876 223.401 77.4873 223.489 77.194C223.577 76.9007 223.694 76.6953 223.841 76.578C224.002 76.446 224.193 76.38 224.413 76.38C224.589 76.38 224.772 76.4167 224.963 76.49C225.168 76.5487 225.344 76.7027 225.491 76.952ZM228.683 88.876C228.683 88.5093 228.771 88.194 228.947 87.93C229.123 87.666 229.387 87.4607 229.739 87.314C230.106 87.1673 230.575 87.094 231.147 87.094C231.763 87.094 232.343 87.1747 232.885 87.336C233.428 87.4827 233.956 87.732 234.469 88.084V87.05C234.367 86.918 234.169 86.7493 233.875 86.544C233.582 86.324 233.186 86.1333 232.687 85.972C232.203 85.796 231.595 85.708 230.861 85.708C229.615 85.708 228.639 86.0087 227.935 86.61C227.246 87.1967 226.901 87.9813 226.901 88.964C226.901 89.6533 227.063 90.24 227.385 90.724C227.708 91.208 228.133 91.582 228.661 91.846C229.204 92.0953 229.783 92.22 230.399 92.22C230.957 92.22 231.514 92.1173 232.071 91.912C232.643 91.7067 233.12 91.3913 233.501 90.966C233.897 90.5407 234.095 90.0053 234.095 89.36L233.743 88.04C233.743 88.568 233.611 89.0373 233.347 89.448C233.098 89.844 232.753 90.152 232.313 90.372C231.888 90.592 231.404 90.702 230.861 90.702C230.436 90.702 230.055 90.636 229.717 90.504C229.395 90.3573 229.138 90.1447 228.947 89.866C228.771 89.5873 228.683 89.2573 228.683 88.876ZM228.419 84.212C228.581 84.0947 228.801 83.9553 229.079 83.794C229.358 83.6327 229.695 83.4933 230.091 83.376C230.502 83.2587 230.957 83.2 231.455 83.2C231.763 83.2 232.057 83.2293 232.335 83.288C232.614 83.3467 232.856 83.442 233.061 83.574C233.281 83.706 233.45 83.8893 233.567 84.124C233.685 84.344 233.743 84.63 233.743 84.982V92H235.503V84.74C235.503 84.08 235.335 83.5227 234.997 83.068C234.675 82.6133 234.213 82.2687 233.611 82.034C233.025 81.7847 232.335 81.66 231.543 81.66C230.605 81.66 229.798 81.7993 229.123 82.078C228.463 82.3567 227.943 82.6353 227.561 82.914L228.419 84.212ZM239.495 86.94C239.495 86.236 239.642 85.6127 239.935 85.07C240.243 84.5127 240.654 84.08 241.167 83.772C241.695 83.464 242.289 83.31 242.949 83.31C243.492 83.31 243.998 83.398 244.467 83.574C244.951 83.7353 245.369 83.9553 245.721 84.234C246.073 84.5127 246.323 84.8207 246.469 85.158V82.958C246.117 82.5473 245.611 82.232 244.951 82.012C244.306 81.7773 243.639 81.66 242.949 81.66C241.967 81.66 241.079 81.8873 240.287 82.342C239.495 82.7967 238.865 83.42 238.395 84.212C237.941 85.004 237.713 85.9133 237.713 86.94C237.713 87.952 237.941 88.8613 238.395 89.668C238.865 90.46 239.495 91.0833 240.287 91.538C241.079 91.9927 241.967 92.22 242.949 92.22C243.639 92.22 244.306 92.11 244.951 91.89C245.611 91.6553 246.117 91.3327 246.469 90.922V88.722C246.323 89.0447 246.073 89.3527 245.721 89.646C245.369 89.9247 244.951 90.152 244.467 90.328C243.998 90.4893 243.492 90.57 242.949 90.57C242.289 90.57 241.695 90.416 241.167 90.108C240.654 89.7853 240.243 89.3527 239.935 88.81C239.642 88.2673 239.495 87.644 239.495 86.94ZM247.889 81.88V83.53H252.949V81.88H247.889ZM249.539 78.36V92H251.299V78.36H249.539ZM260.21 81.88V83.53H265.27V81.88H260.21ZM261.86 78.36V92H263.62V78.36H261.86ZM269.015 74.84H267.255V92H269.015V74.84ZM273.745 85.84V92H275.505V85.62C275.505 84.74 275.358 84.0067 275.065 83.42C274.786 82.8333 274.383 82.3933 273.855 82.1C273.342 81.8067 272.733 81.66 272.029 81.66C271.325 81.66 270.702 81.8433 270.159 82.21C269.631 82.5767 269.213 83.0753 268.905 83.706C268.597 84.322 268.443 85.0333 268.443 85.84H269.015C269.015 85.356 269.118 84.9233 269.323 84.542C269.543 84.1607 269.844 83.86 270.225 83.64C270.621 83.42 271.076 83.31 271.589 83.31C272.308 83.31 272.843 83.5227 273.195 83.948C273.562 84.3733 273.745 85.004 273.745 85.84ZM279.826 88.876C279.826 88.5093 279.914 88.194 280.09 87.93C280.266 87.666 280.53 87.4607 280.882 87.314C281.248 87.1673 281.718 87.094 282.29 87.094C282.906 87.094 283.485 87.1747 284.028 87.336C284.57 87.4827 285.098 87.732 285.612 88.084V87.05C285.509 86.918 285.311 86.7493 285.018 86.544C284.724 86.324 284.328 86.1333 283.83 85.972C283.346 85.796 282.737 85.708 282.004 85.708C280.757 85.708 279.782 86.0087 279.078 86.61C278.388 87.1967 278.044 87.9813 278.044 88.964C278.044 89.6533 278.205 90.24 278.528 90.724C278.85 91.208 279.276 91.582 279.804 91.846C280.346 92.0953 280.926 92.22 281.542 92.22C282.099 92.22 282.656 92.1173 283.214 91.912C283.786 91.7067 284.262 91.3913 284.644 90.966C285.04 90.5407 285.238 90.0053 285.238 89.36L284.886 88.04C284.886 88.568 284.754 89.0373 284.49 89.448C284.24 89.844 283.896 90.152 283.456 90.372C283.03 90.592 282.546 90.702 282.004 90.702C281.578 90.702 281.197 90.636 280.86 90.504C280.537 90.3573 280.28 90.1447 280.09 89.866C279.914 89.5873 279.826 89.2573 279.826 88.876ZM279.562 84.212C279.723 84.0947 279.943 83.9553 280.222 83.794C280.5 83.6327 280.838 83.4933 281.234 83.376C281.644 83.2587 282.099 83.2 282.598 83.2C282.906 83.2 283.199 83.2293 283.478 83.288C283.756 83.3467 283.998 83.442 284.204 83.574C284.424 83.706 284.592 83.8893 284.71 84.124C284.827 84.344 284.886 84.63 284.886 84.982V92H286.646V84.74C286.646 84.08 286.477 83.5227 286.14 83.068C285.817 82.6133 285.355 82.2687 284.754 82.034C284.167 81.7847 283.478 81.66 282.686 81.66C281.747 81.66 280.94 81.7993 280.266 82.078C279.606 82.3567 279.085 82.6353 278.704 82.914L279.562 84.212ZM288.306 81.88V83.53H293.366V81.88H288.306ZM289.956 78.36V92H291.716V78.36H289.956ZM302.958 88.876C302.958 88.5093 303.046 88.194 303.222 87.93C303.398 87.666 303.662 87.4607 304.014 87.314C304.381 87.1673 304.85 87.094 305.422 87.094C306.038 87.094 306.618 87.1747 307.16 87.336C307.703 87.4827 308.231 87.732 308.744 88.084V87.05C308.642 86.918 308.444 86.7493 308.15 86.544C307.857 86.324 307.461 86.1333 306.962 85.972C306.478 85.796 305.87 85.708 305.136 85.708C303.89 85.708 302.914 86.0087 302.21 86.61C301.521 87.1967 301.176 87.9813 301.176 88.964C301.176 89.6533 301.338 90.24 301.66 90.724C301.983 91.208 302.408 91.582 302.936 91.846C303.479 92.0953 304.058 92.22 304.674 92.22C305.232 92.22 305.789 92.1173 306.346 91.912C306.918 91.7067 307.395 91.3913 307.776 90.966C308.172 90.5407 308.37 90.0053 308.37 89.36L308.018 88.04C308.018 88.568 307.886 89.0373 307.622 89.448C307.373 89.844 307.028 90.152 306.588 90.372C306.163 90.592 305.679 90.702 305.136 90.702C304.711 90.702 304.33 90.636 303.992 90.504C303.67 90.3573 303.413 90.1447 303.222 89.866C303.046 89.5873 302.958 89.2573 302.958 88.876ZM302.694 84.212C302.856 84.0947 303.076 83.9553 303.354 83.794C303.633 83.6327 303.97 83.4933 304.366 83.376C304.777 83.2587 305.232 83.2 305.73 83.2C306.038 83.2 306.332 83.2293 306.61 83.288C306.889 83.3467 307.131 83.442 307.336 83.574C307.556 83.706 307.725 83.8893 307.842 84.124C307.96 84.344 308.018 84.63 308.018 84.982V92H309.778V84.74C309.778 84.08 309.61 83.5227 309.272 83.068C308.95 82.6133 308.488 82.2687 307.886 82.034C307.3 81.7847 306.61 81.66 305.818 81.66C304.88 81.66 304.073 81.7993 303.398 82.078C302.738 82.3567 302.218 82.6353 301.836 82.914L302.694 84.212ZM321.554 81.88H319.794V92H321.554V81.88ZM324.612 83.816L325.58 82.364C325.316 82.0853 325.023 81.902 324.7 81.814C324.392 81.7113 324.055 81.66 323.688 81.66C323.219 81.66 322.757 81.8433 322.302 82.21C321.847 82.5767 321.473 83.0753 321.18 83.706C320.901 84.322 320.762 85.0333 320.762 85.84H321.554C321.554 85.356 321.598 84.9233 321.686 84.542C321.789 84.1607 321.965 83.86 322.214 83.64C322.463 83.42 322.808 83.31 323.248 83.31C323.541 83.31 323.783 83.354 323.974 83.442C324.165 83.5153 324.377 83.64 324.612 83.816ZM331.149 92.22C332.234 92.22 333.173 92.0073 333.965 91.582C334.771 91.142 335.439 90.4967 335.967 89.646L334.537 88.744C334.17 89.36 333.723 89.822 333.195 90.13C332.667 90.4233 332.058 90.57 331.369 90.57C330.679 90.57 330.093 90.4233 329.609 90.13C329.125 89.8367 328.758 89.4113 328.509 88.854C328.259 88.2967 328.135 87.622 328.135 86.83C328.149 86.0527 328.281 85.4 328.531 84.872C328.795 84.3293 329.161 83.9187 329.631 83.64C330.115 83.3467 330.694 83.2 331.369 83.2C331.941 83.2 332.439 83.3247 332.865 83.574C333.29 83.8233 333.62 84.168 333.855 84.608C334.104 85.048 334.229 85.5687 334.229 86.17C334.229 86.2727 334.207 86.4047 334.163 86.566C334.119 86.7127 334.075 86.8227 334.031 86.896L334.735 85.884H327.475V87.38H336.121C336.121 87.3507 336.121 87.2847 336.121 87.182C336.135 87.0647 336.143 86.9547 336.143 86.852C336.143 85.7813 335.952 84.8573 335.571 84.08C335.189 83.3027 334.639 82.7087 333.921 82.298C333.217 81.8727 332.366 81.66 331.369 81.66C330.371 81.66 329.491 81.88 328.729 82.32C327.981 82.76 327.394 83.376 326.969 84.168C326.558 84.96 326.353 85.884 326.353 86.94C326.353 87.9813 326.551 88.898 326.947 89.69C327.357 90.482 327.922 91.1053 328.641 91.56C329.374 92 330.21 92.22 331.149 92.22ZM339.567 88.876C339.567 88.5093 339.655 88.194 339.831 87.93C340.007 87.666 340.271 87.4607 340.623 87.314C340.99 87.1673 341.459 87.094 342.031 87.094C342.647 87.094 343.226 87.1747 343.769 87.336C344.312 87.4827 344.84 87.732 345.353 88.084V87.05C345.25 86.918 345.052 86.7493 344.759 86.544C344.466 86.324 344.07 86.1333 343.571 85.972C343.087 85.796 342.478 85.708 341.745 85.708C340.498 85.708 339.523 86.0087 338.819 86.61C338.13 87.1967 337.785 87.9813 337.785 88.964C337.785 89.6533 337.946 90.24 338.269 90.724C338.592 91.208 339.017 91.582 339.545 91.846C340.088 92.0953 340.667 92.22 341.283 92.22C341.84 92.22 342.398 92.1173 342.955 91.912C343.527 91.7067 344.004 91.3913 344.385 90.966C344.781 90.5407 344.979 90.0053 344.979 89.36L344.627 88.04C344.627 88.568 344.495 89.0373 344.231 89.448C343.982 89.844 343.637 90.152 343.197 90.372C342.772 90.592 342.288 90.702 341.745 90.702C341.32 90.702 340.938 90.636 340.601 90.504C340.278 90.3573 340.022 90.1447 339.831 89.866C339.655 89.5873 339.567 89.2573 339.567 88.876ZM339.303 84.212C339.464 84.0947 339.684 83.9553 339.963 83.794C340.242 83.6327 340.579 83.4933 340.975 83.376C341.386 83.2587 341.84 83.2 342.339 83.2C342.647 83.2 342.94 83.2293 343.219 83.288C343.498 83.3467 343.74 83.442 343.945 83.574C344.165 83.706 344.334 83.8893 344.451 84.124C344.568 84.344 344.627 84.63 344.627 84.982V92H346.387V84.74C346.387 84.08 346.218 83.5227 345.881 83.068C345.558 82.6133 345.096 82.2687 344.495 82.034C343.908 81.7847 343.219 81.66 342.427 81.66C341.488 81.66 340.682 81.7993 340.007 82.078C339.347 82.3567 338.826 82.6353 338.445 82.914L339.303 84.212ZM357.177 74.84V92H358.937V74.84H357.177ZM348.707 86.94C348.707 88.0253 348.934 88.964 349.389 89.756C349.843 90.548 350.452 91.1567 351.215 91.582C351.977 92.0073 352.813 92.22 353.723 92.22C354.573 92.22 355.314 92.0073 355.945 91.582C356.575 91.1567 357.067 90.548 357.419 89.756C357.785 88.964 357.969 88.0253 357.969 86.94C357.969 85.84 357.785 84.9013 357.419 84.124C357.067 83.332 356.575 82.7233 355.945 82.298C355.314 81.8727 354.573 81.66 353.723 81.66C352.813 81.66 351.977 81.8727 351.215 82.298C350.452 82.7233 349.843 83.332 349.389 84.124C348.934 84.9013 348.707 85.84 348.707 86.94ZM350.489 86.94C350.489 86.1627 350.643 85.5027 350.951 84.96C351.273 84.4173 351.699 84.0067 352.227 83.728C352.755 83.4493 353.327 83.31 353.943 83.31C354.456 83.31 354.962 83.4493 355.461 83.728C355.959 84.0067 356.37 84.4173 356.693 84.96C357.015 85.5027 357.177 86.1627 357.177 86.94C357.177 87.7173 357.015 88.3773 356.693 88.92C356.37 89.4627 355.959 89.8733 355.461 90.152C354.962 90.4307 354.456 90.57 353.943 90.57C353.327 90.57 352.755 90.4307 352.227 90.152C351.699 89.8733 351.273 89.4627 350.951 88.92C350.643 88.3773 350.489 87.7173 350.489 86.94ZM366.27 92.22C367.355 92.22 368.294 92.0073 369.086 91.582C369.892 91.142 370.56 90.4967 371.088 89.646L369.658 88.744C369.291 89.36 368.844 89.822 368.316 90.13C367.788 90.4233 367.179 90.57 366.49 90.57C365.8 90.57 365.214 90.4233 364.73 90.13C364.246 89.8367 363.879 89.4113 363.63 88.854C363.38 88.2967 363.256 87.622 363.256 86.83C363.27 86.0527 363.402 85.4 363.652 84.872C363.916 84.3293 364.282 83.9187 364.752 83.64C365.236 83.3467 365.815 83.2 366.49 83.2C367.062 83.2 367.56 83.3247 367.986 83.574C368.411 83.8233 368.741 84.168 368.976 84.608C369.225 85.048 369.35 85.5687 369.35 86.17C369.35 86.2727 369.328 86.4047 369.284 86.566C369.24 86.7127 369.196 86.8227 369.152 86.896L369.856 85.884H362.596V87.38H371.242C371.242 87.3507 371.242 87.2847 371.242 87.182C371.256 87.0647 371.264 86.9547 371.264 86.852C371.264 85.7813 371.073 84.8573 370.692 84.08C370.31 83.3027 369.76 82.7087 369.042 82.298C368.338 81.8727 367.487 81.66 366.49 81.66C365.492 81.66 364.612 81.88 363.85 82.32C363.102 82.76 362.515 83.376 362.09 84.168C361.679 84.96 361.474 85.884 361.474 86.94C361.474 87.9813 361.672 88.898 362.068 89.69C362.478 90.482 363.043 91.1053 363.762 91.56C364.495 92 365.331 92.22 366.27 92.22ZM375.656 81.88H373.896V92H375.656V81.88ZM378.714 83.816L379.682 82.364C379.418 82.0853 379.125 81.902 378.802 81.814C378.494 81.7113 378.157 81.66 377.79 81.66C377.321 81.66 376.859 81.8433 376.404 82.21C375.949 82.5767 375.575 83.0753 375.282 83.706C375.003 84.322 374.864 85.0333 374.864 85.84H375.656C375.656 85.356 375.7 84.9233 375.788 84.542C375.891 84.1607 376.067 83.86 376.316 83.64C376.565 83.42 376.91 83.31 377.35 83.31C377.643 83.31 377.885 83.354 378.076 83.442C378.267 83.5153 378.479 83.64 378.714 83.816ZM0.61 114.88L5.01 125.77L7.892 118.4L10.95 125.77L15.35 114.88H13.37L10.818 121.502L7.87 114.11L5.12 121.458L2.59 114.88H0.61ZM17.3231 110.7C17.3231 111.023 17.4405 111.309 17.6751 111.558C17.9245 111.793 18.2105 111.91 18.5331 111.91C18.8705 111.91 19.1565 111.793 19.3911 111.558C19.6258 111.309 19.7431 111.023 19.7431 110.7C19.7431 110.363 19.6258 110.077 19.3911 109.842C19.1565 109.607 18.8705 109.49 18.5331 109.49C18.2105 109.49 17.9245 109.607 17.6751 109.842C17.4405 110.077 17.3231 110.363 17.3231 110.7ZM17.6531 114.88V125H19.4131V114.88H17.6531ZM23.258 107.84V125H25.018V107.84H23.258ZM28.5483 107.84V125H30.3083V107.84H28.5483ZM42.3043 107.84H40.5443V125H42.3043V107.84ZM50.7743 119.94C50.7743 118.84 50.547 117.901 50.0923 117.124C49.6376 116.332 49.029 115.723 48.2663 115.298C47.5183 114.873 46.6823 114.66 45.7583 114.66C44.9223 114.66 44.1816 114.873 43.5363 115.298C42.9056 115.723 42.407 116.332 42.0403 117.124C41.6883 117.901 41.5123 118.84 41.5123 119.94C41.5123 121.025 41.6883 121.964 42.0403 122.756C42.407 123.548 42.9056 124.157 43.5363 124.582C44.1816 125.007 44.9223 125.22 45.7583 125.22C46.6823 125.22 47.5183 125.007 48.2663 124.582C49.029 124.157 49.6376 123.548 50.0923 122.756C50.547 121.964 50.7743 121.025 50.7743 119.94ZM48.9923 119.94C48.9923 120.717 48.831 121.377 48.5083 121.92C48.2003 122.463 47.7823 122.873 47.2543 123.152C46.741 123.431 46.169 123.57 45.5383 123.57C45.025 123.57 44.519 123.431 44.0203 123.152C43.5216 122.873 43.111 122.463 42.7883 121.92C42.4656 121.377 42.3043 120.717 42.3043 119.94C42.3043 119.163 42.4656 118.503 42.7883 117.96C43.111 117.417 43.5216 117.007 44.0203 116.728C44.519 116.449 45.025 116.31 45.5383 116.31C46.169 116.31 46.741 116.449 47.2543 116.728C47.7823 117.007 48.2003 117.417 48.5083 117.96C48.831 118.503 48.9923 119.163 48.9923 119.94ZM57.3372 125.22C58.4225 125.22 59.3612 125.007 60.1532 124.582C60.9598 124.142 61.6272 123.497 62.1552 122.646L60.7252 121.744C60.3585 122.36 59.9112 122.822 59.3832 123.13C58.8552 123.423 58.2465 123.57 57.5572 123.57C56.8678 123.57 56.2812 123.423 55.7972 123.13C55.3132 122.837 54.9465 122.411 54.6972 121.854C54.4478 121.297 54.3232 120.622 54.3232 119.83C54.3378 119.053 54.4698 118.4 54.7192 117.872C54.9832 117.329 55.3498 116.919 55.8192 116.64C56.3032 116.347 56.8825 116.2 57.5572 116.2C58.1292 116.2 58.6278 116.325 59.0532 116.574C59.4785 116.823 59.8085 117.168 60.0432 117.608C60.2925 118.048 60.4172 118.569 60.4172 119.17C60.4172 119.273 60.3952 119.405 60.3512 119.566C60.3072 119.713 60.2632 119.823 60.2192 119.896L60.9232 118.884H53.6632V120.38H62.3092C62.3092 120.351 62.3092 120.285 62.3092 120.182C62.3238 120.065 62.3312 119.955 62.3312 119.852C62.3312 118.781 62.1405 117.857 61.7592 117.08C61.3778 116.303 60.8278 115.709 60.1092 115.298C59.4052 114.873 58.5545 114.66 57.5572 114.66C56.5598 114.66 55.6798 114.88 54.9172 115.32C54.1692 115.76 53.5825 116.376 53.1572 117.168C52.7465 117.96 52.5412 118.884 52.5412 119.94C52.5412 120.981 52.7392 121.898 53.1352 122.69C53.5458 123.482 54.1105 124.105 54.8292 124.56C55.5625 125 56.3985 125.22 57.3372 125.22ZM79.3691 107.84V125H81.1291V107.84H79.3691ZM70.8991 119.94C70.8991 121.025 71.1265 121.964 71.5811 122.756C72.0358 123.548 72.6445 124.157 73.4071 124.582C74.1698 125.007 75.0058 125.22 75.9151 125.22C76.7658 125.22 77.5065 125.007 78.1371 124.582C78.7678 124.157 79.2591 123.548 79.6111 122.756C79.9778 121.964 80.1611 121.025 80.1611 119.94C80.1611 118.84 79.9778 117.901 79.6111 117.124C79.2591 116.332 78.7678 115.723 78.1371 115.298C77.5065 114.873 76.7658 114.66 75.9151 114.66C75.0058 114.66 74.1698 114.873 73.4071 115.298C72.6445 115.723 72.0358 116.332 71.5811 117.124C71.1265 117.901 70.8991 118.84 70.8991 119.94ZM72.6811 119.94C72.6811 119.163 72.8351 118.503 73.1431 117.96C73.4658 117.417 73.8911 117.007 74.4191 116.728C74.9471 116.449 75.5191 116.31 76.1351 116.31C76.6485 116.31 77.1545 116.449 77.6531 116.728C78.1518 117.007 78.5625 117.417 78.8851 117.96C79.2078 118.503 79.3691 119.163 79.3691 119.94C79.3691 120.717 79.2078 121.377 78.8851 121.92C78.5625 122.463 78.1518 122.873 77.6531 123.152C77.1545 123.431 76.6485 123.57 76.1351 123.57C75.5191 123.57 74.9471 123.431 74.4191 123.152C73.8911 122.873 73.4658 122.463 73.1431 121.92C72.8351 121.377 72.6811 120.717 72.6811 119.94ZM84.546 110.7C84.546 111.023 84.6634 111.309 84.898 111.558C85.1474 111.793 85.4334 111.91 85.756 111.91C86.0934 111.91 86.3794 111.793 86.614 111.558C86.8487 111.309 86.966 111.023 86.966 110.7C86.966 110.363 86.8487 110.077 86.614 109.842C86.3794 109.607 86.0934 109.49 85.756 109.49C85.4334 109.49 85.1474 109.607 84.898 109.842C84.6634 110.077 84.546 110.363 84.546 110.7ZM84.876 114.88V125H86.636V114.88H84.876ZM90.8989 121.898L89.5129 122.756C89.7035 123.152 89.9822 123.541 90.3489 123.922C90.7302 124.303 91.1922 124.619 91.7349 124.868C92.2775 125.103 92.8862 125.22 93.5609 125.22C94.6022 125.22 95.4382 124.927 96.0689 124.34C96.7142 123.753 97.0369 123.02 97.0369 122.14C97.0369 121.539 96.8902 121.047 96.5969 120.666C96.3182 120.285 95.9369 119.962 95.4529 119.698C94.9689 119.419 94.4335 119.163 93.8469 118.928C93.4949 118.781 93.1575 118.627 92.8349 118.466C92.5122 118.305 92.2482 118.121 92.0429 117.916C91.8375 117.711 91.7349 117.476 91.7349 117.212C91.7349 116.875 91.8669 116.625 92.1309 116.464C92.3949 116.303 92.7102 116.222 93.0769 116.222C93.6049 116.222 94.0742 116.347 94.4849 116.596C94.9102 116.845 95.2622 117.161 95.5409 117.542L96.9489 116.64C96.7435 116.259 96.4575 115.921 96.0909 115.628C95.7242 115.335 95.2989 115.1 94.8149 114.924C94.3455 114.748 93.8395 114.66 93.2969 114.66C92.7542 114.66 92.2262 114.755 91.7129 114.946C91.2142 115.137 90.8035 115.43 90.4809 115.826C90.1729 116.222 90.0189 116.721 90.0189 117.322C90.0189 117.909 90.1655 118.4 90.4589 118.796C90.7669 119.177 91.1409 119.493 91.5809 119.742C92.0355 119.977 92.4829 120.182 92.9229 120.358C93.3189 120.505 93.6929 120.666 94.0449 120.842C94.3969 121.003 94.6829 121.209 94.9029 121.458C95.1375 121.693 95.2549 121.986 95.2549 122.338C95.2549 122.734 95.1082 123.049 94.8149 123.284C94.5362 123.504 94.1475 123.614 93.6489 123.614C93.2382 123.614 92.8569 123.541 92.5049 123.394C92.1675 123.233 91.8669 123.02 91.6029 122.756C91.3389 122.492 91.1042 122.206 90.8989 121.898ZM98.0339 114.88V116.53H103.094V114.88H98.0339ZM99.6839 111.36V125H101.444V111.36H99.6839ZM106.839 114.88H105.079V125H106.839V114.88ZM109.897 116.816L110.865 115.364C110.601 115.085 110.308 114.902 109.985 114.814C109.677 114.711 109.34 114.66 108.973 114.66C108.504 114.66 108.042 114.843 107.587 115.21C107.132 115.577 106.758 116.075 106.465 116.706C106.186 117.322 106.047 118.033 106.047 118.84H106.839C106.839 118.356 106.883 117.923 106.971 117.542C107.074 117.161 107.25 116.86 107.499 116.64C107.748 116.42 108.093 116.31 108.533 116.31C108.826 116.31 109.068 116.354 109.259 116.442C109.45 116.515 109.662 116.64 109.897 116.816ZM113.632 121.876C113.632 121.509 113.72 121.194 113.896 120.93C114.072 120.666 114.336 120.461 114.688 120.314C115.055 120.167 115.524 120.094 116.096 120.094C116.712 120.094 117.291 120.175 117.834 120.336C118.377 120.483 118.905 120.732 119.418 121.084V120.05C119.315 119.918 119.117 119.749 118.824 119.544C118.531 119.324 118.135 119.133 117.636 118.972C117.152 118.796 116.543 118.708 115.81 118.708C114.563 118.708 113.588 119.009 112.884 119.61C112.195 120.197 111.85 120.981 111.85 121.964C111.85 122.653 112.011 123.24 112.334 123.724C112.657 124.208 113.082 124.582 113.61 124.846C114.153 125.095 114.732 125.22 115.348 125.22C115.905 125.22 116.463 125.117 117.02 124.912C117.592 124.707 118.069 124.391 118.45 123.966C118.846 123.541 119.044 123.005 119.044 122.36L118.692 121.04C118.692 121.568 118.56 122.037 118.296 122.448C118.047 122.844 117.702 123.152 117.262 123.372C116.837 123.592 116.353 123.702 115.81 123.702C115.385 123.702 115.003 123.636 114.666 123.504C114.343 123.357 114.087 123.145 113.896 122.866C113.72 122.587 113.632 122.257 113.632 121.876ZM113.368 117.212C113.529 117.095 113.749 116.955 114.028 116.794C114.307 116.633 114.644 116.493 115.04 116.376C115.451 116.259 115.905 116.2 116.404 116.2C116.712 116.2 117.005 116.229 117.284 116.288C117.563 116.347 117.805 116.442 118.01 116.574C118.23 116.706 118.399 116.889 118.516 117.124C118.633 117.344 118.692 117.63 118.692 117.982V125H120.452V117.74C120.452 117.08 120.283 116.523 119.946 116.068C119.623 115.613 119.161 115.269 118.56 115.034C117.973 114.785 117.284 114.66 116.492 114.66C115.553 114.66 114.747 114.799 114.072 115.078C113.412 115.357 112.891 115.635 112.51 115.914L113.368 117.212ZM124.444 119.94C124.444 119.236 124.591 118.613 124.884 118.07C125.192 117.513 125.603 117.08 126.116 116.772C126.644 116.464 127.238 116.31 127.898 116.31C128.441 116.31 128.947 116.398 129.416 116.574C129.9 116.735 130.318 116.955 130.67 117.234C131.022 117.513 131.271 117.821 131.418 118.158V115.958C131.066 115.547 130.56 115.232 129.9 115.012C129.255 114.777 128.587 114.66 127.898 114.66C126.915 114.66 126.028 114.887 125.236 115.342C124.444 115.797 123.813 116.42 123.344 117.212C122.889 118.004 122.662 118.913 122.662 119.94C122.662 120.952 122.889 121.861 123.344 122.668C123.813 123.46 124.444 124.083 125.236 124.538C126.028 124.993 126.915 125.22 127.898 125.22C128.587 125.22 129.255 125.11 129.9 124.89C130.56 124.655 131.066 124.333 131.418 123.922V121.722C131.271 122.045 131.022 122.353 130.67 122.646C130.318 122.925 129.9 123.152 129.416 123.328C128.947 123.489 128.441 123.57 127.898 123.57C127.238 123.57 126.644 123.416 126.116 123.108C125.603 122.785 125.192 122.353 124.884 121.81C124.591 121.267 124.444 120.644 124.444 119.94ZM132.838 114.88V116.53H137.898V114.88H132.838ZM134.488 111.36V125H136.248V111.36H134.488ZM143.799 125.22C144.884 125.22 145.823 125.007 146.615 124.582C147.422 124.142 148.089 123.497 148.617 122.646L147.187 121.744C146.82 122.36 146.373 122.822 145.845 123.13C145.317 123.423 144.708 123.57 144.019 123.57C143.33 123.57 142.743 123.423 142.259 123.13C141.775 122.837 141.408 122.411 141.159 121.854C140.91 121.297 140.785 120.622 140.785 119.83C140.8 119.053 140.932 118.4 141.181 117.872C141.445 117.329 141.812 116.919 142.281 116.64C142.765 116.347 143.344 116.2 144.019 116.2C144.591 116.2 145.09 116.325 145.515 116.574C145.94 116.823 146.27 117.168 146.505 117.608C146.754 118.048 146.879 118.569 146.879 119.17C146.879 119.273 146.857 119.405 146.813 119.566C146.769 119.713 146.725 119.823 146.681 119.896L147.385 118.884H140.125V120.38H148.771C148.771 120.351 148.771 120.285 148.771 120.182C148.786 120.065 148.793 119.955 148.793 119.852C148.793 118.781 148.602 117.857 148.221 117.08C147.84 116.303 147.29 115.709 146.571 115.298C145.867 114.873 145.016 114.66 144.019 114.66C143.022 114.66 142.142 114.88 141.379 115.32C140.631 115.76 140.044 116.376 139.619 117.168C139.208 117.96 139.003 118.884 139.003 119.94C139.003 120.981 139.201 121.898 139.597 122.69C140.008 123.482 140.572 124.105 141.291 124.56C142.024 125 142.86 125.22 143.799 125.22ZM159.015 107.84V125H160.775V107.84H159.015ZM150.545 119.94C150.545 121.025 150.772 121.964 151.227 122.756C151.682 123.548 152.29 124.157 153.053 124.582C153.816 125.007 154.652 125.22 155.561 125.22C156.412 125.22 157.152 125.007 157.783 124.582C158.414 124.157 158.905 123.548 159.257 122.756C159.624 121.964 159.807 121.025 159.807 119.94C159.807 118.84 159.624 117.901 159.257 117.124C158.905 116.332 158.414 115.723 157.783 115.298C157.152 114.873 156.412 114.66 155.561 114.66C154.652 114.66 153.816 114.873 153.053 115.298C152.29 115.723 151.682 116.332 151.227 117.124C150.772 117.901 150.545 118.84 150.545 119.94ZM152.327 119.94C152.327 119.163 152.481 118.503 152.789 117.96C153.112 117.417 153.537 117.007 154.065 116.728C154.593 116.449 155.165 116.31 155.781 116.31C156.294 116.31 156.8 116.449 157.299 116.728C157.798 117.007 158.208 117.417 158.531 117.96C158.854 118.503 159.015 119.163 159.015 119.94C159.015 120.717 158.854 121.377 158.531 121.92C158.208 122.463 157.798 122.873 157.299 123.152C156.8 123.431 156.294 123.57 155.781 123.57C155.165 123.57 154.593 123.431 154.065 123.152C153.537 122.873 153.112 122.463 152.789 121.92C152.481 121.377 152.327 120.717 152.327 119.94ZM171.008 107.84V125H172.768V107.84H171.008ZM175.418 119.94C175.418 120.952 175.645 121.861 176.1 122.668C176.569 123.46 177.2 124.083 177.992 124.538C178.784 124.993 179.671 125.22 180.654 125.22C181.651 125.22 182.539 124.993 183.316 124.538C184.108 124.083 184.731 123.46 185.186 122.668C185.655 121.861 185.89 120.952 185.89 119.94C185.89 118.913 185.655 118.004 185.186 117.212C184.731 116.42 184.108 115.797 183.316 115.342C182.539 114.887 181.651 114.66 180.654 114.66C179.671 114.66 178.784 114.887 177.992 115.342C177.2 115.797 176.569 116.42 176.1 117.212C175.645 118.004 175.418 118.913 175.418 119.94ZM177.2 119.94C177.2 119.236 177.347 118.613 177.64 118.07C177.948 117.513 178.359 117.08 178.872 116.772C179.4 116.464 179.994 116.31 180.654 116.31C181.314 116.31 181.901 116.464 182.414 116.772C182.942 117.08 183.353 117.513 183.646 118.07C183.954 118.613 184.108 119.236 184.108 119.94C184.108 120.644 183.954 121.267 183.646 121.81C183.353 122.353 182.942 122.785 182.414 123.108C181.901 123.416 181.314 123.57 180.654 123.57C179.994 123.57 179.4 123.416 178.872 123.108C178.359 122.785 177.948 122.353 177.64 121.81C177.347 121.267 177.2 120.644 177.2 119.94ZM187.648 119.94C187.648 120.952 187.875 121.861 188.33 122.668C188.799 123.46 189.43 124.083 190.222 124.538C191.014 124.993 191.901 125.22 192.884 125.22C193.881 125.22 194.768 124.993 195.546 124.538C196.338 124.083 196.961 123.46 197.416 122.668C197.885 121.861 198.12 120.952 198.12 119.94C198.12 118.913 197.885 118.004 197.416 117.212C196.961 116.42 196.338 115.797 195.546 115.342C194.768 114.887 193.881 114.66 192.884 114.66C191.901 114.66 191.014 114.887 190.222 115.342C189.43 115.797 188.799 116.42 188.33 117.212C187.875 118.004 187.648 118.913 187.648 119.94ZM189.43 119.94C189.43 119.236 189.576 118.613 189.87 118.07C190.178 117.513 190.588 117.08 191.102 116.772C191.63 116.464 192.224 116.31 192.884 116.31C193.544 116.31 194.13 116.464 194.644 116.772C195.172 117.08 195.582 117.513 195.876 118.07C196.184 118.613 196.338 119.236 196.338 119.94C196.338 120.644 196.184 121.267 195.876 121.81C195.582 122.353 195.172 122.785 194.644 123.108C194.13 123.416 193.544 123.57 192.884 123.57C192.224 123.57 191.63 123.416 191.102 123.108C190.588 122.785 190.178 122.353 189.87 121.81C189.576 121.267 189.43 120.644 189.43 119.94ZM200.648 107.84V125H202.408V107.84H200.648ZM206.148 114.88L201.748 119.06L206.588 125H208.788L203.948 119.06L208.348 114.88H206.148ZM210.667 110.7C210.667 111.023 210.784 111.309 211.019 111.558C211.268 111.793 211.554 111.91 211.877 111.91C212.214 111.91 212.5 111.793 212.735 111.558C212.97 111.309 213.087 111.023 213.087 110.7C213.087 110.363 212.97 110.077 212.735 109.842C212.5 109.607 212.214 109.49 211.877 109.49C211.554 109.49 211.268 109.607 211.019 109.842C210.784 110.077 210.667 110.363 210.667 110.7ZM210.997 114.88V125H212.757V114.88H210.997ZM223.092 118.84V125H224.852V118.62C224.852 117.403 224.537 116.442 223.906 115.738C223.29 115.019 222.447 114.66 221.376 114.66C220.716 114.66 220.129 114.807 219.616 115.1C219.117 115.393 218.699 115.848 218.362 116.464V114.88H216.602V125H218.362V118.84C218.362 118.341 218.465 117.901 218.67 117.52C218.89 117.139 219.191 116.845 219.572 116.64C219.968 116.42 220.423 116.31 220.936 116.31C221.64 116.31 222.175 116.523 222.542 116.948C222.909 117.373 223.092 118.004 223.092 118.84ZM227.698 125.66C227.698 126.525 227.911 127.288 228.336 127.948C228.762 128.623 229.348 129.143 230.096 129.51C230.859 129.877 231.732 130.06 232.714 130.06C233.565 130.06 234.372 129.862 235.134 129.466C235.897 129.07 236.52 128.476 237.004 127.684C237.488 126.907 237.73 125.939 237.73 124.78V114.88H235.97V124.78C235.97 125.631 235.802 126.32 235.464 126.848C235.142 127.391 234.731 127.787 234.232 128.036C233.734 128.285 233.228 128.41 232.714 128.41C232.054 128.41 231.482 128.278 230.998 128.014C230.514 127.765 230.14 127.427 229.876 127.002C229.612 126.591 229.48 126.144 229.48 125.66H227.698ZM227.5 119.94C227.5 121.025 227.728 121.964 228.182 122.756C228.637 123.548 229.246 124.157 230.008 124.582C230.771 125.007 231.607 125.22 232.516 125.22C233.367 125.22 234.108 125.007 234.738 124.582C235.369 124.157 235.86 123.548 236.212 122.756C236.579 121.964 236.762 121.025 236.762 119.94C236.762 118.84 236.579 117.901 236.212 117.124C235.86 116.332 235.369 115.723 234.738 115.298C234.108 114.873 233.367 114.66 232.516 114.66C231.607 114.66 230.771 114.873 230.008 115.298C229.246 115.723 228.637 116.332 228.182 117.124C227.728 117.901 227.5 118.84 227.5 119.94ZM229.282 119.94C229.282 119.163 229.436 118.503 229.744 117.96C230.067 117.417 230.492 117.007 231.02 116.728C231.548 116.449 232.12 116.31 232.736 116.31C233.118 116.31 233.499 116.391 233.88 116.552C234.262 116.713 234.606 116.948 234.914 117.256C235.237 117.564 235.494 117.945 235.684 118.4C235.875 118.84 235.97 119.353 235.97 119.94C235.97 120.717 235.809 121.377 235.486 121.92C235.164 122.463 234.753 122.873 234.254 123.152C233.756 123.431 233.25 123.57 232.736 123.57C232.12 123.57 231.548 123.431 231.02 123.152C230.492 122.873 230.067 122.463 229.744 121.92C229.436 121.377 229.282 120.717 229.282 119.94ZM241.565 121.898L240.179 122.756C240.37 123.152 240.649 123.541 241.015 123.922C241.397 124.303 241.859 124.619 242.401 124.868C242.944 125.103 243.553 125.22 244.227 125.22C245.269 125.22 246.105 124.927 246.735 124.34C247.381 123.753 247.703 123.02 247.703 122.14C247.703 121.539 247.557 121.047 247.263 120.666C246.985 120.285 246.603 119.962 246.119 119.698C245.635 119.419 245.1 119.163 244.513 118.928C244.161 118.781 243.824 118.627 243.501 118.466C243.179 118.305 242.915 118.121 242.709 117.916C242.504 117.711 242.401 117.476 242.401 117.212C242.401 116.875 242.533 116.625 242.797 116.464C243.061 116.303 243.377 116.222 243.743 116.222C244.271 116.222 244.741 116.347 245.151 116.596C245.577 116.845 245.929 117.161 246.207 117.542L247.615 116.64C247.41 116.259 247.124 115.921 246.757 115.628C246.391 115.335 245.965 115.1 245.481 114.924C245.012 114.748 244.506 114.66 243.963 114.66C243.421 114.66 242.893 114.755 242.379 114.946C241.881 115.137 241.47 115.43 241.147 115.826C240.839 116.222 240.685 116.721 240.685 117.322C240.685 117.909 240.832 118.4 241.125 118.796C241.433 119.177 241.807 119.493 242.247 119.742C242.702 119.977 243.149 120.182 243.589 120.358C243.985 120.505 244.359 120.666 244.711 120.842C245.063 121.003 245.349 121.209 245.569 121.458C245.804 121.693 245.921 121.986 245.921 122.338C245.921 122.734 245.775 123.049 245.481 123.284C245.203 123.504 244.814 123.614 244.315 123.614C243.905 123.614 243.523 123.541 243.171 123.394C242.834 123.233 242.533 123.02 242.269 122.756C242.005 122.492 241.771 122.206 241.565 121.898ZM250.68 124.12C250.68 124.443 250.798 124.729 251.032 124.978C251.282 125.213 251.568 125.33 251.89 125.33C252.228 125.33 252.514 125.213 252.748 124.978C252.983 124.729 253.1 124.443 253.1 124.12C253.1 123.783 252.983 123.497 252.748 123.262C252.514 123.027 252.228 122.91 251.89 122.91C251.568 122.91 251.282 123.027 251.032 123.262C250.798 123.497 250.68 123.783 250.68 124.12Z" fill="#4D5053"/>
<path d="M16.6367 172.594C17.3398 172.066 17.9727 171.434 18.4648 170.695C17.832 170.977 17.0938 171.188 16.3555 171.258C17.1289 170.801 17.6914 170.098 17.9727 169.219C17.2695 169.641 16.4609 169.957 15.6523 170.133C14.9492 169.395 14 168.973 12.9453 168.973C10.9062 168.973 9.25391 170.625 9.25391 172.664C9.25391 172.945 9.28906 173.227 9.35938 173.508C6.30078 173.332 3.55859 171.855 1.73047 169.641C1.41406 170.168 1.23828 170.801 1.23828 171.504C1.23828 172.77 1.87109 173.895 2.89062 174.562C2.29297 174.527 1.69531 174.387 1.20312 174.105V174.141C1.20312 175.934 2.46875 177.41 4.15625 177.762C3.875 177.832 3.52344 177.902 3.20703 177.902C2.96094 177.902 2.75 177.867 2.50391 177.832C2.96094 179.309 4.33203 180.363 5.94922 180.398C4.68359 181.383 3.10156 181.98 1.37891 181.98C1.0625 181.98 0.78125 181.945 0.5 181.91C2.11719 182.965 4.05078 183.562 6.16016 183.562C12.9453 183.562 16.6367 177.973 16.6367 173.086C16.6367 172.91 16.6367 172.77 16.6367 172.594Z" fill="#292F36"/>
<path d="M76.1406 183V172.488H72.8711V183H76.1406ZM74.4883 171.082C75.543 171.082 76.3867 170.203 76.3867 169.148C76.3867 168.129 75.543 167.285 74.4883 167.285C73.4688 167.285 72.625 168.129 72.625 169.148C72.625 170.203 73.4688 171.082 74.4883 171.082ZM88.3398 183H88.375V177.234C88.375 174.422 87.7422 172.242 84.4375 172.242C82.8555 172.242 81.8008 173.121 81.3438 173.93H81.3086V172.488H78.1797V183H81.4492V177.797C81.4492 176.426 81.6953 175.125 83.3828 175.125C85.0703 175.125 85.1055 176.672 85.1055 177.902V183H88.3398Z" fill="#292F36"/>
</svg>
