<svg width="250" height="34" viewBox="0 0 250 34" fill="none" xmlns="http://www.w3.org/2000/svg">
<path d="M0.1 33V32.5L1.15 32.1C1.85 31.8333 2.28333 31.5167 2.45 31.15C2.65 30.75 2.75 30.2167 2.75 29.55V3.45C2.75 2.78333 2.65 2.25 2.45 1.85C2.25 1.45 1.81667 1.13333 1.15 0.899999L0.1 0.499998V-1.3113e-06H12.85V0.499998L11.95 0.899999C11.3167 1.13333 10.8833 1.46666 10.65 1.9C10.4167 2.3 10.3 2.83333 10.3 3.5V32H18C19.2333 32 20.1333 31.7 20.7 31.1C21.3 30.5 21.8667 29.6333 22.4 28.5L24.35 24.3H24.85L24.4 33H0.1ZM35.302 33.75C33.3686 33.75 31.7353 33.2 30.402 32.1C29.102 31 28.452 29.4167 28.452 27.35C28.452 25.7833 29.252 24.35 30.852 23.05C32.452 21.7167 34.9686 20.7167 38.402 20.05C38.9353 19.95 39.5353 19.85 40.202 19.75C40.8686 19.6167 41.5686 19.4833 42.302 19.35V15.4C42.302 13.1333 42.0186 11.55 41.452 10.65C40.9186 9.71667 40.0686 9.25 38.902 9.25C38.102 9.25 37.4686 9.51667 37.002 10.05C36.5353 10.55 36.2353 11.4333 36.102 12.7L36.002 13.25C35.9353 14.6833 35.5853 15.7333 34.952 16.4C34.3186 17.0667 33.5353 17.4 32.602 17.4C31.7353 17.4 31.0186 17.1333 30.452 16.6C29.8853 16.0667 29.602 15.35 29.602 14.45C29.602 13.0833 30.0686 11.9333 31.002 11C31.9686 10.0667 33.2353 9.36667 34.802 8.9C36.3686 8.43333 38.0686 8.2 39.902 8.2C42.8686 8.2 45.152 8.93333 46.752 10.4C48.3853 11.8333 49.202 14.1833 49.202 17.45V28.5C49.202 30 49.902 30.75 51.302 30.75H52.402L52.852 31.15C52.2186 31.95 51.5186 32.5667 50.752 33C50.0186 33.4333 48.9686 33.65 47.602 33.65C46.1353 33.65 44.9686 33.3167 44.102 32.65C43.2686 31.95 42.7186 31.0333 42.452 29.9C41.452 30.9667 40.4186 31.8833 39.352 32.65C38.3186 33.3833 36.9686 33.75 35.302 33.75ZM38.352 30.7C39.0186 30.7 39.6353 30.55 40.202 30.25C40.802 29.9167 41.502 29.4167 42.302 28.75V20.35C41.9686 20.4167 41.6353 20.4833 41.302 20.55C40.9686 20.6167 40.5853 20.6833 40.152 20.75C38.6186 21.15 37.3853 21.8333 36.452 22.8C35.552 23.7333 35.102 25 35.102 26.6C35.102 27.9667 35.4186 29 36.052 29.7C36.6853 30.3667 37.452 30.7 38.352 30.7ZM64.3809 33.75C62.2475 33.75 60.5809 33.2167 59.3809 32.15C58.2142 31.0833 57.6309 29.3833 57.6309 27.05V9.95H54.1809V9.45L55.3809 9.25C56.4142 9.01667 57.2975 8.68333 58.0309 8.25C58.7975 7.81667 59.5475 7.23333 60.2809 6.5L64.3809 1.95H64.8809L64.7309 8.95H70.3309V9.95H64.6809V27.95C64.6809 29.1167 64.9309 30 65.4309 30.6C65.9642 31.2 66.6309 31.5 67.4309 31.5C68.1309 31.5 68.7475 31.3333 69.2809 31C69.8142 30.6333 70.3475 30.15 70.8809 29.55L71.3809 30.05C70.7142 31.1833 69.7975 32.0833 68.6309 32.75C67.4642 33.4167 66.0475 33.75 64.3809 33.75ZM86.3508 8.2C88.5174 8.2 90.3674 8.65 91.9008 9.55C93.4341 10.4167 94.6008 11.6167 95.4008 13.15C96.2341 14.65 96.6508 16.3667 96.6508 18.3C96.6508 18.6667 96.6341 19.05 96.6008 19.45C96.5674 19.8167 96.5008 20.15 96.4008 20.45H81.5008C81.5341 24.05 82.1674 26.65 83.4008 28.25C84.6674 29.8167 86.5341 30.6 89.0008 30.6C90.6674 30.6 92.0174 30.3333 93.0508 29.8C94.0841 29.2667 95.0508 28.4833 95.9508 27.45L96.4508 27.9C95.4174 29.7333 94.0341 31.1667 92.3008 32.2C90.6008 33.2333 88.5508 33.75 86.1508 33.75C83.7841 33.75 81.6841 33.25 79.8508 32.25C78.0174 31.2167 76.5841 29.75 75.5508 27.85C74.5174 25.95 74.0008 23.6833 74.0008 21.05C74.0008 18.3167 74.6008 16 75.8008 14.1C77.0008 12.1667 78.5341 10.7 80.4008 9.7C82.3008 8.7 84.2841 8.2 86.3508 8.2ZM86.2008 9.2C85.2341 9.2 84.4008 9.5 83.7008 10.1C83.0341 10.6667 82.5008 11.7 82.1008 13.2C81.7341 14.6667 81.5341 16.75 81.5008 19.45H90.0508C90.3841 15.8167 90.2508 13.2 89.6508 11.6C89.0508 10 87.9008 9.2 86.2008 9.2ZM108.793 33.75C107.159 33.75 105.693 33.55 104.393 33.15C103.093 32.7833 101.893 32.3167 100.793 31.75L100.843 25.8H101.343L103.043 28.8C103.776 30.1333 104.576 31.1333 105.443 31.8C106.343 32.4333 107.476 32.75 108.843 32.75C110.443 32.75 111.726 32.4 112.693 31.7C113.693 30.9667 114.193 30 114.193 28.8C114.193 27.7 113.843 26.8 113.143 26.1C112.443 25.4 111.143 24.7667 109.243 24.2L107.143 23.55C105.109 22.95 103.509 22.0167 102.343 20.75C101.176 19.4833 100.593 17.9333 100.593 16.1C100.593 13.9 101.459 12.0333 103.193 10.5C104.926 8.96667 107.409 8.2 110.643 8.2C111.943 8.2 113.159 8.35 114.293 8.65C115.459 8.91667 116.576 9.33333 117.643 9.9L117.343 15.3H116.843L115.093 12.2C114.459 11.1 113.826 10.3333 113.193 9.9C112.593 9.43333 111.676 9.2 110.443 9.2C109.309 9.2 108.243 9.51667 107.243 10.15C106.243 10.7833 105.743 11.6833 105.743 12.85C105.743 13.9833 106.159 14.8833 106.993 15.55C107.859 16.2167 109.126 16.8333 110.793 17.4L113.043 18.05C115.443 18.7833 117.159 19.8 118.193 21.1C119.226 22.3667 119.743 23.9 119.743 25.7C119.743 28.1333 118.776 30.0833 116.843 31.55C114.943 33.0167 112.259 33.75 108.793 33.75ZM132.42 33.75C130.287 33.75 128.62 33.2167 127.42 32.15C126.253 31.0833 125.67 29.3833 125.67 27.05V9.95H122.22V9.45L123.42 9.25C124.453 9.01667 125.337 8.68333 126.07 8.25C126.837 7.81667 127.587 7.23333 128.32 6.5L132.42 1.95H132.92L132.77 8.95H138.37V9.95H132.72V27.95C132.72 29.1167 132.97 30 133.47 30.6C134.003 31.2 134.67 31.5 135.47 31.5C136.17 31.5 136.787 31.3333 137.32 31C137.853 30.6333 138.387 30.15 138.92 29.55L139.42 30.05C138.753 31.1833 137.837 32.0833 136.67 32.75C135.503 33.4167 134.087 33.75 132.42 33.75ZM153.975 33V32.5L154.975 32.15C155.642 31.95 156.075 31.65 156.275 31.25C156.508 30.85 156.625 30.3167 156.625 29.65V3.45C156.625 2.78333 156.508 2.25 156.275 1.85C156.042 1.45 155.592 1.13333 154.925 0.899999L153.975 0.499998V-1.3113e-06H166.125C171.092 -1.3113e-06 174.675 0.916665 176.875 2.75C179.108 4.55 180.225 6.93333 180.225 9.9C180.225 11.8 179.758 13.55 178.825 15.15C177.925 16.7167 176.425 17.9667 174.325 18.9C172.225 19.8333 169.392 20.3 165.825 20.3H164.125V29.5C164.125 30.8 164.775 31.65 166.075 32.05L167.575 32.5V33H153.975ZM164.125 19.3H166.025C167.658 19.3 168.992 19.0333 170.025 18.5C171.058 17.9667 171.825 17.0333 172.325 15.7C172.825 14.3667 173.075 12.5167 173.075 10.15C173.075 7.75 172.792 5.88333 172.225 4.55C171.692 3.21667 170.892 2.3 169.825 1.8C168.758 1.26666 167.425 0.999998 165.825 0.999998H164.125V19.3ZM194.82 33.75C192.287 33.75 190.087 33.2333 188.22 32.2C186.353 31.1333 184.903 29.6333 183.87 27.7C182.87 25.7667 182.37 23.5 182.37 20.9C182.37 18.3 182.903 16.05 183.97 14.15C185.07 12.25 186.553 10.7833 188.42 9.75C190.32 8.71667 192.453 8.2 194.82 8.2C197.187 8.2 199.303 8.71667 201.17 9.75C203.037 10.75 204.503 12.2 205.57 14.1C206.67 16 207.22 18.2667 207.22 20.9C207.22 23.5333 206.703 25.8167 205.67 27.75C204.67 29.65 203.237 31.1333 201.37 32.2C199.537 33.2333 197.353 33.75 194.82 33.75ZM194.82 32.75C195.987 32.75 196.92 32.4167 197.62 31.75C198.32 31.0833 198.82 29.9 199.12 28.2C199.453 26.5 199.62 24.1 199.62 21C199.62 17.8667 199.453 15.45 199.12 13.75C198.82 12.05 198.32 10.8667 197.62 10.2C196.92 9.53333 195.987 9.2 194.82 9.2C193.653 9.2 192.703 9.53333 191.97 10.2C191.27 10.8667 190.753 12.05 190.42 13.75C190.12 15.45 189.97 17.8667 189.97 21C189.97 24.1 190.12 26.5 190.42 28.2C190.753 29.9 191.27 31.0833 191.97 31.75C192.703 32.4167 193.653 32.75 194.82 32.75ZM219.066 33.75C217.433 33.75 215.966 33.55 214.666 33.15C213.366 32.7833 212.166 32.3167 211.066 31.75L211.116 25.8H211.616L213.316 28.8C214.049 30.1333 214.849 31.1333 215.716 31.8C216.616 32.4333 217.749 32.75 219.116 32.75C220.716 32.75 221.999 32.4 222.966 31.7C223.966 30.9667 224.466 30 224.466 28.8C224.466 27.7 224.116 26.8 223.416 26.1C222.716 25.4 221.416 24.7667 219.516 24.2L217.416 23.55C215.383 22.95 213.783 22.0167 212.616 20.75C211.449 19.4833 210.866 17.9333 210.866 16.1C210.866 13.9 211.733 12.0333 213.466 10.5C215.199 8.96667 217.683 8.2 220.916 8.2C222.216 8.2 223.433 8.35 224.566 8.65C225.733 8.91667 226.849 9.33333 227.916 9.9L227.616 15.3H227.116L225.366 12.2C224.733 11.1 224.099 10.3333 223.466 9.9C222.866 9.43333 221.949 9.2 220.716 9.2C219.583 9.2 218.516 9.51667 217.516 10.15C216.516 10.7833 216.016 11.6833 216.016 12.85C216.016 13.9833 216.433 14.8833 217.266 15.55C218.133 16.2167 219.399 16.8333 221.066 17.4L223.316 18.05C225.716 18.7833 227.433 19.8 228.466 21.1C229.499 22.3667 230.016 23.9 230.016 25.7C230.016 28.1333 229.049 30.0833 227.116 31.55C225.216 33.0167 222.533 33.75 219.066 33.75ZM242.693 33.75C240.56 33.75 238.893 33.2167 237.693 32.15C236.527 31.0833 235.943 29.3833 235.943 27.05V9.95H232.493V9.45L233.693 9.25C234.727 9.01667 235.61 8.68333 236.343 8.25C237.11 7.81667 237.86 7.23333 238.593 6.5L242.693 1.95H243.193L243.043 8.95H248.643V9.95H242.993V27.95C242.993 29.1167 243.243 30 243.743 30.6C244.277 31.2 244.943 31.5 245.743 31.5C246.443 31.5 247.06 31.3333 247.593 31C248.127 30.6333 248.66 30.15 249.193 29.55L249.693 30.05C249.027 31.1833 248.11 32.0833 246.943 32.75C245.777 33.4167 244.36 33.75 242.693 33.75Z" fill="#292F36"/>
</svg>
