<svg width="624" height="26" viewBox="0 0 624 26" fill="none" xmlns="http://www.w3.org/2000/svg">
<path d="M383.623 12.7V11.1H393.223V12.7H383.623ZM392.083 5.5H393.783V19.5H392.083V5.5ZM382.683 5.5H384.383V19.5H382.683V5.5ZM396.08 14.9C396.08 13.9667 396.287 13.14 396.7 12.42C397.127 11.7 397.7 11.1333 398.42 10.72C399.14 10.3067 399.947 10.1 400.84 10.1C401.747 10.1 402.554 10.3067 403.26 10.72C403.98 11.1333 404.547 11.7 404.96 12.42C405.387 13.14 405.6 13.9667 405.6 14.9C405.6 15.82 405.387 16.6467 404.96 17.38C404.547 18.1 403.98 18.6667 403.26 19.08C402.554 19.4933 401.747 19.7 400.84 19.7C399.947 19.7 399.14 19.4933 398.42 19.08C397.7 18.6667 397.127 18.1 396.7 17.38C396.287 16.6467 396.08 15.82 396.08 14.9ZM397.7 14.9C397.7 15.54 397.834 16.1067 398.1 16.6C398.38 17.0933 398.754 17.4867 399.22 17.78C399.7 18.06 400.24 18.2 400.84 18.2C401.44 18.2 401.974 18.06 402.44 17.78C402.92 17.4867 403.294 17.0933 403.56 16.6C403.84 16.1067 403.98 15.54 403.98 14.9C403.98 14.26 403.84 13.6933 403.56 13.2C403.294 12.6933 402.92 12.3 402.44 12.02C401.974 11.74 401.44 11.6 400.84 11.6C400.24 11.6 399.7 11.74 399.22 12.02C398.754 12.3 398.38 12.6933 398.1 13.2C397.834 13.6933 397.7 14.26 397.7 14.9ZM420.398 13.7V19.5H418.798V13.9C418.798 13.1133 418.651 12.5333 418.358 12.16C418.078 11.7867 417.638 11.6 417.038 11.6C416.598 11.6 416.218 11.6933 415.898 11.88C415.578 12.0533 415.331 12.3133 415.158 12.66C414.985 13.0067 414.898 13.42 414.898 13.9V19.5H413.298V13.9C413.298 13.1133 413.151 12.5333 412.858 12.16C412.578 11.7867 412.138 11.6 411.538 11.6C411.098 11.6 410.718 11.6933 410.398 11.88C410.078 12.0533 409.831 12.3133 409.658 12.66C409.485 13.0067 409.398 13.42 409.398 13.9V19.5H407.798V10.3H409.398V11.64C409.678 11.12 410.025 10.7333 410.438 10.48C410.865 10.2267 411.365 10.1 411.938 10.1C412.578 10.1 413.125 10.2533 413.578 10.56C414.045 10.8533 414.385 11.2733 414.598 11.82C414.918 11.2467 415.318 10.82 415.798 10.54C416.278 10.2467 416.825 10.1 417.438 10.1C418.065 10.1 418.598 10.24 419.038 10.52C419.478 10.8 419.811 11.2133 420.038 11.76C420.278 12.2933 420.398 12.94 420.398 13.7ZM426.964 19.7C426.11 19.7 425.35 19.5 424.684 19.1C424.03 18.6867 423.517 18.12 423.144 17.4C422.784 16.68 422.604 15.8467 422.604 14.9C422.604 13.94 422.79 13.1 423.164 12.38C423.55 11.66 424.084 11.1 424.764 10.7C425.457 10.3 426.257 10.1 427.164 10.1C428.07 10.1 428.844 10.2933 429.484 10.68C430.137 11.0533 430.637 11.5933 430.984 12.3C431.33 13.0067 431.504 13.8467 431.504 14.82C431.504 14.9133 431.497 15.0133 431.484 15.12C431.484 15.2133 431.484 15.2733 431.484 15.3H423.624V13.94H430.224L429.584 14.86C429.624 14.7933 429.664 14.6933 429.704 14.56C429.744 14.4133 429.764 14.2933 429.764 14.2C429.764 13.6533 429.65 13.18 429.424 12.78C429.21 12.38 428.91 12.0667 428.524 11.84C428.137 11.6133 427.684 11.5 427.164 11.5C426.55 11.5 426.024 11.6333 425.584 11.9C425.157 12.1533 424.824 12.5267 424.584 13.02C424.357 13.5 424.237 14.0933 424.224 14.8C424.224 15.52 424.337 16.1333 424.564 16.64C424.79 17.1467 425.124 17.5333 425.564 17.8C426.004 18.0667 426.537 18.2 427.164 18.2C427.79 18.2 428.344 18.0667 428.824 17.8C429.304 17.52 429.71 17.1 430.044 16.54L431.344 17.36C430.864 18.1333 430.257 18.72 429.524 19.12C428.804 19.5067 427.95 19.7 426.964 19.7ZM481.765 5.5H483.465V19.5H481.765V5.5ZM482.705 7.1V5.5H485.565C486.472 5.5 487.279 5.67333 487.985 6.02C488.705 6.35333 489.272 6.83333 489.685 7.46C490.112 8.08667 490.325 8.83333 490.325 9.7C490.325 10.5533 490.112 11.3 489.685 11.94C489.272 12.5667 488.705 13.0533 487.985 13.4C487.279 13.7333 486.472 13.9 485.565 13.9H482.705V12.3H485.565C486.472 12.3 487.205 12.08 487.765 11.64C488.339 11.2 488.625 10.5533 488.625 9.7C488.625 8.83333 488.339 8.18667 487.765 7.76C487.205 7.32 486.472 7.1 485.565 7.1H482.705ZM493.832 10.3V19.5H492.232V10.3H493.832ZM496.612 12.06C496.398 11.9 496.205 11.7867 496.032 11.72C495.858 11.64 495.638 11.6 495.372 11.6C494.972 11.6 494.658 11.7 494.432 11.9C494.205 12.1 494.045 12.3733 493.952 12.72C493.872 13.0667 493.832 13.46 493.832 13.9H493.112C493.112 13.1667 493.238 12.52 493.492 11.96C493.758 11.3867 494.098 10.9333 494.512 10.6C494.925 10.2667 495.345 10.1 495.772 10.1C496.105 10.1 496.412 10.1467 496.692 10.24C496.985 10.32 497.252 10.4867 497.492 10.74L496.612 12.06ZM497.994 14.9C497.994 13.9667 498.201 13.14 498.614 12.42C499.041 11.7 499.614 11.1333 500.334 10.72C501.054 10.3067 501.861 10.1 502.754 10.1C503.661 10.1 504.468 10.3067 505.174 10.72C505.894 11.1333 506.461 11.7 506.874 12.42C507.301 13.14 507.514 13.9667 507.514 14.9C507.514 15.82 507.301 16.6467 506.874 17.38C506.461 18.1 505.894 18.6667 505.174 19.08C504.468 19.4933 503.661 19.7 502.754 19.7C501.861 19.7 501.054 19.4933 500.334 19.08C499.614 18.6667 499.041 18.1 498.614 17.38C498.201 16.6467 497.994 15.82 497.994 14.9ZM499.614 14.9C499.614 15.54 499.748 16.1067 500.014 16.6C500.294 17.0933 500.668 17.4867 501.134 17.78C501.614 18.06 502.154 18.2 502.754 18.2C503.354 18.2 503.888 18.06 504.354 17.78C504.834 17.4867 505.208 17.0933 505.474 16.6C505.754 16.1067 505.894 15.54 505.894 14.9C505.894 14.26 505.754 13.6933 505.474 13.2C505.208 12.6933 504.834 12.3 504.354 12.02C503.888 11.74 503.354 11.6 502.754 11.6C502.154 11.6 501.614 11.74 501.134 12.02C500.668 12.3 500.294 12.6933 500.014 13.2C499.748 13.6933 499.614 14.26 499.614 14.9ZM509.452 6.5C509.452 6.19333 509.559 5.94 509.772 5.74C509.986 5.52667 510.239 5.42 510.532 5.42C510.839 5.42 511.092 5.52667 511.292 5.74C511.506 5.94 511.612 6.19333 511.612 6.5C511.612 6.79333 511.506 7.04667 511.292 7.26C511.092 7.47333 510.839 7.58 510.532 7.58C510.239 7.58 509.986 7.47333 509.772 7.26C509.559 7.04667 509.452 6.79333 509.452 6.5ZM507.872 21.78C507.979 21.94 508.112 22.0667 508.272 22.16C508.446 22.2533 508.639 22.3 508.852 22.3C509.079 22.3 509.259 22.24 509.392 22.12C509.539 22 509.646 21.8067 509.712 21.54C509.779 21.2733 509.812 20.9267 509.812 20.5V10.3H511.412V20.7C511.412 21.3667 511.306 21.94 511.092 22.42C510.892 22.9 510.592 23.2667 510.192 23.52C509.792 23.7733 509.312 23.9 508.752 23.9C508.486 23.9 508.246 23.8667 508.032 23.8C507.819 23.7467 507.626 23.66 507.452 23.54C507.279 23.42 507.126 23.2733 506.992 23.1L507.872 21.78ZM518.272 19.7C517.419 19.7 516.659 19.5 515.992 19.1C515.339 18.6867 514.826 18.12 514.452 17.4C514.092 16.68 513.912 15.8467 513.912 14.9C513.912 13.94 514.099 13.1 514.472 12.38C514.859 11.66 515.392 11.1 516.072 10.7C516.766 10.3 517.566 10.1 518.472 10.1C519.379 10.1 520.152 10.2933 520.792 10.68C521.446 11.0533 521.946 11.5933 522.292 12.3C522.639 13.0067 522.812 13.8467 522.812 14.82C522.812 14.9133 522.806 15.0133 522.792 15.12C522.792 15.2133 522.792 15.2733 522.792 15.3H514.932V13.94H521.532L520.892 14.86C520.932 14.7933 520.972 14.6933 521.012 14.56C521.052 14.4133 521.072 14.2933 521.072 14.2C521.072 13.6533 520.959 13.18 520.732 12.78C520.519 12.38 520.219 12.0667 519.832 11.84C519.446 11.6133 518.992 11.5 518.472 11.5C517.859 11.5 517.332 11.6333 516.892 11.9C516.466 12.1533 516.132 12.5267 515.892 13.02C515.666 13.5 515.546 14.0933 515.532 14.8C515.532 15.52 515.646 16.1333 515.872 16.64C516.099 17.1467 516.432 17.5333 516.872 17.8C517.312 18.0667 517.846 18.2 518.472 18.2C519.099 18.2 519.652 18.0667 520.132 17.8C520.612 17.52 521.019 17.1 521.352 16.54L522.652 17.36C522.172 18.1333 521.566 18.72 520.832 19.12C520.112 19.5067 519.259 19.7 518.272 19.7ZM525.725 14.9C525.725 15.54 525.859 16.1067 526.125 16.6C526.405 17.0933 526.779 17.4867 527.245 17.78C527.725 18.06 528.265 18.2 528.865 18.2C529.359 18.2 529.819 18.1267 530.245 17.98C530.685 17.82 531.065 17.6133 531.385 17.36C531.705 17.0933 531.932 16.8133 532.065 16.52V18.52C531.745 18.8933 531.285 19.1867 530.685 19.4C530.099 19.6 529.492 19.7 528.865 19.7C527.972 19.7 527.165 19.4933 526.445 19.08C525.725 18.6667 525.152 18.1 524.725 17.38C524.312 16.6467 524.105 15.82 524.105 14.9C524.105 13.9667 524.312 13.14 524.725 12.42C525.152 11.7 525.725 11.1333 526.445 10.72C527.165 10.3067 527.972 10.1 528.865 10.1C529.492 10.1 530.099 10.2067 530.685 10.42C531.285 10.62 531.745 10.9067 532.065 11.28V13.28C531.932 12.9733 531.705 12.6933 531.385 12.44C531.065 12.1867 530.685 11.9867 530.245 11.84C529.819 11.68 529.359 11.6 528.865 11.6C528.265 11.6 527.725 11.74 527.245 12.02C526.779 12.3 526.405 12.6933 526.125 13.2C525.859 13.6933 525.725 14.26 525.725 14.9ZM533.156 10.3H537.756V11.8H533.156V10.3ZM534.656 7.1H536.256V19.5H534.656V7.1ZM588.769 12.1V11.16H591.029C591.496 11.16 591.916 11.08 592.289 10.92C592.663 10.76 592.956 10.5267 593.169 10.22C593.383 9.91333 593.489 9.54 593.489 9.1C593.489 8.43333 593.256 7.92 592.789 7.56C592.323 7.18667 591.736 7 591.029 7H589.129V18H591.229C591.829 18 592.356 17.8933 592.809 17.68C593.276 17.4667 593.636 17.16 593.889 16.76C594.156 16.36 594.289 15.8733 594.289 15.3C594.289 14.8733 594.216 14.4933 594.069 14.16C593.923 13.8267 593.709 13.5467 593.429 13.32C593.163 13.0933 592.843 12.9267 592.469 12.82C592.096 12.7 591.683 12.64 591.229 12.64H588.769V11.7H591.229C591.909 11.7 592.536 11.7733 593.109 11.92C593.683 12.0667 594.183 12.2933 594.609 12.6C595.049 12.8933 595.389 13.2733 595.629 13.74C595.869 14.2067 595.989 14.76 595.989 15.4C595.989 16.32 595.776 17.0867 595.349 17.7C594.936 18.3 594.369 18.7533 593.649 19.06C592.943 19.3533 592.136 19.5 591.229 19.5H587.429V5.5H591.029C591.869 5.5 592.596 5.62667 593.209 5.88C593.836 6.13333 594.323 6.52 594.669 7.04C595.016 7.54667 595.189 8.2 595.189 9C595.189 9.65333 595.016 10.2133 594.669 10.68C594.323 11.1467 593.836 11.5 593.209 11.74C592.596 11.98 591.869 12.1 591.029 12.1H588.769ZM598.482 3.9H600.082V19.5H598.482V3.9ZM602.291 14.9C602.291 13.9667 602.498 13.14 602.911 12.42C603.338 11.7 603.911 11.1333 604.631 10.72C605.351 10.3067 606.158 10.1 607.051 10.1C607.958 10.1 608.764 10.3067 609.471 10.72C610.191 11.1333 610.758 11.7 611.171 12.42C611.598 13.14 611.811 13.9667 611.811 14.9C611.811 15.82 611.598 16.6467 611.171 17.38C610.758 18.1 610.191 18.6667 609.471 19.08C608.764 19.4933 607.958 19.7 607.051 19.7C606.158 19.7 605.351 19.4933 604.631 19.08C603.911 18.6667 603.338 18.1 602.911 17.38C602.498 16.6467 602.291 15.82 602.291 14.9ZM603.911 14.9C603.911 15.54 604.044 16.1067 604.311 16.6C604.591 17.0933 604.964 17.4867 605.431 17.78C605.911 18.06 606.451 18.2 607.051 18.2C607.651 18.2 608.184 18.06 608.651 17.78C609.131 17.4867 609.504 17.0933 609.771 16.6C610.051 16.1067 610.191 15.54 610.191 14.9C610.191 14.26 610.051 13.6933 609.771 13.2C609.504 12.6933 609.131 12.3 608.651 12.02C608.184 11.74 607.651 11.6 607.051 11.6C606.451 11.6 605.911 11.74 605.431 12.02C604.964 12.3 604.591 12.6933 604.311 13.2C604.044 13.6933 603.911 14.26 603.911 14.9ZM613.389 20.1H615.009C615.009 20.54 615.129 20.9467 615.369 21.32C615.609 21.7067 615.949 22.0133 616.389 22.24C616.829 22.48 617.349 22.6 617.949 22.6C618.416 22.6 618.876 22.4867 619.329 22.26C619.782 22.0333 620.156 21.6733 620.449 21.18C620.756 20.7 620.909 20.0733 620.909 19.3V10.3H622.509V19.3C622.509 20.3533 622.289 21.2333 621.849 21.94C621.409 22.66 620.842 23.2 620.149 23.56C619.456 23.92 618.722 24.1 617.949 24.1C617.056 24.1 616.262 23.9333 615.569 23.6C614.889 23.2667 614.356 22.7933 613.969 22.18C613.582 21.58 613.389 20.8867 613.389 20.1ZM613.209 14.9C613.209 13.9 613.416 13.0467 613.829 12.34C614.242 11.62 614.796 11.0667 615.489 10.68C616.182 10.2933 616.942 10.1 617.769 10.1C618.542 10.1 619.216 10.2933 619.789 10.68C620.362 11.0667 620.809 11.62 621.129 12.34C621.462 13.0467 621.629 13.9 621.629 14.9C621.629 15.8867 621.462 16.74 621.129 17.46C620.809 18.18 620.362 18.7333 619.789 19.12C619.216 19.5067 618.542 19.7 617.769 19.7C616.942 19.7 616.182 19.5067 615.489 19.12C614.796 18.7333 614.242 18.18 613.829 17.46C613.416 16.74 613.209 15.8867 613.209 14.9ZM614.829 14.9C614.829 15.6067 614.969 16.2067 615.249 16.7C615.542 17.1933 615.929 17.5667 616.409 17.82C616.889 18.0733 617.409 18.2 617.969 18.2C618.436 18.2 618.896 18.0733 619.349 17.82C619.802 17.5667 620.176 17.1933 620.469 16.7C620.762 16.2067 620.909 15.6067 620.909 14.9C620.909 14.3667 620.822 13.9 620.649 13.5C620.476 13.0867 620.242 12.74 619.949 12.46C619.669 12.18 619.356 11.9667 619.009 11.82C618.662 11.6733 618.316 11.6 617.969 11.6C617.409 11.6 616.889 11.7267 616.409 11.98C615.929 12.2333 615.542 12.6067 615.249 13.1C614.969 13.5933 614.829 14.1933 614.829 14.9Z" fill="#292F36"/>
</svg>
