<svg width="126" height="238" viewBox="0 0 126 238" fill="none" xmlns="http://www.w3.org/2000/svg">
<path d="M1.05 24V23.75L1.55 23.575C1.88333 23.475 2.1 23.325 2.2 23.125C2.31667 22.925 2.375 22.6583 2.375 22.325V9.225C2.375 8.89167 2.31667 8.625 2.2 8.425C2.08333 8.225 1.85833 8.06667 1.525 7.95L1.05 7.75V7.5H7.125C9.60833 7.5 11.4 7.95833 12.5 8.875C13.6167 9.775 14.175 10.9667 14.175 12.45C14.175 13.4 13.9417 14.275 13.475 15.075C13.025 15.8583 12.275 16.4833 11.225 16.95C10.175 17.4167 8.75833 17.65 6.975 17.65H6.125V22.25C6.125 22.9 6.45 23.325 7.1 23.525L7.85 23.75V24H1.05ZM6.125 17.15H7.075C7.89167 17.15 8.55833 17.0167 9.075 16.75C9.59167 16.4833 9.975 16.0167 10.225 15.35C10.475 14.6833 10.6 13.7583 10.6 12.575C10.6 11.375 10.4583 10.4417 10.175 9.775C9.90833 9.10833 9.50833 8.65 8.975 8.4C8.44167 8.13333 7.775 8 6.975 8H6.125V17.15ZM18.5172 24.375C17.5505 24.375 16.7339 24.1 16.0672 23.55C15.4172 23 15.0922 22.2083 15.0922 21.175C15.0922 20.3917 15.4922 19.675 16.2922 19.025C17.0922 18.3583 18.3505 17.8583 20.0672 17.525C20.3339 17.475 20.6339 17.425 20.9672 17.375C21.3005 17.3083 21.6505 17.2417 22.0172 17.175V15.2C22.0172 14.0667 21.8755 13.275 21.5922 12.825C21.3255 12.3583 20.9005 12.125 20.3172 12.125C19.9172 12.125 19.6005 12.2583 19.3672 12.525C19.1339 12.775 18.9839 13.2167 18.9172 13.85L18.8672 14.125C18.8339 14.8417 18.6589 15.3667 18.3422 15.7C18.0255 16.0333 17.6339 16.2 17.1672 16.2C16.7339 16.2 16.3755 16.0667 16.0922 15.8C15.8089 15.5333 15.6672 15.175 15.6672 14.725C15.6672 14.0417 15.9005 13.4667 16.3672 13C16.8505 12.5333 17.4839 12.1833 18.2672 11.95C19.0505 11.7167 19.9005 11.6 20.8172 11.6C22.3005 11.6 23.4422 11.9667 24.2422 12.7C25.0589 13.4167 25.4672 14.5917 25.4672 16.225V21.75C25.4672 22.5 25.8172 22.875 26.5172 22.875H27.0672L27.2922 23.075C26.9755 23.475 26.6255 23.7833 26.2422 24C25.8755 24.2167 25.3505 24.325 24.6672 24.325C23.9339 24.325 23.3505 24.1583 22.9172 23.825C22.5005 23.475 22.2255 23.0167 22.0922 22.45C21.5922 22.9833 21.0755 23.4417 20.5422 23.825C20.0255 24.1917 19.3505 24.375 18.5172 24.375ZM20.0422 22.85C20.3755 22.85 20.6839 22.775 20.9672 22.625C21.2672 22.4583 21.6172 22.2083 22.0172 21.875V17.675C21.8505 17.7083 21.6839 17.7417 21.5172 17.775C21.3505 17.8083 21.1589 17.8417 20.9422 17.875C20.1755 18.075 19.5589 18.4167 19.0922 18.9C18.6422 19.3667 18.4172 20 18.4172 20.8C18.4172 21.4833 18.5755 22 18.8922 22.35C19.2089 22.6833 19.5922 22.85 20.0422 22.85ZM33.0857 19.675C31.9357 19.675 30.9607 19.4833 30.1607 19.1V19.95C30.1607 20.4667 30.4191 20.775 30.9357 20.875L35.6357 21.75C36.4191 21.9 37.1274 22.1 37.7607 22.35C38.3941 22.5833 38.9024 22.925 39.2857 23.375C39.6691 23.8083 39.8607 24.4083 39.8607 25.175C39.8607 25.9917 39.5941 26.7417 39.0607 27.425C38.5274 28.125 37.7357 28.6833 36.6857 29.1C35.6524 29.5333 34.3607 29.75 32.8107 29.75C31.4774 29.75 30.4191 29.6083 29.6357 29.325C28.8524 29.0583 28.2941 28.7083 27.9607 28.275C27.6441 27.8417 27.4857 27.3833 27.4857 26.9C27.4857 26.3 27.6857 25.6917 28.0857 25.075C28.5024 24.475 29.0107 23.9917 29.6107 23.625C29.0941 23.425 28.7191 23.1667 28.4857 22.85C28.2524 22.5333 28.1357 22.1917 28.1357 21.825C28.1357 21.4917 28.2191 21.1833 28.3857 20.9C28.5691 20.6 28.7857 20.3 29.0357 20L29.8607 18.95C28.6441 18.25 28.0357 17.15 28.0357 15.65C28.0357 14.45 28.4607 13.475 29.3107 12.725C30.1774 11.975 31.4441 11.6 33.1107 11.6C33.9607 11.6 34.7024 11.7 35.3357 11.9C35.9857 12.1 36.5191 12.3833 36.9357 12.75C37.4691 12.6667 37.9691 12.5333 38.4357 12.35C38.9191 12.15 39.3524 11.8833 39.7357 11.55L40.0857 11.8V13.075H37.2607C37.8607 13.7417 38.1607 14.6 38.1607 15.65C38.1607 16.8167 37.7274 17.7833 36.8607 18.55C36.0107 19.3 34.7524 19.675 33.0857 19.675ZM33.0607 19.175C33.7274 19.175 34.2107 18.9 34.5107 18.35C34.8274 17.8 34.9857 16.8833 34.9857 15.6C34.9857 14.3167 34.8274 13.4167 34.5107 12.9C34.2107 12.3667 33.7441 12.1 33.1107 12.1C32.4941 12.1 32.0274 12.375 31.7107 12.925C31.3941 13.4583 31.2357 14.3667 31.2357 15.65C31.2357 16.9333 31.3774 17.8417 31.6607 18.375C31.9607 18.9083 32.4274 19.175 33.0607 19.175ZM29.3357 26.1C29.3357 27.0833 29.6357 27.825 30.2357 28.325C30.8524 28.825 31.8191 29.075 33.1357 29.075C34.5191 29.075 35.5607 28.85 36.2607 28.4C36.9607 27.95 37.3107 27.3167 37.3107 26.5C37.3107 26.0333 37.1357 25.6583 36.7857 25.375C36.4524 25.0917 35.8774 24.875 35.0607 24.725L30.5357 23.875C30.4024 23.8417 30.2691 23.8083 30.1357 23.775C29.9024 24.1083 29.7107 24.4833 29.5607 24.9C29.4107 25.3333 29.3357 25.7333 29.3357 26.1ZM46.8014 11.6C47.8847 11.6 48.8097 11.825 49.5764 12.275C50.343 12.7083 50.9264 13.3083 51.3264 14.075C51.743 14.825 51.9514 15.6833 51.9514 16.65C51.9514 16.8333 51.943 17.025 51.9264 17.225C51.9097 17.4083 51.8764 17.575 51.8264 17.725H44.3764C44.393 19.525 44.7097 20.825 45.3264 21.625C45.9597 22.4083 46.893 22.8 48.1264 22.8C48.9597 22.8 49.6347 22.6667 50.1514 22.4C50.668 22.1333 51.1514 21.7417 51.6014 21.225L51.8514 21.45C51.3347 22.3667 50.643 23.0833 49.7764 23.6C48.9264 24.1167 47.9014 24.375 46.7014 24.375C45.518 24.375 44.468 24.125 43.5514 23.625C42.6347 23.1083 41.918 22.375 41.4014 21.425C40.8847 20.475 40.6264 19.3417 40.6264 18.025C40.6264 16.6583 40.9264 15.5 41.5264 14.55C42.1264 13.5833 42.893 12.85 43.8264 12.35C44.7764 11.85 45.768 11.6 46.8014 11.6ZM46.7264 12.1C46.243 12.1 45.8264 12.25 45.4764 12.55C45.143 12.8333 44.8764 13.35 44.6764 14.1C44.493 14.8333 44.393 15.875 44.3764 17.225H48.6514C48.818 15.4083 48.7514 14.1 48.4514 13.3C48.1514 12.5 47.5764 12.1 46.7264 12.1ZM57.5223 24.375C56.7056 24.375 55.9723 24.275 55.3223 24.075C54.6723 23.8917 54.0723 23.6583 53.5223 23.375L53.5473 20.4H53.7973L54.6473 21.9C55.0139 22.5667 55.4139 23.0667 55.8473 23.4C56.2973 23.7167 56.8639 23.875 57.5473 23.875C58.3473 23.875 58.9889 23.7 59.4723 23.35C59.9723 22.9833 60.2223 22.5 60.2223 21.9C60.2223 21.35 60.0473 20.9 59.6973 20.55C59.3473 20.2 58.6973 19.8833 57.7473 19.6L56.6973 19.275C55.6806 18.975 54.8806 18.5083 54.2973 17.875C53.7139 17.2417 53.4223 16.4667 53.4223 15.55C53.4223 14.45 53.8556 13.5167 54.7223 12.75C55.5889 11.9833 56.8306 11.6 58.4473 11.6C59.0973 11.6 59.7056 11.675 60.2723 11.825C60.8556 11.9583 61.4139 12.1667 61.9473 12.45L61.7973 15.15H61.5473L60.6723 13.6C60.3556 13.05 60.0389 12.6667 59.7223 12.45C59.4223 12.2167 58.9639 12.1 58.3473 12.1C57.7806 12.1 57.2473 12.2583 56.7473 12.575C56.2473 12.8917 55.9973 13.3417 55.9973 13.925C55.9973 14.4917 56.2056 14.9417 56.6223 15.275C57.0556 15.6083 57.6889 15.9167 58.5223 16.2L59.6473 16.525C60.8473 16.8917 61.7056 17.4 62.2223 18.05C62.7389 18.6833 62.9973 19.45 62.9973 20.35C62.9973 21.5667 62.5139 22.5417 61.5473 23.275C60.5973 24.0083 59.2556 24.375 57.5223 24.375Z" fill="#292F36"/>
<path d="M3.294 73.52V71.76H13.854V73.52H3.294ZM12.6 65.6H14.47V81H12.6V65.6ZM2.26 65.6H4.13V81H2.26V65.6ZM17.2166 75.94C17.2166 74.9133 17.4439 74.004 17.8986 73.212C18.3679 72.42 18.9986 71.7967 19.7906 71.342C20.5826 70.8873 21.4699 70.66 22.4526 70.66C23.4499 70.66 24.3372 70.8873 25.1146 71.342C25.9066 71.7967 26.5299 72.42 26.9846 73.212C27.4539 74.004 27.6886 74.9133 27.6886 75.94C27.6886 76.952 27.4539 77.8613 26.9846 78.668C26.5299 79.46 25.9066 80.0833 25.1146 80.538C24.3372 80.9927 23.4499 81.22 22.4526 81.22C21.4699 81.22 20.5826 80.9927 19.7906 80.538C18.9986 80.0833 18.3679 79.46 17.8986 78.668C17.4439 77.8613 17.2166 76.952 17.2166 75.94ZM18.9986 75.94C18.9986 76.644 19.1452 77.2673 19.4386 77.81C19.7466 78.3527 20.1572 78.7853 20.6706 79.108C21.1986 79.416 21.7926 79.57 22.4526 79.57C23.1126 79.57 23.6992 79.416 24.2126 79.108C24.7406 78.7853 25.1512 78.3527 25.4446 77.81C25.7526 77.2673 25.9066 76.644 25.9066 75.94C25.9066 75.236 25.7526 74.6127 25.4446 74.07C25.1512 73.5127 24.7406 73.08 24.2126 72.772C23.6992 72.464 23.1126 72.31 22.4526 72.31C21.7926 72.31 21.1986 72.464 20.6706 72.772C20.1572 73.08 19.7466 73.5127 19.4386 74.07C19.1452 74.6127 18.9986 75.236 18.9986 75.94ZM44.1863 74.62V81H42.4263V74.84C42.4263 73.9747 42.265 73.3367 41.9423 72.926C41.6343 72.5153 41.1503 72.31 40.4903 72.31C40.0063 72.31 39.5883 72.4127 39.2363 72.618C38.8843 72.8087 38.613 73.0947 38.4223 73.476C38.2317 73.8573 38.1363 74.312 38.1363 74.84V81H36.3763V74.84C36.3763 73.9747 36.215 73.3367 35.8923 72.926C35.5843 72.5153 35.1003 72.31 34.4403 72.31C33.9563 72.31 33.5383 72.4127 33.1863 72.618C32.8343 72.8087 32.563 73.0947 32.3723 73.476C32.1817 73.8573 32.0863 74.312 32.0863 74.84V81H30.3263V70.88H32.0863V72.354C32.3943 71.782 32.7757 71.3567 33.2303 71.078C33.6997 70.7993 34.2497 70.66 34.8803 70.66C35.5843 70.66 36.1857 70.8287 36.6843 71.166C37.1977 71.4887 37.5717 71.9507 37.8063 72.552C38.1583 71.9213 38.5983 71.452 39.1263 71.144C39.6543 70.8213 40.2557 70.66 40.9303 70.66C41.6197 70.66 42.2063 70.814 42.6903 71.122C43.1743 71.43 43.541 71.8847 43.7903 72.486C44.0543 73.0727 44.1863 73.784 44.1863 74.62ZM51.6283 81.22C50.6897 81.22 49.8537 81 49.1203 80.56C48.4017 80.1053 47.837 79.482 47.4263 78.69C47.0303 77.898 46.8323 76.9813 46.8323 75.94C46.8323 74.884 47.0377 73.96 47.4483 73.168C47.8737 72.376 48.4603 71.76 49.2083 71.32C49.971 70.88 50.851 70.66 51.8483 70.66C52.8457 70.66 53.6963 70.8727 54.4003 71.298C55.119 71.7087 55.669 72.3027 56.0503 73.08C56.4317 73.8573 56.6223 74.7813 56.6223 75.852C56.6223 75.9547 56.615 76.0647 56.6003 76.182C56.6003 76.2847 56.6003 76.3507 56.6003 76.38H47.9543V74.884H55.2143L54.5103 75.896C54.5543 75.8227 54.5983 75.7127 54.6423 75.566C54.6863 75.4047 54.7083 75.2727 54.7083 75.17C54.7083 74.5687 54.5837 74.048 54.3343 73.608C54.0997 73.168 53.7697 72.8233 53.3443 72.574C52.919 72.3247 52.4203 72.2 51.8483 72.2C51.1737 72.2 50.5943 72.3467 50.1103 72.64C49.641 72.9187 49.2743 73.3293 49.0103 73.872C48.761 74.4 48.629 75.0527 48.6143 75.83C48.6143 76.622 48.739 77.2967 48.9883 77.854C49.2377 78.4113 49.6043 78.8367 50.0883 79.13C50.5723 79.4233 51.159 79.57 51.8483 79.57C52.5377 79.57 53.1463 79.4233 53.6743 79.13C54.2023 78.822 54.6497 78.36 55.0163 77.744L56.4463 78.646C55.9183 79.4967 55.251 80.142 54.4443 80.582C53.6523 81.0073 52.7137 81.22 51.6283 81.22ZM2.26 131.6H4.13V147H2.26V131.6ZM3.294 133.36V131.6H6.44C7.43733 131.6 8.32467 131.791 9.102 132.172C9.894 132.539 10.5173 133.067 10.972 133.756C11.4413 134.445 11.676 135.267 11.676 136.22C11.676 137.159 11.4413 137.98 10.972 138.684C10.5173 139.373 9.894 139.909 9.102 140.29C8.32467 140.657 7.43733 140.84 6.44 140.84H3.294V139.08H6.44C7.43733 139.08 8.244 138.838 8.86 138.354C9.49067 137.87 9.806 137.159 9.806 136.22C9.806 135.267 9.49067 134.555 8.86 134.086C8.244 133.602 7.43733 133.36 6.44 133.36H3.294ZM15.753 136.88V147H13.993V136.88H15.753ZM18.811 138.816C18.5764 138.64 18.3637 138.515 18.173 138.442C17.9824 138.354 17.7404 138.31 17.447 138.31C17.007 138.31 16.6624 138.42 16.413 138.64C16.1637 138.86 15.9877 139.161 15.885 139.542C15.797 139.923 15.753 140.356 15.753 140.84H14.961C14.961 140.033 15.1004 139.322 15.379 138.706C15.6724 138.075 16.0464 137.577 16.501 137.21C16.9557 136.843 17.4177 136.66 17.887 136.66C18.2537 136.66 18.591 136.711 18.899 136.814C19.2217 136.902 19.515 137.085 19.779 137.364L18.811 138.816ZM20.5518 141.94C20.5518 140.913 20.7791 140.004 21.2338 139.212C21.7031 138.42 22.3338 137.797 23.1258 137.342C23.9178 136.887 24.8051 136.66 25.7878 136.66C26.7851 136.66 27.6725 136.887 28.4498 137.342C29.2418 137.797 29.8651 138.42 30.3198 139.212C30.7891 140.004 31.0238 140.913 31.0238 141.94C31.0238 142.952 30.7891 143.861 30.3198 144.668C29.8651 145.46 29.2418 146.083 28.4498 146.538C27.6725 146.993 26.7851 147.22 25.7878 147.22C24.8051 147.22 23.9178 146.993 23.1258 146.538C22.3338 146.083 21.7031 145.46 21.2338 144.668C20.7791 143.861 20.5518 142.952 20.5518 141.94ZM22.3338 141.94C22.3338 142.644 22.4805 143.267 22.7738 143.81C23.0818 144.353 23.4925 144.785 24.0058 145.108C24.5338 145.416 25.1278 145.57 25.7878 145.57C26.4478 145.57 27.0345 145.416 27.5478 145.108C28.0758 144.785 28.4865 144.353 28.7798 143.81C29.0878 143.267 29.2418 142.644 29.2418 141.94C29.2418 141.236 29.0878 140.613 28.7798 140.07C28.4865 139.513 28.0758 139.08 27.5478 138.772C27.0345 138.464 26.4478 138.31 25.7878 138.31C25.1278 138.31 24.5338 138.464 24.0058 138.772C23.4925 139.08 23.0818 139.513 22.7738 140.07C22.4805 140.613 22.3338 141.236 22.3338 141.94ZM33.3756 132.7C33.3756 132.363 33.4929 132.084 33.7276 131.864C33.9622 131.629 34.2409 131.512 34.5636 131.512C34.9009 131.512 35.1796 131.629 35.3996 131.864C35.6342 132.084 35.7516 132.363 35.7516 132.7C35.7516 133.023 35.6342 133.301 35.3996 133.536C35.1796 133.771 34.9009 133.888 34.5636 133.888C34.2409 133.888 33.9622 133.771 33.7276 133.536C33.4929 133.301 33.3756 133.023 33.3756 132.7ZM31.6376 149.508C31.7549 149.684 31.9016 149.823 32.0776 149.926C32.2682 150.029 32.4809 150.08 32.7156 150.08C32.9649 150.08 33.1629 150.014 33.3096 149.882C33.4709 149.75 33.5882 149.537 33.6616 149.244C33.7349 148.951 33.7716 148.569 33.7716 148.1V136.88H35.5316V148.32C35.5316 149.053 35.4142 149.684 35.1796 150.212C34.9596 150.74 34.6296 151.143 34.1896 151.422C33.7496 151.701 33.2216 151.84 32.6056 151.84C32.3122 151.84 32.0482 151.803 31.8136 151.73C31.5789 151.671 31.3662 151.576 31.1756 151.444C30.9849 151.312 30.8162 151.151 30.6696 150.96L31.6376 149.508ZM43.2976 147.22C42.3589 147.22 41.5229 147 40.7896 146.56C40.0709 146.105 39.5062 145.482 39.0956 144.69C38.6996 143.898 38.5016 142.981 38.5016 141.94C38.5016 140.884 38.7069 139.96 39.1176 139.168C39.5429 138.376 40.1296 137.76 40.8776 137.32C41.6402 136.88 42.5202 136.66 43.5176 136.66C44.5149 136.66 45.3656 136.873 46.0696 137.298C46.7882 137.709 47.3382 138.303 47.7196 139.08C48.1009 139.857 48.2916 140.781 48.2916 141.852C48.2916 141.955 48.2842 142.065 48.2696 142.182C48.2696 142.285 48.2696 142.351 48.2696 142.38H39.6236V140.884H46.8836L46.1796 141.896C46.2236 141.823 46.2676 141.713 46.3116 141.566C46.3556 141.405 46.3776 141.273 46.3776 141.17C46.3776 140.569 46.2529 140.048 46.0036 139.608C45.7689 139.168 45.4389 138.823 45.0136 138.574C44.5882 138.325 44.0896 138.2 43.5176 138.2C42.8429 138.2 42.2636 138.347 41.7796 138.64C41.3102 138.919 40.9436 139.329 40.6796 139.872C40.4302 140.4 40.2982 141.053 40.2836 141.83C40.2836 142.622 40.4082 143.297 40.6576 143.854C40.9069 144.411 41.2736 144.837 41.7576 145.13C42.2416 145.423 42.8282 145.57 43.5176 145.57C44.2069 145.57 44.8156 145.423 45.3436 145.13C45.8716 144.822 46.3189 144.36 46.6856 143.744L48.1156 144.646C47.5876 145.497 46.9202 146.142 46.1136 146.582C45.3216 147.007 44.3829 147.22 43.2976 147.22ZM51.7158 141.94C51.7158 142.644 51.8625 143.267 52.1558 143.81C52.4638 144.353 52.8745 144.785 53.3878 145.108C53.9158 145.416 54.5098 145.57 55.1698 145.57C55.7125 145.57 56.2185 145.489 56.6878 145.328C57.1718 145.152 57.5898 144.925 57.9418 144.646C58.2938 144.353 58.5432 144.045 58.6898 143.722V145.922C58.3378 146.333 57.8318 146.655 57.1718 146.89C56.5265 147.11 55.8592 147.22 55.1698 147.22C54.1872 147.22 53.2998 146.993 52.5078 146.538C51.7158 146.083 51.0852 145.46 50.6158 144.668C50.1612 143.861 49.9338 142.952 49.9338 141.94C49.9338 140.913 50.1612 140.004 50.6158 139.212C51.0852 138.42 51.7158 137.797 52.5078 137.342C53.2998 136.887 54.1872 136.66 55.1698 136.66C55.8592 136.66 56.5265 136.777 57.1718 137.012C57.8318 137.232 58.3378 137.547 58.6898 137.958V140.158C58.5432 139.821 58.2938 139.513 57.9418 139.234C57.5898 138.955 57.1718 138.735 56.6878 138.574C56.2185 138.398 55.7125 138.31 55.1698 138.31C54.5098 138.31 53.9158 138.464 53.3878 138.772C52.8745 139.08 52.4638 139.513 52.1558 140.07C51.8625 140.613 51.7158 141.236 51.7158 141.94ZM60.1097 136.88H65.1697V138.53H60.1097V136.88ZM61.7597 133.36H63.5197V147H61.7597V133.36ZM3.734 204.86V203.826H6.22C6.73333 203.826 7.19533 203.738 7.606 203.562C8.01667 203.386 8.33933 203.129 8.574 202.792C8.80867 202.455 8.926 202.044 8.926 201.56C8.926 200.827 8.66933 200.262 8.156 199.866C7.64267 199.455 6.99733 199.25 6.22 199.25H4.13V211.35H6.44C7.1 211.35 7.67933 211.233 8.178 210.998C8.69133 210.763 9.08733 210.426 9.366 209.986C9.65933 209.546 9.806 209.011 9.806 208.38C9.806 207.911 9.72533 207.493 9.564 207.126C9.40267 206.759 9.168 206.451 8.86 206.202C8.56667 205.953 8.21467 205.769 7.804 205.652C7.39333 205.52 6.93867 205.454 6.44 205.454H3.734V204.42H6.44C7.188 204.42 7.87733 204.501 8.508 204.662C9.13867 204.823 9.68867 205.073 10.158 205.41C10.642 205.733 11.016 206.151 11.28 206.664C11.544 207.177 11.676 207.786 11.676 208.49C11.676 209.502 11.4413 210.345 10.972 211.02C10.5173 211.68 9.894 212.179 9.102 212.516C8.32467 212.839 7.43733 213 6.44 213H2.26V197.6H6.22C7.144 197.6 7.94333 197.739 8.618 198.018C9.30733 198.297 9.84267 198.722 10.224 199.294C10.6053 199.851 10.796 200.57 10.796 201.45C10.796 202.169 10.6053 202.785 10.224 203.298C9.84267 203.811 9.30733 204.2 8.618 204.464C7.94333 204.728 7.144 204.86 6.22 204.86H3.734ZM14.6376 195.84H16.3976V213H14.6376V195.84ZM19.0479 207.94C19.0479 206.913 19.2752 206.004 19.7299 205.212C20.1992 204.42 20.8299 203.797 21.6219 203.342C22.4139 202.887 23.3012 202.66 24.2839 202.66C25.2812 202.66 26.1686 202.887 26.9459 203.342C27.7379 203.797 28.3612 204.42 28.8159 205.212C29.2852 206.004 29.5199 206.913 29.5199 207.94C29.5199 208.952 29.2852 209.861 28.8159 210.668C28.3612 211.46 27.7379 212.083 26.9459 212.538C26.1686 212.993 25.2812 213.22 24.2839 213.22C23.3012 213.22 22.4139 212.993 21.6219 212.538C20.8299 212.083 20.1992 211.46 19.7299 210.668C19.2752 209.861 19.0479 208.952 19.0479 207.94ZM20.8299 207.94C20.8299 208.644 20.9766 209.267 21.2699 209.81C21.5779 210.353 21.9886 210.785 22.5019 211.108C23.0299 211.416 23.6239 211.57 24.2839 211.57C24.9439 211.57 25.5306 211.416 26.0439 211.108C26.5719 210.785 26.9826 210.353 27.2759 209.81C27.5839 209.267 27.7379 208.644 27.7379 207.94C27.7379 207.236 27.5839 206.613 27.2759 206.07C26.9826 205.513 26.5719 205.08 26.0439 204.772C25.5306 204.464 24.9439 204.31 24.2839 204.31C23.6239 204.31 23.0299 204.464 22.5019 204.772C21.9886 205.08 21.5779 205.513 21.2699 206.07C20.9766 206.613 20.8299 207.236 20.8299 207.94ZM31.4757 213.66H33.2577C33.2577 214.144 33.3897 214.591 33.6537 215.002C33.9177 215.427 34.2917 215.765 34.7757 216.014C35.2597 216.278 35.8317 216.41 36.4917 216.41C37.005 216.41 37.511 216.285 38.0097 216.036C38.5083 215.787 38.919 215.391 39.2417 214.848C39.579 214.32 39.7477 213.631 39.7477 212.78V202.88H41.5077V212.78C41.5077 213.939 41.2657 214.907 40.7817 215.684C40.2977 216.476 39.6743 217.07 38.9117 217.466C38.149 217.862 37.3423 218.06 36.4917 218.06C35.509 218.06 34.6363 217.877 33.8737 217.51C33.1257 217.143 32.539 216.623 32.1137 215.948C31.6883 215.288 31.4757 214.525 31.4757 213.66ZM31.2777 207.94C31.2777 206.84 31.505 205.901 31.9597 205.124C32.4143 204.332 33.023 203.723 33.7857 203.298C34.5483 202.873 35.3843 202.66 36.2937 202.66C37.1443 202.66 37.885 202.873 38.5157 203.298C39.1463 203.723 39.6377 204.332 39.9897 205.124C40.3563 205.901 40.5397 206.84 40.5397 207.94C40.5397 209.025 40.3563 209.964 39.9897 210.756C39.6377 211.548 39.1463 212.157 38.5157 212.582C37.885 213.007 37.1443 213.22 36.2937 213.22C35.3843 213.22 34.5483 213.007 33.7857 212.582C33.023 212.157 32.4143 211.548 31.9597 210.756C31.505 209.964 31.2777 209.025 31.2777 207.94ZM33.0597 207.94C33.0597 208.717 33.2137 209.377 33.5217 209.92C33.8443 210.463 34.2697 210.873 34.7977 211.152C35.3257 211.431 35.8977 211.57 36.5137 211.57C37.027 211.57 37.533 211.431 38.0317 211.152C38.5303 210.873 38.941 210.463 39.2637 209.92C39.5863 209.377 39.7477 208.717 39.7477 207.94C39.7477 207.353 39.6523 206.84 39.4617 206.4C39.271 205.945 39.0143 205.564 38.6917 205.256C38.3837 204.948 38.039 204.713 37.6577 204.552C37.2763 204.391 36.895 204.31 36.5137 204.31C35.8977 204.31 35.3257 204.449 34.7977 204.728C34.2697 205.007 33.8443 205.417 33.5217 205.96C33.2137 206.503 33.0597 207.163 33.0597 207.94Z" fill="#4D5053"/>
</svg>
